<svg width="339" height="253" viewBox="0 0 339 253" fill="none" xmlns="http://www.w3.org/2000/svg">
<path d="M338.763 221.822H0V221.991H338.763V221.822Z" fill="#EBEBEB"/>
<path d="M78.139 228.272H61.2889V228.441H78.139V228.272Z" fill="#EBEBEB"/>
<path d="M121.839 226.436H103.207V226.605H121.839V226.436Z" fill="#EBEBEB"/>
<path d="M71.6686 234.566H32.2976V234.735H71.6686V234.566Z" fill="#EBEBEB"/>
<path d="M304.819 233.428H290.184V233.597H304.819V233.428Z" fill="#EBEBEB"/>
<path d="M164.449 227.743H145.526V227.913H164.449V227.743Z" fill="#EBEBEB"/>
<path d="M251.287 230.569H203.712V230.738H251.287V230.569Z" fill="#EBEBEB"/>
<path d="M160.574 191.604H29.7501C28.7253 191.602 27.743 191.194 27.019 190.469C26.2949 189.743 25.8882 188.76 25.8882 187.735V3.83479C25.8972 2.81581 26.3078 1.8415 27.0309 1.12348C27.7539 0.405471 28.7311 0.00174557 29.7501 0H160.574C161.6 0 162.584 0.407591 163.309 1.13311C164.035 1.85862 164.442 2.84263 164.442 3.86867V187.735C164.442 188.762 164.035 189.746 163.309 190.471C162.584 191.197 161.6 191.604 160.574 191.604ZM29.7501 0.135506C28.7702 0.1373 27.831 0.527836 27.1387 1.22139C26.4464 1.91495 26.0576 2.85485 26.0576 3.83479V187.735C26.0576 188.715 26.4464 189.655 27.1387 190.349C27.831 191.042 28.7702 191.433 29.7501 191.435H160.574C161.554 191.433 162.494 191.043 163.187 190.349C163.881 189.656 164.271 188.716 164.273 187.735V3.83479C164.271 2.85423 163.881 1.91434 163.187 1.22098C162.494 0.527616 161.554 0.137297 160.574 0.135506H29.7501Z" fill="#EBEBEB"/>
<path d="M307.129 191.604H176.299C175.273 191.602 174.29 191.194 173.565 190.469C172.84 189.744 172.432 188.761 172.43 187.735V3.83479C172.441 2.81519 172.853 1.84089 173.577 1.12306C174.301 0.405234 175.279 0.00172653 176.299 0H307.129C308.147 0.00352618 309.122 0.408039 309.844 1.12586C310.566 1.84369 310.975 2.81698 310.984 3.83479V187.735C310.984 188.759 310.578 189.741 309.856 190.466C309.133 191.191 308.153 191.601 307.129 191.604ZM176.299 0.135506C175.318 0.137297 174.378 0.527616 173.685 1.22098C172.992 1.91434 172.601 2.85423 172.6 3.83479V187.735C172.601 188.716 172.992 189.656 173.685 190.349C174.378 191.043 175.318 191.433 176.299 191.435H307.129C308.11 191.433 309.049 191.043 309.743 190.349C310.436 189.656 310.826 188.716 310.828 187.735V3.83479C310.826 2.85423 310.436 1.91434 309.743 1.22098C309.049 0.527616 308.11 0.137297 307.129 0.135506H176.299Z" fill="#EBEBEB"/>
<path d="M324.609 129.367H14.1535V210.941H324.609V129.367Z" fill="#F5F5F5"/>
<path d="M308.369 145.891L315.347 139.936H267.88L274.865 145.891" fill="#F0F0F0"/>
<path d="M308.369 145.891V196.503L315.347 202.465V139.936L308.369 145.891Z" fill="#E0E0E0"/>
<path d="M267.88 139.936V202.465L274.865 196.503V145.891L267.88 139.936Z" fill="#FAFAFA"/>
<path d="M308.369 196.503H274.865L267.88 202.465H315.347L308.369 196.503Z" fill="#F0F0F0"/>
<path d="M308.369 145.891H274.865V196.503H308.369V145.891Z" fill="white"/>
<path d="M226.883 145.891L233.861 139.936H186.394L193.372 145.891" fill="#F0F0F0"/>
<path d="M226.883 145.891V196.503L233.861 202.465V139.936L226.883 145.891Z" fill="#E0E0E0"/>
<path d="M186.394 139.936V202.465L193.372 196.503V145.891L186.394 139.936Z" fill="#FAFAFA"/>
<path d="M226.883 196.503H193.372L186.394 202.465H233.861L226.883 196.503Z" fill="#F0F0F0"/>
<path d="M226.876 145.891H193.372V196.503H226.876V145.891Z" fill="white"/>
<path d="M145.39 145.891L152.369 139.936H104.901L111.88 145.891" fill="#F0F0F0"/>
<path d="M145.39 145.891V196.503L152.369 202.465V139.936L145.39 145.891Z" fill="#E0E0E0"/>
<path d="M104.901 139.936V202.465L111.88 196.503V145.891L104.901 139.936Z" fill="#FAFAFA"/>
<path d="M145.39 196.503H111.88L104.901 202.465H152.369L145.39 196.503Z" fill="#F0F0F0"/>
<path d="M145.39 145.891H111.887V196.503H145.39V145.891Z" fill="white"/>
<path d="M63.8974 145.891L70.8759 139.936H23.4153L30.3938 145.891" fill="#F0F0F0"/>
<path d="M63.8974 145.891V196.503L70.8759 202.465V139.936L63.8974 145.891Z" fill="#E0E0E0"/>
<path d="M23.4153 139.936V202.465L30.3938 196.503V145.891L23.4153 139.936Z" fill="#FAFAFA"/>
<path d="M63.8974 196.503H30.3938L23.4153 202.465H70.8759L63.8974 196.503Z" fill="#F0F0F0"/>
<path d="M63.8974 145.891H30.3938V196.503H63.8974V145.891Z" fill="white"/>
<path d="M89.745 16.6536H39.6759V81.574H89.745V16.6536Z" fill="#EBEBEB"/>
<path d="M89.745 81.5808H91.2423L91.2423 16.6603H89.745L89.745 81.5808Z" fill="#E0E0E0"/>
<path d="M85.0023 76.8381V21.403L44.4186 21.403V76.8381H85.0023Z" fill="#FAFAFA"/>
<path d="M207.424 76.4452H99.7588V79.9277H207.424V76.4452Z" fill="#E0E0E0"/>
<path d="M150.234 56.8037V53.0977C150.235 52.9334 150.204 52.7705 150.142 52.6185C150.079 52.4665 149.988 52.3282 149.872 52.2118C149.756 52.0953 149.618 52.0028 149.466 51.9398C149.315 51.8767 149.152 51.8442 148.988 51.8442H148.026C147.693 51.8442 147.374 51.9763 147.139 52.2114C146.904 52.4464 146.772 52.7652 146.772 53.0977V56.8037C146.772 56.982 146.734 57.1583 146.661 57.3207C146.587 57.4831 146.479 57.6279 146.345 57.7455L143.29 60.4149C143.155 60.5322 143.048 60.677 142.974 60.8395C142.901 61.0019 142.863 61.1783 142.863 61.3567V75.2053C142.862 75.3696 142.894 75.5324 142.956 75.6845C143.018 75.8365 143.11 75.9747 143.226 76.0912C143.342 76.2077 143.479 76.3001 143.631 76.3632C143.783 76.4263 143.945 76.4587 144.11 76.4587H152.917C153.082 76.4587 153.244 76.4263 153.396 76.3632C153.548 76.3001 153.686 76.2077 153.801 76.0912C153.917 75.9747 154.009 75.8365 154.071 75.6845C154.133 75.5324 154.165 75.3696 154.164 75.2053V61.3567C154.164 61.1783 154.127 61.0019 154.053 60.8395C153.979 60.677 153.872 60.5322 153.737 60.4149L150.682 57.7455C150.544 57.6295 150.433 57.4854 150.356 57.323C150.279 57.1606 150.237 56.9835 150.234 56.8037Z" fill="#F5F5F5"/>
<path d="M150.065 50.0759H146.942C146.661 50.0759 146.434 50.3034 146.434 50.584V55.5164C146.434 55.797 146.661 56.0245 146.942 56.0245H150.065C150.346 56.0245 150.573 55.797 150.573 55.5164V50.584C150.573 50.3034 150.346 50.0759 150.065 50.0759Z" fill="#E6E6E6"/>
<path d="M150.431 49.3239H146.576C146.351 49.3239 146.169 49.5058 146.169 49.7304V52.2508C146.169 52.4753 146.351 52.6573 146.576 52.6573H150.431C150.655 52.6573 150.837 52.4753 150.837 52.2508V49.7304C150.837 49.5058 150.655 49.3239 150.431 49.3239Z" fill="#E6E6E6"/>
<path d="M154.157 64.1481H142.863V73.3489H154.157V64.1481Z" fill="#EBEBEB"/>
<path d="M152.301 64.5478C152.302 65.3001 152.08 66.0359 151.663 66.662C151.246 67.2881 150.652 67.7764 149.958 68.0649C149.263 68.3534 148.498 68.4292 147.76 68.2828C147.022 68.1364 146.344 67.7742 145.812 67.2422C145.28 66.7103 144.918 66.0324 144.772 65.2944C144.625 64.5565 144.701 63.7917 144.99 63.0969C145.278 62.4021 145.766 61.8085 146.393 61.3914C147.019 60.9743 147.754 60.7523 148.507 60.7537C149.512 60.7555 150.477 61.1558 151.188 61.8669C151.899 62.5781 152.299 63.5421 152.301 64.5478Z" fill="#EBEBEB"/>
<path d="M132.117 47.8875V45.0825C132.118 44.9577 132.094 44.834 132.047 44.7185C132 44.603 131.93 44.4981 131.842 44.4098C131.753 44.3216 131.648 44.2517 131.533 44.2044C131.417 44.157 131.294 44.1331 131.169 44.134H130.444C130.319 44.1331 130.195 44.157 130.08 44.2044C129.964 44.2517 129.859 44.3216 129.771 44.4098C129.683 44.4981 129.613 44.603 129.566 44.7185C129.518 44.834 129.495 44.9577 129.495 45.0825V47.8875C129.495 48.0233 129.465 48.1574 129.409 48.2812C129.353 48.4049 129.272 48.5154 129.17 48.6057L126.853 50.6382C126.75 50.7273 126.668 50.8377 126.612 50.9617C126.556 51.0856 126.527 51.2203 126.528 51.3564V75.5102C126.528 75.6348 126.552 75.7581 126.6 75.8732C126.648 75.9883 126.718 76.0928 126.806 76.1809C126.894 76.269 126.998 76.3389 127.113 76.3865C127.228 76.4342 127.352 76.4587 127.476 76.4587H134.15C134.275 76.4587 134.398 76.4342 134.513 76.3865C134.628 76.3389 134.733 76.269 134.821 76.1809C134.909 76.0928 134.979 75.9883 135.026 75.8732C135.074 75.7581 135.099 75.6348 135.099 75.5102V51.3429C135.099 51.2068 135.071 51.0721 135.015 50.9481C134.959 50.8241 134.876 50.7138 134.773 50.6247L132.456 48.5921C132.354 48.5046 132.271 48.3968 132.213 48.2755C132.154 48.1542 132.122 48.022 132.117 47.8875Z" fill="#F5F5F5"/>
<path d="M132.009 42.7925H129.644C129.431 42.7925 129.258 42.9654 129.258 43.1787V46.9118C129.258 47.1251 129.431 47.298 129.644 47.298H132.009C132.222 47.298 132.395 47.1251 132.395 46.9118V43.1787C132.395 42.9654 132.222 42.7925 132.009 42.7925Z" fill="#E6E6E6"/>
<path d="M132.287 42.2234H129.36C129.192 42.2234 129.055 42.3599 129.055 42.5283V44.4457C129.055 44.6141 129.192 44.7506 129.36 44.7506H132.287C132.455 44.7506 132.592 44.6141 132.592 44.4457V42.5283C132.592 42.3599 132.455 42.2234 132.287 42.2234Z" fill="#E6E6E6"/>
<path d="M134.326 53.4567H127.327V74.1009H134.326V53.4567Z" fill="#EBEBEB"/>
<path d="M133.703 55.015C133.703 55.5846 133.534 56.1413 133.218 56.6148C132.901 57.0883 132.451 57.4574 131.925 57.6754C131.399 57.8933 130.82 57.9503 130.262 57.8392C129.703 57.7281 129.19 57.4539 128.787 57.0512C128.385 56.6484 128.11 56.1354 127.999 55.5768C127.888 55.0182 127.945 54.4393 128.163 53.9131C128.381 53.387 128.75 52.9373 129.224 52.6209C129.697 52.3045 130.254 52.1356 130.823 52.1356C131.202 52.1347 131.577 52.2085 131.926 52.3529C132.276 52.4973 132.594 52.7094 132.861 52.977C133.129 53.2445 133.341 53.5623 133.485 53.9121C133.63 54.2618 133.704 54.6367 133.703 55.015Z" fill="#EBEBEB"/>
<path d="M189.24 59.1276V56.9731C189.24 56.8485 189.215 56.7252 189.167 56.6101C189.12 56.495 189.05 56.3904 188.962 56.3024C188.874 56.2143 188.769 56.1444 188.654 56.0967C188.539 56.0491 188.416 56.0245 188.291 56.0245H187.559C187.435 56.0245 187.311 56.0491 187.196 56.0967C187.081 56.1444 186.977 56.2143 186.889 56.3024C186.801 56.3904 186.731 56.495 186.683 56.6101C186.635 56.7252 186.611 56.8485 186.611 56.9731V59.1276C186.607 59.257 186.576 59.3841 186.52 59.5008C186.464 59.6174 186.384 59.7211 186.286 59.8051L183.968 61.8377C183.867 61.9269 183.786 62.0363 183.73 62.1589C183.674 62.2814 183.645 62.4144 183.643 62.5491V75.4695C183.643 75.5941 183.668 75.7174 183.715 75.8325C183.763 75.9476 183.833 76.0521 183.921 76.1402C184.009 76.2283 184.114 76.2982 184.229 76.3458C184.344 76.3935 184.467 76.418 184.592 76.418H191.259C191.51 76.418 191.751 76.3181 191.929 76.1402C192.107 75.9623 192.207 75.7211 192.207 75.4695V62.5762C192.206 62.4415 192.176 62.3085 192.12 62.186C192.064 62.0634 191.983 61.954 191.882 61.8648L189.558 59.8322C189.458 59.744 189.378 59.6356 189.323 59.5141C189.268 59.3926 189.24 59.2609 189.24 59.1276Z" fill="#F5F5F5"/>
<path d="M189.233 55.6248H186.611C186.469 55.6248 186.353 55.7401 186.353 55.8823V57.3796C186.353 57.5218 186.469 57.6371 186.611 57.6371H189.233C189.375 57.6371 189.49 57.5218 189.49 57.3796V55.8823C189.49 55.7401 189.375 55.6248 189.233 55.6248Z" fill="#E6E6E6"/>
<path d="M189.49 55.3741H186.36C186.248 55.3741 186.157 55.4651 186.157 55.5774V56.2956C186.157 56.4078 186.248 56.4988 186.36 56.4988H189.49C189.603 56.4988 189.694 56.4078 189.694 56.2956V55.5774C189.694 55.4651 189.603 55.3741 189.49 55.3741Z" fill="#E6E6E6"/>
<path d="M191.421 64.6969H184.422V74.1009H191.421V64.6969Z" fill="#EBEBEB"/>
<path d="M190.805 66.2484C190.805 66.8179 190.636 67.3747 190.319 67.8482C190.003 68.3217 189.553 68.6908 189.027 68.9087C188.501 69.1267 187.922 69.1837 187.363 69.0726C186.805 68.9615 186.292 68.6872 185.889 68.2845C185.486 67.8818 185.212 67.3688 185.101 66.8102C184.99 66.2516 185.047 65.6727 185.265 65.1465C185.483 64.6204 185.852 64.1706 186.325 63.8542C186.799 63.5378 187.356 63.369 187.925 63.369C188.689 63.369 189.421 63.6723 189.961 64.2123C190.501 64.7523 190.805 65.4848 190.805 66.2484Z" fill="#EBEBEB"/>
<path d="M166.549 53.0028V49.2967C166.549 49.1324 166.517 48.9698 166.454 48.8181C166.391 48.6664 166.298 48.5286 166.182 48.4128C166.065 48.2969 165.927 48.2053 165.775 48.143C165.623 48.0808 165.46 48.0492 165.296 48.0501H165.011C164.847 48.0492 164.684 48.0808 164.532 48.143C164.38 48.2053 164.242 48.2969 164.125 48.4128C164.009 48.5286 163.916 48.6664 163.853 48.8181C163.79 48.9698 163.758 49.1324 163.758 49.2967V53.0028C163.758 53.1811 163.72 53.3575 163.647 53.52C163.573 53.6825 163.465 53.8272 163.331 53.9445L160.275 56.614C160.141 56.7316 160.034 56.8764 159.96 57.0388C159.887 57.2012 159.849 57.3774 159.849 57.5557V75.1714C159.848 75.3357 159.879 75.4985 159.941 75.6506C160.004 75.8026 160.095 75.9408 160.211 76.0573C160.327 76.1738 160.465 76.2662 160.617 76.3293C160.768 76.3924 160.931 76.4248 161.095 76.4248H169.225C169.39 76.4248 169.552 76.3924 169.704 76.3293C169.856 76.2662 169.994 76.1738 170.109 76.0573C170.225 75.9408 170.317 75.8026 170.379 75.6506C170.441 75.4985 170.473 75.3357 170.472 75.1714V57.5896C170.472 57.4113 170.434 57.2351 170.36 57.0727C170.287 56.9103 170.179 56.7654 170.045 56.6479L166.99 53.9784C166.848 53.8587 166.736 53.709 166.659 53.5403C166.583 53.3715 166.546 53.1879 166.549 53.0028Z" fill="#EBEBEB"/>
<path d="M166.373 46.2817H163.927C163.647 46.2817 163.419 46.5092 163.419 46.7899V51.7223C163.419 52.0029 163.647 52.2304 163.927 52.2304H166.373C166.654 52.2304 166.881 52.0029 166.881 51.7223V46.7899C166.881 46.5092 166.654 46.2817 166.373 46.2817Z" fill="#F5F5F5"/>
<path d="M166.746 45.5297H163.568C163.344 45.5297 163.162 45.7117 163.162 45.9362V48.4566C163.162 48.6811 163.344 48.8631 163.568 48.8631H166.746C166.97 48.8631 167.152 48.6811 167.152 48.4566V45.9362C167.152 45.7117 166.97 45.5297 166.746 45.5297Z" fill="#F5F5F5"/>
<path d="M170.465 60.3472H159.849V73.3489H170.465V60.3472Z" fill="#F5F5F5"/>
<path d="M164.815 64.5478C166.91 64.5478 168.609 62.8491 168.609 60.7537C168.609 58.6582 166.91 56.9595 164.815 56.9595C162.719 56.9595 161.021 58.6582 161.021 60.7537C161.021 62.8491 162.719 64.5478 164.815 64.5478Z" fill="#F5F5F5"/>
<path d="M117.273 57.0883V54.0259C117.273 53.7527 117.164 53.4908 116.971 53.2977C116.778 53.1045 116.516 52.996 116.243 52.996H116.006C115.871 52.996 115.737 53.0227 115.612 53.0744C115.487 53.1262 115.373 53.202 115.278 53.2977C115.182 53.3933 115.106 53.5068 115.054 53.6318C115.003 53.7567 114.976 53.8906 114.976 54.0259V57.0883C114.976 57.2357 114.945 57.3815 114.884 57.5159C114.823 57.6502 114.734 57.7701 114.624 57.8674L112.097 60.0694C111.986 60.1667 111.897 60.2866 111.836 60.4209C111.776 60.5553 111.744 60.7011 111.744 60.8485V75.4086C111.744 75.6823 111.853 75.945 112.045 76.1392C112.238 76.3334 112.5 76.4434 112.774 76.4452H119.475C119.749 76.4434 120.012 76.3336 120.206 76.1396C120.4 75.9456 120.51 75.6829 120.511 75.4086V60.8485C120.512 60.7004 120.479 60.554 120.417 60.4195C120.355 60.285 120.265 60.1655 120.152 60.0694L117.632 57.8674C117.519 57.7713 117.429 57.6518 117.367 57.5173C117.305 57.3828 117.273 57.2364 117.273 57.0883Z" fill="#EBEBEB"/>
<path d="M117.137 51.5326H115.118C114.886 51.5326 114.698 51.7207 114.698 51.9527V56.0246C114.698 56.2566 114.886 56.4447 115.118 56.4447H117.137C117.369 56.4447 117.557 56.2566 117.557 56.0246V51.9527C117.557 51.7207 117.369 51.5326 117.137 51.5326Z" fill="#F5F5F5"/>
<path d="M117.442 50.9092H114.813C114.63 50.9092 114.481 51.0579 114.481 51.2412V53.328C114.481 53.5114 114.63 53.66 114.813 53.66H117.442C117.626 53.66 117.774 53.5114 117.774 53.328V51.2412C117.774 51.0579 117.626 50.9092 117.442 50.9092Z" fill="#F5F5F5"/>
<path d="M120.511 63.1522H111.744V73.8909H120.511V63.1522Z" fill="#F5F5F5"/>
<path d="M118.98 63.4841C118.98 64.1045 118.796 64.711 118.452 65.2269C118.107 65.7428 117.617 66.1448 117.044 66.3823C116.471 66.6197 115.84 66.6818 115.231 66.5608C114.623 66.4397 114.064 66.141 113.625 65.7023C113.186 65.2636 112.888 64.7046 112.767 64.0961C112.646 63.4876 112.708 62.8569 112.945 62.2836C113.183 61.7104 113.585 61.2205 114.1 60.8758C114.616 60.5311 115.223 60.3472 115.843 60.3472C116.675 60.3472 117.473 60.6777 118.061 61.266C118.65 61.8542 118.98 62.6521 118.98 63.4841Z" fill="#F5F5F5"/>
<path d="M169.381 252.419C241.932 252.419 300.747 248.985 300.747 244.749C300.747 240.513 241.932 237.08 169.381 237.08C96.8302 237.08 38.0159 240.513 38.0159 244.749C38.0159 248.985 96.8302 252.419 169.381 252.419Z" fill="#F5F5F5"/>
<path d="M106.371 33.1513C111.792 36.7761 111.114 46.0853 106.622 50.0149C99.4268 41.18 106.371 33.1513 106.371 33.1513Z" fill="#263238"/>
<path opacity="0.4" d="M106.371 33.1513C111.792 36.7761 111.114 46.0853 106.622 50.0149C99.4268 41.18 106.371 33.1513 106.371 33.1513Z" fill="white"/>
<path d="M119.983 227.676L108.567 227.784L109.508 241.267L119.048 241.185L119.983 227.676Z" fill="#FFC3BD"/>
<path opacity="0.2" d="M119.976 227.682L108.56 227.791L109.088 235.338L119.461 235.25L119.976 227.682Z" fill="black"/>
<path d="M102.537 187.478C98.0989 170.37 89.5824 149.977 96.92 133.5L128.764 133.398C128.764 133.398 127.91 167.349 126.697 183.311C125.457 199.911 120.857 232.31 120.857 232.31L107.781 232.344C107.781 232.344 100.375 206.124 102.537 187.478Z" fill="#263238"/>
<path d="M106.751 232.804H121.711L122.53 226.138L105.376 226.93L106.751 232.804Z" fill="#407BFF"/>
<path opacity="0.2" d="M101.046 182.058C98.5596 173.365 95.5785 164.049 94.4809 154.957C101.629 157.369 106.941 164.3 101.046 182.058Z" fill="black"/>
<path d="M108.404 239.166C108.405 239.093 108.423 239.021 108.456 238.956C108.49 238.891 108.538 238.835 108.598 238.792C108.657 238.749 108.726 238.721 108.798 238.71C108.87 238.698 108.944 238.704 109.014 238.726C112.029 239.857 117.347 238.99 119.353 238.597C119.585 238.55 119.825 238.55 120.058 238.597C120.29 238.643 120.511 238.735 120.708 238.868C123.1 240.42 128.371 241.368 128.371 241.368C128.371 241.368 129.36 243.313 129.116 244.803H107.943C108.244 242.939 108.398 241.055 108.404 239.166Z" fill="#263238"/>
<path d="M81.8518 227.676L70.422 227.784L69.9206 241.267L79.4669 241.185L81.8518 227.676Z" fill="#FFC3BD"/>
<path d="M69.155 239.166C69.159 239.092 69.1797 239.02 69.2157 238.956C69.2517 238.891 69.3019 238.835 69.3627 238.793C69.4234 238.75 69.493 238.722 69.5662 238.711C69.6394 238.699 69.7143 238.704 69.7851 238.726C72.7662 239.857 78.1051 238.99 80.1241 238.597C80.3566 238.548 80.5965 238.547 80.8295 238.594C81.0624 238.64 81.2834 238.734 81.4792 238.868C83.8302 240.42 88.1935 241.368 88.1935 241.368C88.1935 241.368 89.1352 243.313 88.871 244.803H68.5452C68.8972 242.943 69.1011 241.059 69.155 239.166Z" fill="#263238"/>
<path opacity="0.2" d="M81.8451 227.682L70.4152 227.791L70.1374 235.338L80.5171 235.25L81.8451 227.682Z" fill="black"/>
<path d="M69.4192 181.407C68.4978 164.11 65.537 141.352 71.3366 133.398H108.634C108.634 133.398 98.7358 167.349 95.0365 183.311C91.2017 199.911 81.7841 232.31 81.7841 232.31L69.4328 232.344C69.4328 232.344 64.7714 201.15 69.4192 181.407Z" fill="#263238"/>
<path d="M68.0845 232.804H82.9494L84.257 226.619L67.888 226.883L68.0845 232.804Z" fill="#407BFF"/>
<path d="M121.467 71.8854L125.146 79.6431C126.372 82.2448 127.632 84.8261 128.879 87.3804C129.509 88.6609 130.146 89.9279 130.796 91.1678C131.447 92.4076 132.077 93.6611 132.741 94.8603C133.405 96.0595 134.096 97.2181 134.773 98.3292C135.451 99.4404 136.128 100.477 136.745 101.297L131.094 98.8102C131.821 98.9736 132.58 98.9194 133.276 98.6544C134.524 98.273 135.722 97.7454 136.847 97.0826C138.192 96.3214 139.492 95.4844 140.742 94.5757C141.42 94.1082 142.097 93.634 142.721 93.1326L143.71 92.3805C144.028 92.1502 144.387 91.8521 144.652 91.703L145.41 91.2287C146.326 90.6653 147.427 90.4872 148.473 90.7335C149.519 90.9799 150.426 91.6305 150.993 92.5431C151.335 93.1013 151.539 93.7332 151.588 94.3862C151.636 95.0391 151.527 95.6942 151.271 96.2966C151.027 96.8522 150.844 97.2655 150.594 97.7398C150.343 98.214 150.153 98.6341 149.916 99.0948C149.442 99.962 148.947 100.829 148.405 101.669C147.863 102.51 147.28 103.343 146.65 104.156C146.02 104.969 145.343 105.755 144.618 106.541C143.867 107.34 143.068 108.094 142.226 108.797C141.328 109.571 140.367 110.269 139.353 110.884C136.935 112.399 134.184 113.306 131.338 113.526C130.38 113.597 129.419 113.454 128.522 113.109C127.626 112.763 126.818 112.223 126.155 111.527L125.694 111.04C124.478 109.748 123.334 108.391 122.266 106.974C121.257 105.619 120.356 104.264 119.475 102.97C118.594 101.676 117.767 100.308 116.948 98.9796C116.128 97.6517 115.383 96.3034 114.63 94.9619C113.113 92.2518 111.724 89.5417 110.369 86.8316C109.691 85.4766 109.014 84.1215 108.418 82.7055C107.821 81.2895 107.178 79.9615 106.568 78.4709C105.686 76.4988 105.623 74.257 106.394 72.2387C107.164 70.2203 108.705 68.5907 110.677 67.7085C112.649 66.8262 114.891 66.7634 116.909 67.5341C118.928 68.3047 120.557 69.8455 121.44 71.8176L121.467 71.8854Z" fill="#FFC3BD"/>
<path d="M144.99 91.7301L146.894 96.1476C150.411 99.7791 154.3 94.447 154.3 94.447L157.206 92.6448C157.697 92.2918 158.047 91.7759 158.194 91.1891C158.34 90.6022 158.273 89.9825 158.006 89.4401L156.698 86.3438C156.47 85.6897 155.995 85.1507 155.374 84.8418C154.754 84.533 154.038 84.4787 153.378 84.6907L150.621 85.8357C149.828 86.1712 149.129 86.6971 148.588 87.3669L144.99 91.7301Z" fill="#FFC3BD"/>
<path d="M150.411 95.0974C150.254 95.0766 150.102 95.025 149.965 94.9456C149.828 94.8662 149.708 94.7605 149.612 94.6347C149.515 94.5088 149.445 94.3653 149.404 94.2122C149.363 94.059 149.353 93.8994 149.374 93.7424L150.052 88.7287C150.072 88.5716 150.124 88.4202 150.203 88.2831C150.283 88.146 150.388 88.0259 150.514 87.9296C150.64 87.8333 150.784 87.7628 150.937 87.722C151.09 87.6813 151.25 87.6711 151.407 87.6921C151.564 87.7129 151.715 87.7645 151.852 87.8439C151.989 87.9233 152.109 88.029 152.206 88.1548C152.302 88.2806 152.372 88.4242 152.413 88.5773C152.454 88.7304 152.464 88.8901 152.443 89.0471L151.766 94.054C151.723 94.3717 151.557 94.6597 151.303 94.8552C151.049 95.0507 150.728 95.1378 150.411 95.0974Z" fill="#263238"/>
<path d="M157.938 82.448L154.327 100.409C154.233 100.865 154.008 101.282 153.678 101.61C153.348 101.937 152.928 102.16 152.472 102.25C152.016 102.34 151.543 102.293 151.114 102.115C150.684 101.937 150.317 101.636 150.058 101.249C149.77 100.811 149.635 100.289 149.672 99.7656L151.088 81.4724C151.133 80.9061 151.316 80.3594 151.62 79.8799C151.925 79.4004 152.343 79.0028 152.836 78.7216C153.416 78.394 154.079 78.2405 154.744 78.2794C155.409 78.3184 156.049 78.5481 156.588 78.9412C157.126 79.3342 157.539 79.874 157.779 80.4959C158.018 81.1178 158.073 81.7955 157.938 82.448Z" fill="#407BFF"/>
<path d="M157.586 84.528L152.565 83.5185C152.467 83.4996 152.375 83.4594 152.294 83.4007C152.214 83.342 152.147 83.2663 152.1 83.179C152.052 83.0916 152.024 82.9948 152.017 82.8954C152.011 82.796 152.027 82.6965 152.064 82.6039L153.859 77.7392C153.941 77.5325 154.091 77.3601 154.285 77.2504C154.478 77.1408 154.703 77.1005 154.923 77.1362L159.943 78.1457C160.042 78.1644 160.135 78.2048 160.216 78.2639C160.298 78.323 160.364 78.3994 160.412 78.4876C160.46 78.5758 160.488 78.6735 160.494 78.7738C160.499 78.874 160.483 78.9742 160.445 79.0672L158.649 83.925C158.568 84.1325 158.418 84.3057 158.225 84.4155C158.031 84.5254 157.805 84.5651 157.586 84.528Z" fill="#263238"/>
<path d="M114.021 64.0397C121.182 66.9598 131.21 82.7868 131.21 82.7868C130.349 88.8303 122.713 97.4078 117.341 97.8617C117.341 97.8617 108.872 88.1867 105.985 81.3369C102.489 73.0508 99.5217 58.1452 114.021 64.0397Z" fill="#407BFF"/>
<path d="M109.271 62.7524C98.6998 61.7486 88.0496 61.9191 77.5157 63.2605C71.4179 64.1142 67.1224 67.9015 67.8609 80.3816C69.3583 105.687 65.8284 125.627 69.0466 134.726C69.0466 134.726 121.487 146.196 130.464 135.085C133.71 104.596 122.781 79.3382 117.795 68.8094C117.014 67.1525 115.82 65.7247 114.327 64.6638C112.834 63.6028 111.093 62.9445 109.271 62.7524Z" fill="#407BFF"/>
<path d="M99.7588 62.1629C107.889 62.0207 115.545 62.2984 119.312 67.8C123.079 73.3015 134.651 101.27 132.09 130.342C127.632 133.052 120.376 132.531 120.376 132.531C120.376 132.531 125.701 73.8502 99.7588 62.1629Z" fill="#263238"/>
<path d="M105.748 65.6386C104.535 64.4462 103.268 65.1372 102.679 63.3486C102.42 61.9362 102.659 60.4777 103.356 59.2224L88.9049 51.4309C89.1894 56.7427 89.3995 60.9163 87.0485 63.0572C86.3709 67.0208 92.8413 72.8136 102.699 72.3664C109.718 72.0548 107.503 67.3528 105.748 65.6386Z" fill="#FFC3BD"/>
<path d="M65.7606 69.8461C68.762 64.4259 75.1511 61.5803 85.253 61.5803C92.8887 61.5803 98.2005 82.4006 98.668 101.019C99.1355 119.637 99.5962 132.795 99.5962 132.795C89.3724 135.342 67.3731 130.363 63.0573 127.625C63.0437 127.605 55.8958 87.7192 65.7606 69.8461Z" fill="#263238"/>
<path opacity="0.2" d="M103.133 59.6764L91.7234 56.824C94.6029 61.3567 99.7995 63.8432 102.564 62.7456C102.489 61.6908 102.685 60.6344 103.133 59.6764Z" fill="black"/>
<path d="M87.4008 43.0296C87.8479 50.4824 88.3087 55.5909 92.6448 58.7618C101.263 65.0695 106.46 60.9976 108.228 53.5042C109.854 46.7289 108.858 35.6514 101.52 32.7177C99.8974 32.0754 98.1381 31.8546 96.4067 32.0756C94.6753 32.2967 93.028 32.9525 91.6184 33.982C90.2088 35.0115 89.0828 36.381 88.3453 37.9631C87.6078 39.5451 87.2829 41.2881 87.4008 43.0296Z" fill="#FFC3BD"/>
<path opacity="0.2" d="M96.527 44.5879C95.7761 44.1003 94.8626 43.9298 93.9863 44.1137C94.794 44.4365 95.6572 44.5976 96.527 44.5879Z" fill="black"/>
<path opacity="0.2" d="M96.378 45.1841C95.9998 45.0402 95.595 44.9802 95.1914 45.0083C94.7877 45.0364 94.3951 45.1519 94.0405 45.3467C94.8222 45.4636 95.62 45.4081 96.378 45.1841Z" fill="black"/>
<path opacity="0.2" d="M106.825 44.5879C106.825 44.5879 107.503 43.7275 108.092 44.1137C107.743 44.4226 107.292 44.5915 106.825 44.5879Z" fill="black"/>
<path opacity="0.2" d="M106.9 45.1842C106.985 45.1139 107.084 45.0622 107.191 45.0321C107.297 45.0021 107.409 44.9945 107.518 45.0098C107.628 45.0251 107.733 45.0629 107.827 45.1209C107.921 45.1789 108.002 45.2558 108.065 45.3468C107.87 45.4018 107.666 45.4157 107.466 45.3877C107.265 45.3598 107.072 45.2904 106.9 45.1842Z" fill="black"/>
<path d="M89.2504 51.431C89.2504 54.5882 87.9563 56.7698 88.2612 58.633C88.5661 60.4962 92.489 64.1278 98.9051 65.8351C102.175 66.6894 105.533 67.1601 108.912 67.2376C108.912 67.2376 107.557 65.3134 108.912 61.5803C110.267 57.8471 108.431 53.3077 108.431 53.3077C108.431 53.3077 98.7629 51.6139 96.8251 52.4811C92.3264 51.6545 91.615 47.0609 92.3264 44.2356C93.0378 41.4104 92.1299 37.5823 92.1299 37.5823C92.1299 37.5823 87.001 37.7585 84.1825 38.6664C84.1825 39.1 85.4224 39.4591 85.4224 39.4591C85.4224 39.4591 83.6879 42.9619 86.7232 46.9119C89.7585 50.8618 89.2504 51.431 89.2504 51.431Z" fill="#263238"/>
<path opacity="0.4" d="M89.2504 51.431C89.2504 54.5882 87.9563 56.7698 88.2612 58.633C88.5661 60.4962 92.489 64.1278 98.9051 65.8351C102.175 66.6894 105.533 67.1601 108.912 67.2376C108.912 67.2376 107.557 65.3134 108.912 61.5803C110.267 57.8471 108.431 53.3077 108.431 53.3077C108.431 53.3077 98.7629 51.6139 96.8251 52.4811C92.3264 51.6545 91.615 47.0609 92.3264 44.2356C93.0378 41.4104 92.1299 37.5823 92.1299 37.5823C92.1299 37.5823 87.001 37.7585 84.1825 38.6664C84.1825 39.1 85.4224 39.4591 85.4224 39.4591C85.4224 39.4591 83.6879 42.9619 86.7232 46.9119C89.7585 50.8618 89.2504 51.431 89.2504 51.431Z" fill="white"/>
<path d="M104.237 50.4011C106.5 50.4959 109.996 52.6708 110.382 54.8253C109.495 55.2115 106.412 54.0665 106.412 54.0665C107.068 54.8282 107.584 55.6998 107.937 56.6411C106.338 56.6411 104.048 54.6085 103.655 53.6532C102.537 55.1505 99.0542 55.9635 97.0758 56.0245C97.4552 55.4012 98.3496 53.7413 98.3496 53.7413C96.6415 53.9771 94.9137 54.0362 93.1936 53.9174C94.5554 52.0542 99.4404 50.191 104.237 50.4011Z" fill="#263238"/>
<path d="M83.8641 50.0894C84.2896 50.9182 84.8752 51.6545 85.5868 52.2557C86.2985 52.8569 87.1223 53.3112 88.0105 53.5923C90.4022 54.3308 90.8019 52.3795 90.2125 50.0894C89.6772 48.0569 88.6745 44.9945 86.2422 45.2587C83.8099 45.5229 82.8275 48.0298 83.8641 50.0894Z" fill="#FFC3BD"/>
<path d="M87.3601 53.5245C87.3601 53.7603 87.43 53.9909 87.5611 54.187C87.6921 54.3831 87.8783 54.5359 88.0962 54.6261C88.3141 54.7164 88.5539 54.74 88.7852 54.694C89.0165 54.648 89.229 54.5344 89.3957 54.3677C89.5625 54.2009 89.6761 53.9884 89.7221 53.7571C89.7681 53.5258 89.7445 53.286 89.6542 53.0681C89.564 52.8503 89.4111 52.664 89.215 52.533C89.0189 52.402 88.7884 52.332 88.5525 52.332C88.2363 52.332 87.933 52.4577 87.7094 52.6813C87.4857 52.9049 87.3601 53.2082 87.3601 53.5245Z" fill="#263238"/>
<path d="M84.8533 38.1176C88.9184 39.4726 97.0487 37.7923 101.188 36.085C105.328 34.3776 108.072 37.8533 104.359 39.7233C107.218 40.7802 114.007 37.0132 112.415 32.5686C111.622 29.181 107.334 26.9113 103.133 28.5035C98.9322 30.0957 94.176 29.6891 90.1786 28.9981C83.9657 27.9276 83.6066 34.5063 84.7584 35.3329C83.6744 35.7869 82.2312 35.0213 82.2312 35.0213C82.3509 35.7249 82.6573 36.3835 83.1186 36.9282C83.5798 37.4729 84.1789 37.8837 84.8533 38.1176Z" fill="#263238"/>
<path d="M85.8357 35.6107C83.7015 35.9088 82.4887 34.4725 81.7705 32.3112C83.3856 33.045 84.7853 34.1811 85.8357 35.6107Z" fill="#263238"/>
<path d="M97.9769 44.8996C97.9769 45.5094 98.3021 45.9972 98.7019 45.9972C99.1016 45.9972 99.4268 45.4958 99.4268 44.886C99.4268 44.2763 99.1016 43.7885 98.7019 43.7885C98.3021 43.7885 97.9837 44.2898 97.9769 44.8996Z" fill="#263238"/>
<path d="M104.657 44.8657C104.657 45.4755 104.983 45.9633 105.382 45.9633C105.782 45.9633 106.107 45.4619 106.107 44.8522C106.107 44.2424 105.782 43.7478 105.382 43.7546C104.983 43.7614 104.664 44.256 104.657 44.8657Z" fill="#263238"/>
<path d="M102.923 44.9944L102.693 50.252C103.196 50.6076 103.792 50.8112 104.408 50.8389C105.024 50.8665 105.635 50.7169 106.168 50.4079C105.545 47.4268 102.923 44.9944 102.923 44.9944Z" fill="#ED847E"/>
<path d="M96.2086 42.718C96.1465 42.7134 96.0863 42.6948 96.0324 42.6638C95.9516 42.6134 95.894 42.5331 95.8724 42.4403C95.8508 42.3476 95.8669 42.25 95.9173 42.1692C96.21 41.6777 96.6149 41.2625 97.0989 40.9575C97.5829 40.6525 98.1322 40.4664 98.7019 40.4144C98.7971 40.4144 98.8885 40.4522 98.9558 40.5195C99.0231 40.5869 99.061 40.6782 99.061 40.7735C99.061 40.8687 99.0231 40.96 98.9558 41.0274C98.8885 41.0947 98.7971 41.1325 98.7019 41.1325C98.2516 41.1775 97.8185 41.3287 97.438 41.5737C97.0576 41.8187 96.7407 42.1505 96.5135 42.5418C96.4811 42.594 96.4363 42.6374 96.3831 42.6682C96.33 42.6989 96.27 42.716 96.2086 42.718Z" fill="#263238"/>
<path d="M109.082 43.26C109.023 43.2535 108.968 43.2327 108.919 43.1997C108.871 43.1666 108.831 43.1222 108.804 43.0703C108.612 42.6685 108.328 42.3178 107.975 42.0469C107.621 41.7761 107.209 41.5927 106.771 41.512C106.716 41.5239 106.658 41.5224 106.603 41.5077C106.548 41.493 106.498 41.4654 106.455 41.4273C106.413 41.3892 106.381 41.3416 106.36 41.2884C106.34 41.2353 106.333 41.1781 106.339 41.1216C106.345 41.0651 106.365 41.0108 106.396 40.9633C106.427 40.9159 106.47 40.8765 106.519 40.8484C106.568 40.8204 106.624 40.8045 106.681 40.8021C106.737 40.7997 106.794 40.8107 106.846 40.8345C107.406 40.9229 107.937 41.1451 108.394 41.4825C108.85 41.8198 109.219 42.2622 109.468 42.7722C109.51 42.8567 109.518 42.9547 109.489 43.0448C109.46 43.1349 109.396 43.2098 109.312 43.2532C109.238 43.2802 109.157 43.2826 109.082 43.26Z" fill="#263238"/>
<path d="M76.0387 82.8749L74.1348 85.7408C73.4573 86.7503 72.8204 87.7734 72.1971 88.7761C70.9166 90.8087 69.7241 92.8412 68.5859 94.9213C68.0235 95.9511 67.4815 96.9877 66.9869 98.0175C66.4923 99.0474 65.991 100.05 65.5641 101.087C64.7372 102.994 64.0731 104.968 63.579 106.988L63.6196 105.348C63.5171 106.126 63.6794 106.916 64.0803 107.591C64.3628 108.207 64.6841 108.804 65.0424 109.38C65.4422 110.01 65.9164 110.633 66.3975 111.283C67.4735 112.633 68.6201 113.924 69.8325 115.152C70.4559 115.789 71.0995 116.439 71.7567 117.07L72.7527 118.025C73.0643 118.337 73.4302 118.702 73.6876 118.94L74.1619 119.461C74.7596 120.119 75.1251 120.955 75.2027 121.84C75.2802 122.726 75.0654 123.612 74.5911 124.364C74.1169 125.115 73.4093 125.691 72.5768 126.002C71.7443 126.314 70.8327 126.344 69.9816 126.087C69.365 125.904 68.8908 125.755 68.3623 125.572C67.8338 125.39 67.3392 125.207 66.8379 125.017C65.8351 124.61 64.8053 124.19 63.8635 123.709C62.9218 123.228 61.9123 122.727 60.9569 122.151C60.0016 121.575 59.0599 120.959 58.1181 120.288C56.0894 118.842 54.2661 117.128 52.6979 115.193C51.7871 114.053 51.0118 112.812 50.3876 111.494C49.6519 109.956 49.1626 108.312 48.9377 106.622C48.9005 106.293 48.9005 105.962 48.9377 105.633L49.0054 104.955C49.3114 101.833 49.9612 98.7544 50.9431 95.7749C51.3903 94.3454 51.8984 92.9632 52.4269 91.6082C52.9554 90.2531 53.5651 88.9387 54.1681 87.6446C54.7711 86.3506 55.4148 85.0836 56.0855 83.8437C56.7563 82.6038 57.4406 81.3707 58.1791 80.1783C58.9176 78.9858 59.6425 77.7866 60.442 76.6281C60.835 76.0522 61.228 75.4695 61.648 74.8936L62.3323 74.0535C62.5559 73.7486 62.7456 73.4979 63.0098 73.1185C64.303 71.4638 66.1863 70.3736 68.2652 70.0764C70.3441 69.7791 72.4574 70.2979 74.1624 71.5239C75.8675 72.7499 77.032 74.5881 77.412 76.6535C77.7921 78.7189 77.3582 80.8512 76.2013 82.6038L76.0387 82.8749Z" fill="#FFC3BD"/>
<path d="M73.8841 64.27C60.2998 67.5154 53.1722 82.3396 53.1722 82.3396C54.3511 87.4617 65.327 96.5677 71.0317 96.649C71.0317 96.649 79.9344 86.4183 83.2272 78.3151C86.2083 70.8081 81.8586 62.3662 73.8841 64.27Z" fill="#407BFF"/>
<path d="M86.52 125.918L93.8034 127.815C94.2805 127.939 94.7784 127.959 95.2642 127.877C95.75 127.794 96.2127 127.609 96.6219 127.334L87.0484 124.841L86.5403 124.529L86.9875 124.238L96.4728 121.494C96.0567 121.229 95.5889 121.056 95.1006 120.986C94.6123 120.916 94.1146 120.95 93.6408 121.087L86.4116 123.174L85.5308 123.913L83.6473 122.754C83.846 122.659 84.0223 122.523 84.1647 122.354C84.3072 122.186 84.4125 121.99 84.4739 121.778C84.5461 121.531 84.5461 121.267 84.4739 121.02C84.3071 120.588 84.0328 120.207 83.677 119.912C83.3212 119.616 82.8958 119.417 82.4413 119.333C81.0862 118.98 79.7312 119.488 79.4873 120.484C79.4196 120.733 79.4196 120.995 79.4873 121.243C79.655 121.673 79.9297 122.053 80.2854 122.347C80.6411 122.641 81.066 122.84 81.5198 122.923C81.9613 123.043 82.423 123.068 82.8749 122.998L84.7991 124.543L82.8613 126.176C82.4066 126.119 81.945 126.158 81.5063 126.291C80.2732 126.643 79.4737 127.585 79.4737 128.493C79.1398 128.727 78.8825 129.054 78.7342 129.434C78.5859 129.813 78.5532 130.229 78.6404 130.627L79.2366 130.444C79.172 130.2 79.1791 129.942 79.2572 129.702C79.3353 129.461 79.4811 129.248 79.677 129.089C80.1445 129.827 81.3098 130.146 82.4955 129.807C83.8505 129.414 84.7381 128.296 84.4535 127.314C84.3855 127.103 84.2737 126.909 84.1254 126.744C83.9771 126.579 83.7957 126.448 83.5931 126.358L85.5105 125.112L86.52 125.918ZM81.7028 122.32C81.3596 122.255 81.0377 122.106 80.765 121.888C80.4922 121.669 80.2769 121.387 80.1377 121.067C80.1006 120.927 80.1006 120.78 80.1377 120.64C80.1893 120.482 80.2775 120.338 80.3953 120.22C80.513 120.102 80.6569 120.014 80.8152 119.963C81.3045 119.793 81.8339 119.776 82.3329 119.915C82.6742 119.984 82.9939 120.133 83.2652 120.351C83.5364 120.57 83.7511 120.85 83.8912 121.169C83.9282 121.311 83.9282 121.46 83.8912 121.602C83.7286 122.266 82.7191 122.591 81.7028 122.32ZM83.9115 127.531C84.1012 128.208 83.3966 128.96 82.3871 129.251C81.3776 129.543 80.3545 129.251 80.1783 128.574C80.0022 127.896 80.6933 127.144 81.7028 126.853C82.7123 126.562 83.7286 126.887 83.9115 127.531Z" fill="white"/>
<path d="M71.8177 118.418L68.8975 122.246C67.4544 127.097 74.0061 127.869 74.0061 127.869L77.0075 129.516C77.5551 129.771 78.1756 129.824 78.7586 129.665C79.3416 129.507 79.8495 129.146 80.1919 128.648L82.2245 125.986C82.6808 125.466 82.9164 124.788 82.8809 124.098C82.8455 123.407 82.5419 122.757 82.0348 122.287L79.6838 120.437C78.9999 119.902 78.1948 119.543 77.3395 119.393L71.8177 118.418Z" fill="#FFC3BD"/>
<path d="M195.92 108.675C196.469 108.255 195.398 106.995 194.341 106.819C179.747 104.332 167.918 113.594 165.824 121.304C163.114 131.365 175.012 144.245 169.449 156.684C163.887 169.124 159.889 180.337 167.952 191.448C169.679 182.478 193.698 188.291 210.243 187.573C226.788 186.855 232.459 182.308 220.914 171.461C209.857 161.088 182.803 118.723 195.92 108.675Z" fill="#407BFF"/>
<path d="M196.083 89.9347L197.228 94.6774C197.228 94.6774 199.131 94.6774 199.999 93.5798C198.786 91.2897 196.083 89.9347 196.083 89.9347Z" fill="#ED893E"/>
<path d="M196.211 89.0065C196.347 89.5688 196.76 89.9482 197.126 89.8534C197.492 89.7585 197.675 89.2233 197.539 88.6609C197.404 88.0986 196.984 87.7192 196.618 87.814C196.252 87.9089 196.069 88.4441 196.211 89.0065Z" fill="#263238"/>
<path d="M196.658 85.3682C196.607 85.3892 196.551 85.3971 196.495 85.3912C196.439 85.3853 196.386 85.3657 196.34 85.3343C195.995 85.0827 195.595 84.9176 195.173 84.8527C194.751 84.7879 194.319 84.8252 193.914 84.9616C193.874 84.9793 193.83 84.9885 193.785 84.9888C193.741 84.9891 193.697 84.9805 193.656 84.9634C193.614 84.9464 193.577 84.9212 193.546 84.8895C193.515 84.8578 193.49 84.8201 193.474 84.7787C193.442 84.6949 193.443 84.6019 193.477 84.5188C193.511 84.4357 193.575 84.3687 193.657 84.3315C194.166 84.151 194.71 84.0961 195.245 84.1716C195.779 84.2471 196.287 84.4508 196.726 84.7652C196.8 84.8171 196.85 84.8958 196.867 84.9844C196.883 85.073 196.864 85.1645 196.814 85.2394C196.776 85.2964 196.722 85.3411 196.658 85.3682Z" fill="#263238"/>
<path d="M198.698 109.292C197.967 108.049 196.834 107.093 195.486 106.582C194.918 105.342 194.796 103.944 195.141 102.625L180.018 98.8103C181.516 103.641 182.695 107.456 181.014 109.949C184.043 111.555 189.578 114.42 195.398 113.899C201.218 113.377 199.775 111.29 198.698 109.292Z" fill="#FFB573"/>
<path d="M176.671 91.4659C178.819 98.2412 180.432 102.828 185.161 104.739C194.565 108.533 198.4 103.58 198.318 96.2628C198.251 89.6705 194.741 79.6702 187.302 78.6471C185.651 78.4246 183.971 78.6256 182.42 79.2313C180.868 79.8371 179.496 80.8276 178.433 82.1096C177.37 83.3917 176.65 84.9231 176.342 86.5599C176.034 88.1967 176.147 89.885 176.671 91.4659Z" fill="#FFB573"/>
<path d="M191.184 92.7396C192.635 92.4793 194.006 91.8856 195.188 91.0052C195.188 91.0052 191.801 87.543 192.051 85.7273C192.302 83.9115 194.443 83.7624 194.856 80.7542C194.856 80.7542 196.943 80.6052 198.041 79.6363C194.958 79.3788 192.559 78.4642 188.176 79.6363C183.792 80.8084 179.971 83.2543 178.901 85.9576C175.174 85.4969 171.658 85.4291 170.689 84.2909C170.539 85.8274 170.964 87.3649 171.881 88.6067C171.881 88.6067 170.526 91.2084 171.014 92.9903C172.186 91.1068 173.155 91.161 173.155 91.161C173.155 91.161 174.056 99.6707 181.231 102.977C184.707 104 188.65 101.961 188.65 101.961C188.65 101.961 194.192 97.2316 191.184 92.7396Z" fill="#263238"/>
<path d="M192.505 80.6255C196.164 77.4547 196.882 72.0548 196.083 70.9233C192.41 74.8665 189.87 74.4803 187.397 75.6999C188.23 74.4135 188.603 72.8825 188.454 71.357C188.454 71.357 184.897 76.0454 179.788 76.9533C174.68 77.8612 174.11 79.4263 174.11 79.4263C174.11 79.4263 174.578 77.2108 173.656 75.7134C170.994 79.3721 172.268 81.3572 173.291 82.3938C172.491 82.902 170.913 82.3532 170.913 82.3532C170.913 82.3532 172.268 87.3059 176.732 88.0173C181.502 89.9483 192.505 80.6255 192.505 80.6255Z" fill="#263238"/>
<path d="M189.158 94.2302C190.031 95.5397 191.389 96.4487 192.932 96.7574C194.965 97.1436 195.852 95.2601 195.148 93.4172C194.517 91.7573 192.681 89.5485 190.689 90.0296C188.698 90.5106 188.108 92.6177 189.158 94.2302Z" fill="#FFB573"/>
<path d="M236.104 226.558L225.379 222.818L225.04 231.985L233.997 235.122L236.104 226.558Z" fill="#FFB573"/>
<path opacity="0.2" d="M236.097 226.558L225.372 222.818L225.182 227.953L234.925 231.355L236.097 226.558Z" fill="black"/>
<path d="M222.045 235.982L223.204 236.328C223.543 236.427 223.902 236.441 224.248 236.369C224.594 236.297 224.917 236.141 225.189 235.914L225.67 236.592C225.95 236.984 226.353 237.27 226.815 237.405L240.521 240.752C241.199 239.478 240.867 237.452 240.867 237.452C240.867 237.452 236.124 236.368 235.162 233.868C235.131 233.772 235.071 233.687 234.992 233.625C234.912 233.562 234.816 233.524 234.715 233.516C233.292 233.394 227.743 232.838 225.04 230.948C224.954 230.896 224.858 230.864 224.757 230.854C224.657 230.843 224.556 230.856 224.462 230.889C224.367 230.923 224.281 230.977 224.21 231.049C224.139 231.12 224.085 231.206 224.051 231.3C223.495 232.907 222.825 234.472 222.045 235.982Z" fill="black"/>
<path d="M168.704 164.591L168.778 174.456C168.893 189.009 181.231 202.004 195.961 203.095C204.565 203.732 216.185 201.245 222.892 201.117C223.868 211.279 222.56 216.7 223.156 225.921L237.33 229.071C241.213 217.337 245.677 203.82 246.138 192.207C246.314 187.674 243.516 183.223 239.194 181.096C217.486 170.404 168.704 164.591 168.704 164.591Z" fill="black"/>
<path d="M259.133 229.051L247.866 228.523L248.869 237.412L258.286 237.859L259.133 229.051Z" fill="#FFB573"/>
<path opacity="0.2" d="M259.133 229.058L247.859 228.523L248.421 233.502L258.659 233.99L259.133 229.058Z" fill="black"/>
<path d="M247.493 242.093H248.706C249.06 242.094 249.409 242.006 249.722 241.838C250.034 241.67 250.299 241.427 250.495 241.131L251.172 241.646C251.55 241.939 252.015 242.099 252.493 242.1H265.908C266.193 240.684 265.305 238.841 265.305 238.841C265.305 238.841 261.132 238.448 259.492 236.328C259.432 236.247 259.351 236.185 259.258 236.148C259.164 236.111 259.063 236.1 258.964 236.118C257.568 236.409 252.087 237.473 248.957 236.416C248.86 236.39 248.758 236.387 248.66 236.406C248.561 236.424 248.468 236.465 248.387 236.524C248.306 236.583 248.239 236.659 248.191 236.747C248.143 236.835 248.116 236.932 248.11 237.032C248.029 238.732 247.823 240.424 247.493 242.093Z" fill="#263238"/>
<path d="M199.497 164.591L193.007 174.47C193.122 189.03 210.534 199.003 225.27 200.094C232.554 200.629 235.596 200.859 240.433 200.832C241.152 200.832 241.841 201.118 242.35 201.626C242.858 202.134 243.143 202.823 243.143 203.542C243.218 210.995 245.332 223.427 246.917 231.429L260.17 232.594C262.48 220.46 264.235 200.663 264.675 189.05C264.851 184.524 261.288 178.765 257.114 176.373C232.561 162.342 199.497 164.591 199.497 164.591Z" fill="#263238"/>
<path d="M199.009 105.985C193.333 106.108 187.682 106.789 182.139 108.018C177.892 108.893 174.079 111.213 171.349 114.583C168.619 117.953 167.141 122.164 167.166 126.501C167.281 145.871 168.521 160.072 168.25 165.851C168.228 166.255 168.353 166.654 168.602 166.973C168.851 167.292 169.207 167.509 169.605 167.586C177.959 169.131 222.52 176.732 229.308 163.568C239.349 147.145 219.064 139.855 213.163 116.819C211.639 110.83 205.195 105.938 199.009 105.985Z" fill="#407BFF"/>
<path opacity="0.3" d="M199.009 105.985C193.333 106.108 187.682 106.789 182.139 108.018C177.892 108.893 174.079 111.213 171.349 114.583C168.619 117.953 167.141 122.164 167.166 126.501C167.281 145.871 168.521 160.072 168.25 165.851C168.228 166.255 168.353 166.654 168.602 166.973C168.851 167.292 169.207 167.509 169.605 167.586C177.959 169.131 222.52 176.732 229.308 163.568C239.349 147.145 219.064 139.855 213.163 116.819C211.639 110.83 205.195 105.938 199.009 105.985Z" fill="white"/>
<path d="M216.761 122.964L217.723 125.715L218.719 128.581L220.751 134.306C221.09 135.254 221.429 136.196 221.801 137.131C222.174 138.066 222.479 139.008 222.858 139.929C223.59 141.779 224.349 143.574 225.121 145.349L224.606 144.536C224.958 145.169 225.383 145.758 225.873 146.291C226.476 147.009 227.188 147.768 227.906 148.541C229.39 150.072 230.989 151.644 232.649 153.216L237.608 157.992C239.268 159.605 240.996 161.231 242.568 162.897L242.642 162.979C243.338 163.709 243.764 164.654 243.851 165.658C243.938 166.663 243.68 167.667 243.12 168.506C242.56 169.344 241.731 169.967 240.77 170.271C239.809 170.576 238.772 170.544 237.832 170.181C235.515 169.286 233.353 168.284 231.172 167.22C230.094 166.671 229.004 166.136 227.94 165.56C226.876 164.984 225.812 164.388 224.742 163.785C222.628 162.552 220.534 161.251 218.441 159.76C217.384 159.022 216.341 158.229 215.263 157.328C214.004 156.299 212.849 155.149 211.815 153.893L211.293 153.08C210.006 151.088 208.8 149.069 207.716 147.03C207.174 146.009 206.645 144.986 206.13 143.961C205.629 142.924 205.148 141.894 204.68 140.851C203.732 138.777 202.892 136.67 202.099 134.55C201.72 133.479 201.32 132.422 200.981 131.331L200.473 129.692C200.304 129.13 200.155 128.615 199.978 127.957C199.542 125.813 199.919 123.583 201.037 121.701C202.155 119.82 203.934 118.422 206.026 117.78C208.118 117.138 210.374 117.298 212.355 118.229C214.336 119.16 215.899 120.795 216.74 122.815L216.761 122.964Z" fill="#FFB573"/>
<path d="M240.643 163.284L237.134 166.163C234.742 170.33 240.63 172.478 240.63 172.478L243.042 174.652C243.491 175.009 244.052 175.195 244.626 175.177C245.199 175.158 245.747 174.936 246.172 174.551L248.659 172.518C249.193 172.136 249.558 171.561 249.675 170.915C249.793 170.269 249.654 169.602 249.289 169.056L247.527 166.834C247.013 166.189 246.347 165.682 245.589 165.357L240.643 163.284Z" fill="#FFB573"/>
<path d="M202.729 107.361C205.758 106.25 213.109 110.985 213.908 116.372C215.196 117.137 215.521 124.8 218.651 128.195C221.781 131.589 222.039 137.68 219.66 139.943C215.236 144.13 208.251 147.362 204.613 145.289C202.228 143.933 200.439 135.586 198.549 130.383C196.686 125.342 197.363 109.332 202.729 107.361Z" fill="#407BFF"/>
<path d="M207.594 228.556H213.407V209.911H207.594V228.556Z" fill="#E0E0E0"/>
<path d="M206.442 225.176H214.572L215.148 239.322C215.163 239.682 215.104 240.041 214.977 240.377C214.849 240.714 214.655 241.021 214.406 241.28C214.156 241.54 213.857 241.746 213.526 241.887C213.195 242.028 212.839 242.1 212.479 242.1H208.556C208.196 242.1 207.84 242.028 207.509 241.887C207.177 241.746 206.878 241.54 206.629 241.28C206.379 241.021 206.185 240.714 206.058 240.377C205.93 240.041 205.872 239.682 205.886 239.322L206.442 225.176Z" fill="#407BFF"/>
<path d="M200.114 238.672H220.873C221.13 238.672 221.38 238.753 221.589 238.902C221.798 239.051 221.955 239.262 222.039 239.505L223.102 242.588C223.166 242.773 223.184 242.972 223.156 243.166C223.128 243.36 223.053 243.544 222.939 243.704C222.826 243.864 222.675 243.994 222.501 244.084C222.326 244.174 222.133 244.221 221.937 244.221H199.05C198.855 244.219 198.662 244.172 198.489 244.081C198.315 243.991 198.166 243.861 198.052 243.701C197.939 243.542 197.866 243.358 197.838 243.164C197.81 242.97 197.828 242.773 197.892 242.588L198.955 239.505C199.038 239.263 199.194 239.053 199.402 238.904C199.609 238.755 199.858 238.673 200.114 238.672Z" fill="#263238"/>
<path d="M200.697 210.947H220.291C221.349 210.947 222.374 210.582 223.194 209.912C224.014 209.243 224.577 208.312 224.789 207.275L225.413 204.281H195.602L196.218 207.275C196.43 208.308 196.99 209.237 197.806 209.906C198.621 210.575 199.642 210.942 200.697 210.947Z" fill="#407BFF"/>
<path d="M244.682 155.91L244.24 156.424L246.671 158.512L247.113 157.998L244.682 155.91Z" fill="#407BFF"/>
<path d="M242.656 155.072C240.057 152.805 237.716 150.258 235.677 147.477L236.219 147.07C238.228 149.812 240.535 152.323 243.096 154.557L242.656 155.072Z" fill="#407BFF"/>
<path d="M180.676 108.35C180.491 108.258 180.339 108.111 180.242 107.929C180.144 107.747 180.107 107.539 180.134 107.334C180.16 107.13 180.251 106.939 180.392 106.788C180.533 106.637 180.717 106.534 180.92 106.493C193.772 104.014 206.645 104.339 213.685 112.212C221.239 120.593 227.073 143.92 241.551 156.359C256.03 168.799 268.009 178.643 267.907 189.755C259.777 180.784 239.891 185.757 222.892 187.254C213.407 188.088 209.118 182.437 206.767 171.197C204.525 160.445 200.995 118.398 180.676 108.35Z" fill="#407BFF"/>
<path d="M182.932 109.637C185.107 108.282 187.837 105.979 185.642 104.894C183.447 103.81 182.322 104.556 182.288 105.572C182.254 106.588 180.5 111.114 182.932 109.637Z" fill="#407BFF"/>
<path d="M181.577 109.366C182.756 107.706 184.036 105.159 182.092 105.044C180.147 104.928 179.551 105.829 179.836 106.568C180.12 107.306 180.283 111.223 181.577 109.366Z" fill="#407BFF"/>
<path d="M180.96 106.243C178.684 104.644 176.299 107.212 175.073 105.172C173.955 108.912 179.016 109.867 181.021 108.607C181.177 108.231 181.251 107.826 181.241 107.419C181.23 107.011 181.135 106.611 180.96 106.243Z" fill="#407BFF"/>
<path d="M138.479 123.628C138.803 123.256 139.203 122.958 139.652 122.754C140.101 122.549 140.588 122.443 141.081 122.442H186.902C187.728 122.446 188.526 122.747 189.148 123.291C189.77 123.835 190.176 124.585 190.29 125.403L196.726 170.723C197.878 178.701 201.853 186.002 207.93 191.298C214.007 196.595 221.783 199.535 229.844 199.585H239.573C240.486 199.585 241.361 199.948 242.007 200.593C242.652 201.239 243.015 202.114 243.015 203.027C243.015 203.94 242.652 204.816 242.007 205.461C241.361 206.106 240.486 206.469 239.573 206.469H184.016C174.302 206.408 164.932 202.864 157.609 196.481C150.286 190.098 145.496 181.3 144.11 171.685L137.673 126.365C137.604 125.878 137.64 125.381 137.779 124.909C137.918 124.437 138.157 124 138.479 123.628Z" fill="#407BFF"/>
<path opacity="0.3" d="M138.479 123.628C138.803 123.256 139.203 122.958 139.652 122.754C140.101 122.549 140.588 122.443 141.081 122.442H186.902C187.728 122.446 188.526 122.747 189.148 123.291C189.77 123.835 190.176 124.585 190.29 125.403L196.726 170.723C197.878 178.701 201.853 186.002 207.93 191.298C214.007 196.595 221.783 199.535 229.844 199.585H239.573C240.486 199.585 241.361 199.948 242.007 200.593C242.652 201.239 243.015 202.114 243.015 203.027C243.015 203.94 242.652 204.816 242.007 205.461C241.361 206.106 240.486 206.469 239.573 206.469H184.016C174.302 206.408 164.932 202.864 157.609 196.481C150.286 190.098 145.496 181.3 144.11 171.685L137.673 126.365C137.604 125.878 137.64 125.381 137.779 124.909C137.918 124.437 138.157 124 138.479 123.628Z" fill="black"/>
<path d="M286.119 26.952H225.047V118.851H286.119V26.952Z" fill="#407BFF"/>
<path opacity="0.7" d="M285.048 26.952H225.047V118.851H285.048V26.952Z" fill="white"/>
<g opacity="0.2">
<mask id="mask0_9_383" style="mask-type:luminance" maskUnits="userSpaceOnUse" x="225" y="26" width="61" height="93">
<path d="M285.048 26.952H225.047V118.851H285.048V26.952Z" fill="white"/>
</mask>
<g mask="url(#mask0_9_383)">
<path d="M278.951 118.845C277.657 113.499 272.548 108.18 264.194 106.493L263.937 106.446C251.213 104.027 238.475 104.413 231.456 112.219C229.742 114.257 228.263 116.482 227.045 118.851L278.951 118.845Z" fill="#407BFF"/>
<path d="M274.398 84.2909C273.966 84.6991 273.424 84.9723 272.839 85.0768C273.426 84.2477 273.883 83.3338 274.194 82.3667C274.194 82.3667 272.616 82.9155 271.816 82.4074C272.839 81.3708 274.113 79.3856 271.451 75.727C270.529 77.2243 270.997 79.4398 270.997 79.4398C270.997 79.4398 270.427 77.8815 265.319 76.9736C260.21 76.0658 256.653 71.3705 256.653 71.3705C256.504 72.896 256.877 74.427 257.71 75.7134C255.237 74.4939 252.703 74.8801 249.024 70.9369C248.347 71.9058 248.774 75.9709 251.186 79.1146C249.783 79.2434 248.476 79.5008 247.066 79.6228C248.164 80.5916 250.251 80.7407 250.251 80.7407C250.664 83.7489 252.805 83.9047 253.056 85.7137C253.306 87.5227 249.919 90.9916 249.919 90.9916C251.101 91.872 252.472 92.4658 253.923 92.7261C250.915 97.2181 256.457 101.947 256.457 101.947C256.457 101.947 261.796 100.714 265.265 99.6911C267.095 99.0815 268.705 97.9459 269.893 96.4263C271.081 94.9067 271.795 93.0706 271.945 91.1475C271.945 91.1475 272.914 91.0933 274.086 92.9768C274.547 91.1949 273.219 88.5932 273.219 88.5932C274.128 87.3531 274.548 85.8212 274.398 84.2909Z" fill="#263238"/>
<path d="M263.374 108.133C261.416 110.674 255.366 111.378 250.881 111.141C247.595 110.972 246.863 109.298 247.629 107.821C248.198 107.274 248.88 106.858 249.627 106.602C250.196 105.362 250.318 103.964 249.973 102.645L265.095 98.8306C263.923 102.598 262.954 105.741 263.374 108.133Z" fill="#FFB573"/>
<path d="M252.5 80.5171C248.841 82.0076 247.459 86.3709 247.459 86.3709C248.271 86.3628 249.074 86.209 249.831 85.917C248.828 87.9834 245.969 89.4333 245.969 89.4333C245.969 89.4333 250.827 91.3236 254.695 89.2097C256.728 88.0986 256.931 81.1607 256.931 81.1607L252.5 80.5171Z" fill="#263238"/>
<path opacity="0.2" d="M250.007 102.645C250.321 103.867 250.243 105.156 249.783 106.331C251.877 107.266 254.79 107.171 258.625 105.619C261.613 104.413 263.368 102.144 264.777 98.9187L250.007 102.645Z" fill="black"/>
<path d="M268.442 91.4659C266.295 98.2412 265.055 101.995 260.312 103.905C250.908 107.706 246.694 103.58 246.761 96.2628C246.829 89.6705 250.339 79.6702 257.778 78.6472C259.431 78.4181 261.116 78.6143 262.672 79.2172C264.228 79.8202 265.605 80.8099 266.672 82.093C267.74 83.376 268.463 84.91 268.772 86.5501C269.082 88.1901 268.968 89.882 268.442 91.4659Z" fill="#FFB573"/>
<path d="M262.507 84.1554C264.201 87.9293 263.422 91.0662 261.721 92.2857C262.196 93.2004 263.808 93.9321 265.786 93.9863C264.506 98.336 265.244 99.6843 265.244 99.6843L270.38 91.8995C270.38 91.8995 270.59 85.3885 268.883 82.9359C267.175 80.4832 262.507 84.1554 262.507 84.1554Z" fill="#263238"/>
<path d="M248.855 85.3682C248.907 85.3898 248.963 85.3981 249.019 85.3922C249.074 85.3862 249.128 85.3663 249.173 85.3343C249.518 85.0827 249.919 84.9176 250.341 84.8527C250.763 84.7879 251.194 84.8252 251.599 84.9616C251.64 84.9793 251.684 84.9885 251.728 84.9888C251.773 84.9891 251.817 84.9805 251.858 84.9634C251.899 84.9464 251.936 84.9212 251.967 84.8895C251.999 84.8578 252.023 84.8201 252.039 84.7787C252.072 84.6949 252.071 84.6019 252.037 84.5188C252.003 84.4357 251.938 84.3687 251.856 84.3315C251.348 84.151 250.803 84.0961 250.269 84.1716C249.734 84.2471 249.226 84.4508 248.787 84.7652C248.715 84.8182 248.666 84.8967 248.649 84.9849C248.633 85.073 248.651 85.164 248.699 85.2394C248.738 85.2964 248.792 85.3411 248.855 85.3682Z" fill="#263238"/>
<path d="M257.839 85.9779C257.849 86.0326 257.872 86.0841 257.906 86.1278C257.94 86.1715 257.985 86.2062 258.036 86.2286C258.433 86.3835 258.788 86.6317 259.07 86.9525C259.352 87.2732 259.552 87.657 259.655 88.0715C259.671 88.1594 259.722 88.2372 259.795 88.288C259.869 88.3387 259.96 88.3583 260.048 88.3425C260.136 88.326 260.214 88.2757 260.266 88.2023C260.318 88.129 260.339 88.0383 260.326 87.9495C260.199 87.4239 259.948 86.9362 259.595 86.5272C259.241 86.1182 258.795 85.7998 258.293 85.5985C258.252 85.5808 258.207 85.5714 258.162 85.5711C258.117 85.5707 258.073 85.5792 258.031 85.5963C257.989 85.6133 257.952 85.6384 257.92 85.6702C257.888 85.702 257.863 85.7398 257.846 85.7815C257.823 85.8447 257.821 85.9133 257.839 85.9779Z" fill="#263238"/>
<path d="M250.772 89.0065C250.63 89.5688 250.217 89.9482 249.851 89.8534C249.485 89.7585 249.302 89.2233 249.438 88.6609C249.573 88.0986 249.993 87.7192 250.359 87.814C250.725 87.9089 250.908 88.4441 250.772 89.0065Z" fill="#263238"/>
<path d="M257.46 90.4631C257.317 91.0255 256.904 91.4049 256.538 91.3101C256.172 91.2152 255.989 90.68 256.132 90.1176C256.274 89.5553 256.68 89.1758 257.053 89.2707C257.426 89.3656 257.582 89.9008 257.46 90.4631Z" fill="#263238"/>
<path d="M252.039 89.9347L250.894 94.6774C250.894 94.6774 248.984 94.6774 248.117 93.5798C249.329 91.2897 252.039 89.9347 252.039 89.9347Z" fill="#ED893E"/>
<path d="M269.127 94.2302C268.696 94.8798 268.14 95.4376 267.493 95.8714C266.845 96.3052 266.118 96.6063 265.353 96.7574C263.32 97.1436 262.433 95.2601 263.137 93.4172C263.774 91.7573 265.603 89.5485 267.602 90.0296C269.601 90.5106 270.177 92.6177 269.127 94.2302Z" fill="#FFB573"/>
<path d="M252.961 97.5636C252.56 97.5795 252.159 97.5591 251.762 97.5026C251.735 97.4986 251.709 97.4892 251.687 97.4749C251.664 97.4606 251.644 97.4417 251.629 97.4194C251.613 97.3972 251.603 97.3721 251.598 97.3456C251.593 97.3191 251.593 97.2918 251.599 97.2655C251.611 97.2097 251.643 97.1605 251.689 97.1277C251.736 97.095 251.793 97.0813 251.85 97.0893C252.748 97.2135 253.663 97.1336 254.526 96.8556C255.39 96.5776 256.179 96.1087 256.836 95.4836C256.855 95.464 256.876 95.4483 256.901 95.4371C256.925 95.426 256.951 95.4198 256.978 95.4189C257.005 95.4179 257.032 95.4223 257.057 95.4316C257.082 95.441 257.105 95.4552 257.124 95.4734C257.144 95.4917 257.16 95.5136 257.171 95.5379C257.182 95.5623 257.188 95.5886 257.189 95.6153C257.19 95.6421 257.186 95.6687 257.176 95.6938C257.167 95.7188 257.153 95.7418 257.134 95.7614C256.014 96.8584 254.527 97.5006 252.961 97.5636Z" fill="#263238"/>
<path d="M269.398 83.8031C265.407 85.585 258.598 85.1988 256.26 84.3722C259.424 84.3248 260.766 83.2408 260.766 83.2408C260.766 83.2408 255.176 84.108 252.426 80.0225C257.277 77.5428 261.471 76.784 265.095 78.3355C268.72 79.887 269.398 83.8031 269.398 83.8031Z" fill="#263238"/>
</g>
</g>
<path opacity="0.2" d="M263.937 118.845H254.485L272.413 26.952H281.857L263.937 118.845Z" fill="white"/>
<path opacity="0.2" d="M250.806 118.845H241.362L259.282 26.952H268.727L250.806 118.845Z" fill="white"/>
</svg>
