<svg width="323" height="242" viewBox="0 0 323 242" fill="none" xmlns="http://www.w3.org/2000/svg">
<path d="M322.887 211.907H0.0701904V212.068H322.887V211.907Z" fill="#EBEBEB"/>
<path d="M55.3236 218.053H33.9402V218.215H55.3236V218.053Z" fill="#EBEBEB"/>
<path d="M116.175 216.304H88.0895V216.465H116.175V216.304Z" fill="#EBEBEB"/>
<path d="M77.7594 221.385H52.741V221.546H77.7594V221.385Z" fill="#EBEBEB"/>
<path d="M290.541 222.967H262.656V223.128H290.541V222.967Z" fill="#EBEBEB"/>
<path d="M256.904 222.967H244.766V223.128H256.904V222.967Z" fill="#EBEBEB"/>
<path d="M177.62 220.242H154.015V220.404H177.62V220.242Z" fill="#EBEBEB"/>
<path d="M153.086 183.112H28.42C27.4434 183.11 26.5073 182.721 25.8174 182.03C25.1274 181.338 24.7399 180.402 24.7399 179.425V4.1806C24.7484 3.20958 25.1396 2.28113 25.8287 1.59691C26.5177 0.912691 27.4489 0.52797 28.42 0.526306H153.086C154.063 0.526306 155.001 0.914712 155.692 1.60608C156.384 2.29744 156.772 3.23514 156.772 4.21288V179.425C156.772 180.403 156.384 181.341 155.692 182.032C155.001 182.723 154.063 183.112 153.086 183.112ZM28.42 0.655434C27.4862 0.657144 26.5912 1.0293 25.9315 1.69021C25.2718 2.35112 24.9013 3.24678 24.9013 4.1806V179.425C24.9013 180.359 25.2718 181.255 25.9315 181.916C26.5912 182.576 27.4862 182.949 28.42 182.95H153.086C154.02 182.949 154.916 182.577 155.576 181.916C156.237 181.255 156.609 180.36 156.611 179.425V4.1806C156.609 3.24619 156.237 2.35054 155.576 1.68981C154.916 1.02909 154.02 0.65714 153.086 0.655434H28.42Z" fill="#EBEBEB"/>
<path d="M292.743 183.112H168.071C167.094 183.11 166.157 182.721 165.466 182.03C164.775 181.339 164.386 180.402 164.384 179.425V4.1806C164.394 3.20899 164.787 2.28054 165.477 1.59651C166.167 0.912466 167.099 0.527951 168.071 0.526306H292.743C293.713 0.529666 294.642 0.915139 295.33 1.59917C296.018 2.28321 296.408 3.21069 296.416 4.1806V179.425C296.416 180.401 296.03 181.336 295.341 182.027C294.653 182.718 293.718 183.108 292.743 183.112ZM168.071 0.655434C167.136 0.65714 166.241 1.02909 165.58 1.68981C164.919 2.35054 164.547 3.24619 164.546 4.1806V179.425C164.547 180.36 164.919 181.255 165.58 181.916C166.241 182.577 167.136 182.949 168.071 182.95H292.743C293.677 182.949 294.573 182.577 295.234 181.916C295.894 181.255 296.266 180.36 296.268 179.425V4.1806C296.266 3.24619 295.894 2.35054 295.234 1.68981C294.573 1.02909 293.677 0.65714 292.743 0.655434H168.071Z" fill="#EBEBEB"/>
<path d="M226.675 14.7238H184.767V67.8208H226.675V14.7238Z" fill="#EBEBEB"/>
<path d="M183.243 67.8143H184.767V14.7174H183.243V67.8143Z" fill="#E0E0E0"/>
<path d="M221.871 63.0108V19.5209L189.564 19.5209V63.0108H221.871Z" fill="white"/>
<path d="M210.357 37.6223C212.916 35.0631 212.916 30.9138 210.357 28.3547C207.798 25.7955 203.649 25.7955 201.09 28.3547C198.53 30.9138 198.53 35.0631 201.09 37.6223C203.649 40.1814 207.798 40.1815 210.357 37.6223Z" fill="#F0F0F0"/>
<path d="M215.609 46.1727H195.839V49.1749H215.609V46.1727Z" fill="#F0F0F0"/>
<path d="M215.609 51.2021H195.839V54.2043H215.609V51.2021Z" fill="#F0F0F0"/>
<path d="M282.038 46.0693H240.13V99.1663H282.038V46.0693Z" fill="#EBEBEB"/>
<path d="M238.613 99.1728H240.136V46.0758H238.613V99.1728Z" fill="#E0E0E0"/>
<path d="M277.241 94.3693V50.8793H244.933V94.3693H277.241Z" fill="white"/>
<path d="M261.087 87.6869C259.459 87.6908 257.865 87.2114 256.509 86.3095C255.153 85.4076 254.095 84.1237 253.469 82.6202C252.843 81.1168 252.677 79.4613 252.991 77.8634C253.306 76.2655 254.088 74.7969 255.238 73.6435C256.388 72.49 257.854 71.7036 259.451 71.3837C261.048 71.0637 262.704 71.2247 264.209 71.8462C265.715 72.4677 267.002 73.5217 267.908 74.875C268.814 76.2283 269.298 77.82 269.3 79.4486C269.3 81.6291 268.435 83.7206 266.896 85.2649C265.357 86.8091 263.268 87.6801 261.087 87.6869ZM261.087 71.9334C259.6 71.9334 258.145 72.3746 256.908 73.2011C255.672 74.0276 254.707 75.2023 254.138 76.5767C253.569 77.9511 253.42 79.4634 253.71 80.9225C254 82.3815 254.717 83.7218 255.769 84.7737C256.821 85.8256 258.161 86.542 259.62 86.8322C261.079 87.1224 262.591 86.9735 263.966 86.4042C265.34 85.8349 266.515 84.8708 267.341 83.6339C268.168 82.397 268.609 80.9427 268.609 79.4551C268.609 77.4596 267.817 75.5458 266.406 74.1342C264.996 72.7226 263.083 71.9287 261.087 71.927V71.9334Z" fill="#F0F0F0"/>
<path d="M251.196 66.3616H270.965V64.4054H251.196V66.3616Z" fill="#F0F0F0"/>
<path d="M251.196 63.0818H270.965V61.1256H251.196V63.0818Z" fill="#F0F0F0"/>
<path d="M254.534 59.7955H267.634V57.8393H254.534V59.7955Z" fill="#F0F0F0"/>
<path d="M284.362 137.02H41.6039V140.532H284.362V137.02Z" fill="#F5F5F5"/>
<path d="M54.5166 137.02H41.6039V140.532H54.5166V137.02Z" fill="#E6E6E6"/>
<path d="M63.1229 123.623H67.8037C68.3585 123.623 68.8906 123.843 69.2829 124.236C69.6752 124.628 69.8956 125.16 69.8956 125.715V137.02H61.031V125.715C61.031 125.16 61.2514 124.628 61.6437 124.236C62.036 123.843 62.5681 123.623 63.1229 123.623Z" fill="#F5F5F5"/>
<path d="M67.7327 121.544H63.2003C63.0078 121.544 62.8517 121.7 62.8517 121.893V123.281C62.8517 123.473 63.0078 123.629 63.2003 123.629H67.7327C67.9252 123.629 68.0813 123.473 68.0813 123.281V121.893C68.0813 121.7 67.9252 121.544 67.7327 121.544Z" fill="#E6E6E6"/>
<path d="M51.2303 119.846H55.9111C56.4593 119.848 56.9849 120.064 57.3748 120.45C57.7648 120.835 57.9881 121.358 57.9965 121.906V136.994H49.1384V121.906C49.1469 121.356 49.371 120.833 49.7624 120.447C50.1538 120.062 50.681 119.846 51.2303 119.846Z" fill="#E6E6E6"/>
<path d="M52.8315 116.237H54.3035C54.4747 116.237 54.639 116.305 54.76 116.426C54.8811 116.547 54.9491 116.711 54.9491 116.883V121.647H52.1729V116.883C52.1729 116.797 52.19 116.712 52.2233 116.632C52.2565 116.553 52.3052 116.481 52.3666 116.421C52.4279 116.361 52.5006 116.314 52.5804 116.282C52.6602 116.251 52.7456 116.235 52.8315 116.237Z" fill="#E6E6E6"/>
<path d="M259.557 137.02H252.274V121.241C252.274 120.658 252.506 120.1 252.917 119.688C253.329 119.277 253.887 119.045 254.469 119.045H257.388C257.97 119.045 258.528 119.277 258.94 119.688C259.352 120.1 259.583 120.658 259.583 121.241V137.02H259.557Z" fill="#F5F5F5"/>
<path d="M254.14 119.039H257.698C257.901 119.039 258.066 118.874 258.066 118.671V116.611C258.066 116.408 257.901 116.243 257.698 116.243H254.14C253.937 116.243 253.772 116.408 253.772 116.611V118.671C253.772 118.874 253.937 119.039 254.14 119.039Z" fill="#E6E6E6"/>
<path d="M249.969 137.013H243.584V123.165C243.584 122.651 243.788 122.158 244.151 121.795C244.515 121.432 245.007 121.228 245.521 121.228H248.058C248.572 121.228 249.065 121.432 249.428 121.795C249.791 122.158 249.995 122.651 249.995 123.165V137.013H249.969Z" fill="#F5F5F5"/>
<path d="M245.211 121.253H248.336C248.514 121.253 248.659 121.109 248.659 120.931V119.123C248.659 118.945 248.514 118.8 248.336 118.8H245.211C245.033 118.8 244.888 118.945 244.888 119.123V120.931C244.888 121.109 245.033 121.253 245.211 121.253Z" fill="#E6E6E6"/>
<path d="M274.788 137.02H262.417V122.312C262.417 121.657 262.678 121.028 263.142 120.564C263.605 120.1 264.234 119.84 264.89 119.84H272.321C272.977 119.84 273.606 120.1 274.07 120.564C274.534 121.028 274.794 121.657 274.794 122.312V137.02H274.788Z" fill="#E6E6E6"/>
<path d="M270.559 121.667H266.653V117.025C266.653 116.817 266.735 116.619 266.881 116.472C267.028 116.326 267.227 116.243 267.434 116.243H269.778C269.985 116.243 270.183 116.326 270.33 116.472C270.476 116.619 270.559 116.817 270.559 117.025V121.667Z" fill="#E6E6E6"/>
<path d="M197.596 123.3H199.939C200.391 123.3 200.825 123.48 201.144 123.799C201.464 124.119 201.644 124.553 201.644 125.005V137.02H195.891V125.005C195.891 124.553 196.071 124.119 196.39 123.799C196.71 123.48 197.144 123.3 197.596 123.3Z" fill="#F5F5F5"/>
<path d="M200.185 121.17H197.357C197.2 121.17 197.073 121.297 197.073 121.454V123.023C197.073 123.179 197.2 123.307 197.357 123.307H200.185C200.341 123.307 200.469 123.179 200.469 123.023V121.454C200.469 121.297 200.341 121.17 200.185 121.17Z" fill="#E6E6E6"/>
<path d="M204.962 124.992H207.015C207.411 124.992 207.79 125.149 208.07 125.429C208.35 125.708 208.507 126.088 208.507 126.483V137.02H203.445V126.483C203.445 126.285 203.484 126.089 203.561 125.906C203.638 125.724 203.75 125.558 203.891 125.419C204.032 125.28 204.2 125.171 204.384 125.098C204.568 125.024 204.764 124.988 204.962 124.992Z" fill="#F5F5F5"/>
<path d="M207.228 123.119H204.756C204.617 123.119 204.504 123.232 204.504 123.371V124.74C204.504 124.879 204.617 124.992 204.756 124.992H207.228C207.368 124.992 207.48 124.879 207.48 124.74V123.371C207.48 123.232 207.368 123.119 207.228 123.119Z" fill="#E6E6E6"/>
<path d="M185.787 123.92H191.727C192.24 123.92 192.733 124.124 193.096 124.487C193.46 124.85 193.664 125.343 193.664 125.857V137.046H183.869V125.837C183.874 125.33 184.078 124.846 184.437 124.487C184.795 124.129 185.28 123.925 185.787 123.92Z" fill="#E6E6E6"/>
<path d="M187.821 121.17H189.693C189.854 121.17 190.008 121.233 190.122 121.347C190.236 121.461 190.3 121.615 190.3 121.776V125.308H187.214V121.776C187.214 121.615 187.278 121.461 187.392 121.347C187.505 121.233 187.66 121.17 187.821 121.17Z" fill="#E6E6E6"/>
<path d="M63.1357 161.631L65.6343 164.279C65.6343 164.279 67.1839 160.811 69.4694 159.443C69.5948 159.363 69.6993 159.255 69.7739 159.127C69.8485 158.998 69.8911 158.854 69.8981 158.706C69.9051 158.558 69.8762 158.41 69.8139 158.275C69.7517 158.14 69.6579 158.023 69.5404 157.932L68.1588 156.841C67.9934 156.704 67.7857 156.63 67.5713 156.63C67.3568 156.63 67.1491 156.704 66.9837 156.841C65.9765 157.732 63.988 159.636 63.1357 161.631Z" fill="#E6E6E6"/>
<path d="M62.6967 157.157L71.8002 170.554L66.6351 175.719L53.2059 166.622C52.3771 166.058 51.683 165.318 51.173 164.455C50.6629 163.591 50.3496 162.626 50.2553 161.628C50.1609 160.63 50.2879 159.623 50.6272 158.68C50.9665 157.736 51.5097 156.879 52.2181 156.169C52.9278 155.456 53.7865 154.909 54.7326 154.567C55.6788 154.225 56.6889 154.097 57.6905 154.191C58.6921 154.285 59.6604 154.6 60.526 155.113C61.3915 155.626 62.1328 156.324 62.6967 157.157Z" fill="#F0F0F0"/>
<path d="M60.069 157.093L64.795 163.459C64.795 163.459 69.0368 156.357 74.331 153.981C74.6198 153.842 74.8711 153.635 75.0639 153.379C75.2566 153.123 75.3853 152.824 75.439 152.508C75.4927 152.192 75.47 151.868 75.3727 151.563C75.2754 151.257 75.1064 150.979 74.8798 150.753L72.1617 148.034C71.8291 147.696 71.3877 147.486 70.9152 147.441C70.4427 147.396 69.9696 147.519 69.5792 147.789C67.2161 149.39 62.361 152.986 60.069 157.093Z" fill="#F0F0F0"/>
<path d="M254.586 161.631L257.084 164.279C257.084 164.279 258.634 160.812 260.919 159.443C261.045 159.363 261.149 159.255 261.224 159.127C261.298 158.998 261.341 158.854 261.348 158.706C261.355 158.558 261.326 158.41 261.264 158.275C261.202 158.14 261.108 158.023 260.99 157.932L259.615 156.841C259.448 156.705 259.24 156.631 259.024 156.631C258.809 156.631 258.601 156.705 258.434 156.841C257.426 157.732 255.406 159.636 254.586 161.631Z" fill="#E6E6E6"/>
<path d="M254.121 157.157L263.224 170.554L258.059 175.719L244.662 166.616C243.834 166.051 243.139 165.311 242.629 164.448C242.119 163.585 241.806 162.62 241.712 161.622C241.617 160.623 241.744 159.617 242.084 158.673C242.423 157.73 242.966 156.872 243.675 156.163C244.384 155.456 245.241 154.914 246.185 154.576C247.128 154.238 248.134 154.112 249.131 154.207C250.129 154.302 251.093 154.616 251.955 155.125C252.818 155.635 253.557 156.329 254.121 157.157Z" fill="#F0F0F0"/>
<path d="M251.519 157.093L256.245 163.459C256.245 163.459 260.487 156.357 265.781 153.981C266.07 153.842 266.321 153.635 266.514 153.379C266.707 153.123 266.835 152.824 266.889 152.508C266.943 152.192 266.92 151.868 266.823 151.562C266.725 151.257 266.556 150.979 266.33 150.752L263.612 148.034C263.281 147.704 262.846 147.499 262.381 147.454C261.915 147.409 261.449 147.528 261.061 147.789C258.66 149.39 253.804 152.986 251.519 157.093Z" fill="#F0F0F0"/>
<path d="M161.479 241.064C230.615 241.064 286.661 237.792 286.661 233.755C286.661 229.719 230.615 226.447 161.479 226.447C92.3427 226.447 36.2968 229.719 36.2968 233.755C36.2968 237.792 92.3427 241.064 161.479 241.064Z" fill="#F5F5F5"/>
<path d="M163.196 50.1691H162.551V54.5465H163.196V50.1691Z" fill="#407BFF"/>
<path d="M163.196 35.6746H162.551V46.7214H163.196V35.6746Z" fill="#407BFF"/>
<path d="M160.936 27.6107H64.7628V110.523H160.936V27.6107Z" fill="#407BFF"/>
<path d="M63.6458 110.523H64.7628L64.7628 27.6106H63.6458L63.6458 110.523Z" fill="#407BFF"/>
<path opacity="0.2" d="M63.6458 110.523H64.7628L64.7628 27.6106H63.6458L63.6458 110.523Z" fill="black"/>
<path opacity="0.8" d="M160.478 110.103V28.0239L65.2276 28.0239V110.103H160.478Z" fill="white"/>
<g opacity="0.4">
<path opacity="0.2" d="M154.377 69.1637L153.886 68.0403C153.849 67.965 153.808 67.8918 153.763 67.8208C153.728 67.5978 153.663 67.3806 153.57 67.1752C153.176 66.2777 152.388 65.7548 151.807 66.013C151.697 66.0661 151.6 66.1409 151.52 66.2331C151.44 66.3252 151.379 66.4327 151.342 66.5489L150.103 63.7146L150.593 62.4233L152.22 61.7131C153.155 59.243 153.547 56.6006 153.37 53.9655L149.819 63.0689L146.074 54.5336C145.998 57.1916 146.498 59.8345 147.54 62.2812L149.192 62.9269L149.554 63.7468L148.592 66.2002C148.55 66.087 148.485 65.9835 148.402 65.8958C148.319 65.8082 148.219 65.7382 148.108 65.6902C147.981 65.647 147.847 65.6321 147.714 65.6466C147.581 65.6611 147.453 65.7046 147.339 65.7741H147.307L147.217 65.7096C147.123 65.6488 147.021 65.603 146.913 65.574C146.86 65.562 146.805 65.562 146.752 65.574C146.714 65.592 146.681 65.6185 146.655 65.6515C146.638 65.6974 146.625 65.745 146.616 65.7935C146.61 65.86 146.61 65.9271 146.616 65.9936V66.0388C146.616 66.1099 146.616 66.1873 146.616 66.2648C146.62 66.2818 146.62 66.2995 146.616 66.3165C146.619 66.3638 146.619 66.4112 146.616 66.4585C146.522 66.6023 146.444 66.7561 146.384 66.9169C146.222 67.2258 146.159 67.5766 146.201 67.9226C146.244 68.2686 146.391 68.5933 146.623 68.8538C146.461 69.6673 146.222 70.5131 146.151 71.1393C146.149 71.1931 146.149 71.247 146.151 71.3008C146.137 71.5157 146.137 71.7314 146.151 71.9464C145.867 73.2377 145.57 74.5289 145.26 75.8202C144.912 77.3374 144.537 78.8418 144.118 80.3396C143.741 81.7884 143.29 83.2171 142.768 84.6202C142.607 85.0463 142.426 85.4531 142.245 85.8211C142.058 85.679 141.871 85.5305 141.69 85.3691C141.153 84.9141 140.64 84.4313 140.154 83.9229C139.65 83.4129 139.179 82.877 138.727 82.3217C138.275 81.7665 137.823 81.1983 137.397 80.6043C136.555 79.4128 135.783 78.1732 135.085 76.8919C134.724 76.2463 134.394 75.6007 134.078 74.955C134.007 74.813 133.949 74.6774 133.878 74.5289L134.362 73.7154C133.672 72.7135 132.795 71.8541 131.78 71.1845C131.101 70.656 130.324 70.2676 129.494 70.0418C129.099 69.9352 128.698 69.8533 128.293 69.7964L127.957 69.7642C128.08 69.3509 128.164 69.1185 128.164 69.1185C127.671 68.9454 127.163 68.8178 126.647 68.7376C126.575 68.8509 126.513 68.9696 126.46 69.0927C125.924 68.7957 125.381 68.4793 125.381 68.4793C125.381 68.4793 125.252 68.5439 125.052 68.6666C124.516 67.4466 124.249 66.1252 124.271 64.7928C128.545 65.0187 132.387 62.6428 132.019 59.3178C132.18 59.2353 132.33 59.131 132.464 59.0079C133.755 57.8393 132.961 56.774 131.754 56.1606C134.666 52.0027 132.651 46.3599 128.158 44.1195C124.555 42.3311 117.931 42.2666 118.357 44.6038C114.244 45.2494 114.883 53.0939 109.57 53.9913C110.487 56.4447 112.023 57.368 113.321 57.6714C113.321 57.8845 113.321 58.0846 113.321 58.2783C113.369 59.804 113.997 61.254 115.077 62.3334C116.156 63.4128 117.606 64.0405 119.132 64.089L119.17 64.2246C119.203 64.3602 119.229 64.4893 119.261 64.6313C119.293 64.7734 119.3 64.838 119.312 64.9348C119.355 65.1632 119.385 65.3939 119.403 65.6256C119.551 67.3301 119.041 68.8538 116.691 69.4994C116.64 69.3316 116.614 69.2218 116.614 69.2218C116.045 69.2425 115.479 69.3116 114.922 69.4284C114.961 69.3057 114.987 69.196 115.025 69.0798C114.459 69.1998 113.902 69.3616 113.36 69.564C113.295 69.6996 113.231 69.8352 113.172 69.9707C112.388 70.1056 111.634 70.3789 110.945 70.7778C109.556 71.2515 108.289 72.0252 107.233 73.044C106.773 73.4656 106.366 73.9402 106.019 74.4579C106.019 74.4579 106.335 74.955 106.774 75.7492C106.626 76.582 106.458 77.4407 106.271 78.2672C105.967 79.6036 105.664 80.9401 105.309 82.2572C104.954 83.5743 104.553 84.8784 104.146 86.1826C103.74 87.4868 103.275 88.7652 102.771 90.0112C102.649 90.3018 102.5 90.7021 102.436 90.8312C102.317 91.0748 102.186 91.3119 102.042 91.5414C101.725 92.0579 101.351 92.5938 100.951 93.1296C100.144 94.1949 99.2784 95.2796 98.3681 96.3578C96.8508 98.1721 95.269 99.9798 93.7066 101.788C92.7369 101.27 91.6378 101.046 90.543 101.142L88.6061 101.31C88.3051 101.336 88.0123 101.421 87.7447 101.561C87.477 101.701 87.2399 101.893 87.0471 102.126C86.8542 102.358 86.7095 102.627 86.6214 102.915C86.5332 103.204 86.5034 103.508 86.5336 103.808L86.6627 105.022C86.7027 105.423 86.8667 105.801 87.1316 106.104C87.3966 106.407 87.7495 106.621 88.1412 106.714C88.6475 106.824 89.1715 106.824 89.6778 106.714L92.5057 106.152C93.039 106.046 93.5416 105.822 93.9764 105.496C94.4112 105.169 94.7669 104.749 95.0172 104.267L95.0495 104.202C97.1801 102.562 99.2138 100.845 101.183 98.9985C102.229 98.0042 103.275 96.9905 104.269 95.8736C104.773 95.3119 105.263 94.7373 105.748 94.0852C106.009 93.732 106.248 93.3633 106.464 92.9812C106.669 92.621 106.854 92.2504 107.02 91.8707C107.523 90.8183 107.982 89.7465 108.414 88.6425L108.53 88.9782C108.918 91.9417 109.415 95.3765 110.048 99.3794H109.402L109.951 101.445C110.041 103.221 109.88 106.275 109.621 110.097H135.318C133.297 104.609 131.644 101.136 131.644 101.136L131.689 99.3794H130.676C130.465 95.7919 130.534 92.1935 130.882 88.6167C130.9 88.5982 130.913 88.5762 130.921 88.5521C131.222 88.0855 131.414 87.5569 131.482 87.0057C131.55 86.4545 131.493 85.8951 131.315 85.3691C131.496 84.2199 131.711 82.9846 131.96 81.6632C132.393 82.3088 132.832 82.9545 133.31 83.6001C134.329 84.9663 135.467 86.2389 136.712 87.4029C137.34 88.0001 138.002 88.5606 138.694 89.0815C139.043 89.3462 139.398 89.6045 139.76 89.8434C139.94 89.9725 140.128 90.0823 140.308 90.1985L140.586 90.3728L140.722 90.4632L140.812 90.5148L141.019 90.6246C141.16 90.7054 141.309 90.7704 141.464 90.8183C141.637 90.8825 141.817 90.928 142 90.9539C142.386 91.0153 142.781 91.0022 143.162 90.9151C143.735 90.7776 144.263 90.4978 144.699 90.1016C145.169 89.6567 145.555 89.1294 145.835 88.5457C146.252 87.7208 146.583 86.8555 146.823 85.9631C147.277 84.3775 147.628 82.7644 147.875 81.1338C148.127 79.5455 148.321 77.9508 148.489 76.369C148.586 75.3101 148.663 74.2707 148.728 73.2118C149.107 73.2113 149.483 73.1525 149.844 73.0375L152.588 72.1465C153.066 71.9798 153.505 71.7185 153.88 71.3782C154.185 71.1083 154.397 70.749 154.487 70.3514C154.576 69.9538 154.537 69.5382 154.377 69.1637ZM141.664 86.6669C141.664 86.6669 141.658 86.6862 141.671 86.6669H141.664ZM146.745 68.2598C146.631 68.0657 146.566 67.8461 146.557 67.6207C146.548 67.3953 146.595 67.1712 146.694 66.9686L146.733 66.8846L146.771 67.0525C146.769 67.0674 146.769 67.0827 146.771 67.0977V67.2462C146.774 67.2611 146.774 67.2764 146.771 67.2914C146.771 67.3559 146.771 67.414 146.771 67.4592C146.78 67.7262 146.773 67.9935 146.752 68.2598H146.745ZM148.308 67.3495C148.227 67.0632 148.117 66.7862 147.979 66.5231C147.965 66.4964 147.95 66.4706 147.933 66.4456C147.888 66.3681 147.849 66.2971 147.804 66.2325L147.727 66.1099C147.71 66.0956 147.697 66.078 147.688 66.0582C147.767 66.058 147.846 66.0711 147.92 66.0969C148.308 66.2454 148.463 66.7749 148.314 67.3495H148.308ZM149.948 67.2785L149.115 67.6594C148.893 67.76 148.677 67.8743 148.469 68.0016C148.469 68.0016 148.469 67.9305 148.469 67.8983C148.507 67.8252 148.539 67.7497 148.566 67.6723L149.857 64.3214L150.91 66.7103C150.72 66.7337 150.537 66.7962 150.372 66.894C150.208 66.9918 150.065 67.1227 149.954 67.2785H149.948ZM152.453 66.7749H152.375C152.165 66.7153 151.948 66.687 151.73 66.6909C151.795 66.5904 151.886 66.5099 151.994 66.4585C152.395 66.2842 152.931 66.6199 153.221 67.2139C152.992 67.0173 152.727 66.8681 152.44 66.7749H152.453Z" fill="#407BFF"/>
<path d="M108.653 110.103H69.7987C69.9038 108.998 70.4336 107.977 71.2765 107.254C72.1195 106.532 73.2098 106.164 74.3181 106.23H102.571C103.835 106.287 105.062 106.675 106.129 107.355C107.196 108.035 108.066 108.982 108.653 110.103Z" fill="#407BFF"/>
<path d="M104.695 88.6102C106.91 88.8103 106.71 87.1575 106.71 87.1575C106.71 87.1575 104.882 82.6381 103.307 81.8827C105.012 81.0111 106.781 79.3002 105.799 76.7499C104.818 74.1996 101.028 72.8761 97.7418 73.4184C98.4713 74.7097 95.0559 76.1172 90.9497 75.8266C86.8435 75.5361 83.7702 78.4608 86.2366 80.3461C82.253 80.3461 81.8398 85.7242 84.7516 89.088C89.8457 94.9762 93.0738 99.6183 96.5215 100.257C99.9692 100.897 108.356 95.9704 104.695 88.6102Z" fill="#263238"/>
<path d="M119.622 110.103H77.2751C79.5801 106.791 83.6605 104.383 90.53 103.847L93.3062 103.628H93.4096C93.4125 103.598 93.4125 103.567 93.4096 103.537C93.41 103.305 93.436 103.073 93.487 102.846C92.4798 102.846 90.6462 102.737 91.053 101.523C91.2919 100.813 91.5889 100.587 91.9956 100.651C91.9346 100.569 91.891 100.475 91.8674 100.376C91.8437 100.276 91.8406 100.173 91.8581 100.072C91.8756 99.9712 91.9134 99.875 91.9692 99.7892C92.0251 99.7034 92.0977 99.6299 92.1828 99.5731C93.4741 98.5207 93.7517 99.6828 94.5394 101.445C98.2031 101.574 101.83 102.226 105.309 103.382C108.51 103.513 111.654 104.275 114.561 105.623C116.619 106.635 118.367 108.183 119.622 110.103Z" fill="#407BFF"/>
<path opacity="0.4" d="M119.622 110.103H77.2751C79.5801 106.791 83.6605 104.383 90.53 103.847L93.3062 103.628H93.4096C93.4125 103.598 93.4125 103.567 93.4096 103.537C93.41 103.305 93.436 103.073 93.487 102.846C92.4798 102.846 90.6462 102.737 91.053 101.523C91.2919 100.813 91.5889 100.587 91.9956 100.651C91.9346 100.569 91.891 100.475 91.8674 100.376C91.8437 100.276 91.8406 100.173 91.8581 100.072C91.8756 99.9712 91.9134 99.875 91.9692 99.7892C92.0251 99.7034 92.0977 99.6299 92.1828 99.5731C93.4741 98.5207 93.7517 99.6828 94.5394 101.445C98.2031 101.574 101.83 102.226 105.309 103.382C108.51 103.513 111.654 104.275 114.561 105.623C116.619 106.635 118.367 108.183 119.622 110.103Z" fill="white"/>
<path d="M95.043 90.6633C95.9017 95.0666 96.7669 103.124 93.6872 106.062C93.6872 106.062 94.9785 109.29 103.133 109.29C112.12 109.29 107.355 106.062 107.355 106.062C102.455 104.887 102.578 101.252 103.436 97.8299L95.043 90.6633Z" fill="#FF8B7B"/>
<path opacity="0.2" d="M103.43 97.8363L95.0366 90.6698C95.5788 93.3756 95.8471 96.1292 95.8372 98.8887C96.6662 100.156 97.7979 101.197 99.1299 101.917C100.387 102.635 101.823 102.975 103.268 102.898C102.726 101.394 102.991 99.586 103.43 97.8363Z" fill="black"/>
<path d="M90.3622 88.9782C92.4088 94.5823 93.3192 97.9719 97.0703 100.044C102.72 103.163 108.989 98.4626 108.659 92.3549C108.362 86.8605 105.07 78.6158 98.807 78.0024C97.4264 77.8594 96.0321 78.072 94.7568 78.62C93.4816 79.1681 92.3677 80.0333 91.5213 81.1334C90.6749 82.2335 90.124 83.5318 89.9211 84.905C89.7182 86.2781 89.8701 87.6803 90.3622 88.9782Z" fill="#FF8B7B"/>
<path d="M92.7898 92.1289C94.2231 90.7731 94.7267 85.1625 92.7123 83.316C96.967 85.0979 103.54 82.5025 105.296 80.3138C101.177 76.44 93.5258 76.1947 89.3162 80.3138C85.1067 84.4329 87.1857 89.456 92.7898 92.1289Z" fill="#263238"/>
<path d="M89.865 92.9295C90.7374 94.1261 91.9779 95.0037 93.3966 95.4281C95.2754 95.964 95.9792 94.479 95.2367 92.8456C94.5911 91.3929 92.8091 89.3592 91.0272 89.527C89.2452 89.6949 88.832 91.4639 89.865 92.9295Z" fill="#FF8B7B"/>
<path d="M103.159 94.4145C102.573 94.4511 101.986 94.3707 101.431 94.1778C100.877 93.9849 100.367 93.6834 99.9305 93.2911C99.9107 93.2625 99.9016 93.2279 99.9047 93.1932C99.9078 93.1586 99.923 93.1262 99.9476 93.1016C99.9722 93.077 100.005 93.0618 100.039 93.0587C100.074 93.0556 100.109 93.0647 100.137 93.0845C100.614 93.503 101.179 93.8081 101.791 93.977C102.403 94.1458 103.045 94.174 103.669 94.0594C103.708 94.0536 103.748 94.0632 103.78 94.086C103.813 94.1088 103.835 94.1432 103.843 94.1821C103.849 94.2196 103.84 94.2579 103.818 94.2891C103.797 94.3204 103.764 94.3421 103.727 94.3499C103.539 94.386 103.349 94.4076 103.159 94.4145Z" fill="#263238"/>
<path d="M99.3558 88.5392C99.5108 89.0234 99.8982 89.3398 100.208 89.2494C100.518 89.159 100.641 88.6941 100.479 88.2099C100.318 87.7257 99.9369 87.4093 99.627 87.4997C99.3171 87.5901 99.1944 88.055 99.3558 88.5392Z" fill="#263238"/>
<path d="M105.025 86.8799C105.186 87.3641 105.567 87.687 105.883 87.5966C106.2 87.5062 106.316 87.0413 106.154 86.5571C105.993 86.0729 105.612 85.7565 105.302 85.8469C104.992 85.9373 104.863 86.3957 105.025 86.8799Z" fill="#263238"/>
<path d="M103.578 87.5579C103.578 87.5579 105.586 90.0371 107.226 91.0378C106.645 92.0773 105.096 92.129 105.096 92.129L103.578 87.5579Z" fill="#FF5652"/>
<path d="M97.4125 87.9517C97.4541 87.9362 97.4916 87.9113 97.5219 87.8788C97.5522 87.8463 97.5744 87.8071 97.5868 87.7644C97.6646 87.4091 97.8299 87.0789 98.0679 86.8037C98.3058 86.5286 98.6087 86.3173 98.9491 86.1891C98.9854 86.1781 99.0191 86.1599 99.0483 86.1356C99.0775 86.1114 99.1015 86.0815 99.119 86.0478C99.1365 86.0141 99.147 85.9772 99.1499 85.9394C99.1529 85.9016 99.1483 85.8635 99.1363 85.8275C99.1098 85.7523 99.0557 85.6898 98.9851 85.6527C98.9145 85.6156 98.8324 85.6065 98.7554 85.6274C98.3264 85.7794 97.9423 86.0362 97.6379 86.3745C97.3334 86.7128 97.1183 87.1217 97.0122 87.5643C96.994 87.6412 97.006 87.7222 97.0456 87.7906C97.0852 87.859 97.1495 87.9097 97.2252 87.9323C97.2831 87.9615 97.3498 87.9684 97.4125 87.9517Z" fill="#263238"/>
<path d="M106.6 84.6589C106.642 84.6415 106.679 84.615 106.71 84.5815C106.763 84.5261 106.793 84.452 106.793 84.3749C106.793 84.2978 106.763 84.2237 106.71 84.1683C106.377 83.8318 105.97 83.5787 105.521 83.4295C105.072 83.2803 104.595 83.2392 104.127 83.3096C104.09 83.3179 104.055 83.3336 104.024 83.3558C103.993 83.378 103.966 83.4062 103.947 83.4387C103.927 83.4712 103.914 83.5074 103.908 83.5451C103.902 83.5829 103.904 83.6213 103.914 83.6582C103.934 83.735 103.983 83.8012 104.05 83.8433C104.117 83.8853 104.198 83.8999 104.276 83.8842C104.648 83.8347 105.027 83.8725 105.382 83.9946C105.737 84.1168 106.059 84.3199 106.322 84.5879C106.359 84.6212 106.404 84.6451 106.452 84.6575C106.501 84.6698 106.551 84.6703 106.6 84.6589Z" fill="#263238"/>
<path d="M112.204 110.103H90.8335C90.1878 107.644 91.563 105.261 93.3063 103.647C93.3417 103.618 93.3741 103.586 93.4031 103.55C93.9643 103.047 94.5742 102.602 95.2238 102.22C95.3077 105.093 105.715 107.037 104.644 104.48C107.827 105.067 111.855 107.592 112.204 110.103Z" fill="#407BFF"/>
<path opacity="0.4" d="M112.204 110.103H90.8335C90.1878 107.644 91.563 105.261 93.3063 103.647C93.3417 103.618 93.3741 103.586 93.4031 103.55C93.9643 103.047 94.5742 102.602 95.2238 102.22C95.3077 105.093 105.715 107.037 104.644 104.48C107.827 105.067 111.855 107.592 112.204 110.103Z" fill="white"/>
</g>
<path opacity="0.2" d="M118.964 110.103H100.964L115.071 28.0239H133.077L118.964 110.103Z" fill="white"/>
<path opacity="0.2" d="M132.813 110.103H125.22L139.334 28.0239H146.926L132.813 110.103Z" fill="white"/>
<path d="M169.517 114.268C169.879 115.559 170.163 116.682 170.434 117.89C170.705 119.097 170.95 120.285 171.189 121.486C171.641 123.894 172.022 126.322 172.28 128.782C172.561 131.27 172.701 133.773 172.7 136.277C172.721 138.899 172.481 141.516 171.983 144.09L171.938 144.303C171.879 144.582 171.781 144.851 171.648 145.103C170.96 146.347 170.021 147.433 168.891 148.293C168.008 148.976 167.068 149.583 166.082 150.107C164.302 151.036 162.447 151.814 160.536 152.431C158.69 153.038 156.85 153.535 154.99 153.948C154.067 154.155 153.137 154.329 152.201 154.497C151.265 154.665 150.355 154.807 149.373 154.923C148.87 154.988 148.361 154.867 147.941 154.582C147.522 154.298 147.221 153.87 147.094 153.379C146.968 152.888 147.026 152.367 147.257 151.916C147.487 151.464 147.875 151.113 148.347 150.927H148.405C150.032 150.281 151.73 149.597 153.357 148.874C154.984 148.151 156.585 147.434 158.147 146.646C159.645 145.912 161.091 145.075 162.473 144.141C163.072 143.743 163.632 143.289 164.145 142.785C164.464 142.509 164.719 142.168 164.894 141.785L164.558 142.798C164.8 140.698 164.858 138.581 164.733 136.471C164.688 135.38 164.591 134.27 164.475 133.165C164.358 132.061 164.229 130.938 164.074 129.821C163.751 127.587 163.368 125.351 162.925 123.113C162.71 121.99 162.477 120.873 162.228 119.762C161.976 118.665 161.718 117.509 161.466 116.495V116.431C161.229 115.376 161.41 114.271 161.97 113.347C162.531 112.423 163.427 111.753 164.472 111.476C165.517 111.199 166.628 111.338 167.572 111.864C168.517 112.389 169.221 113.26 169.536 114.294L169.517 114.268Z" fill="#FF8B7B"/>
<path d="M150.632 150.346L145.409 150.953L146.881 157.002C146.881 157.002 151.452 156.169 152.124 153.335L150.632 150.346Z" fill="#FF8B7B"/>
<path d="M142.988 153.593L143.879 155.859C143.983 156.124 144.16 156.354 144.388 156.524C144.616 156.694 144.887 156.797 145.17 156.821L146.907 157.002L145.409 150.959L143.814 151.605C143.442 151.76 143.147 152.057 142.992 152.429C142.837 152.801 142.836 153.22 142.988 153.593Z" fill="#FF8B7B"/>
<path d="M167.031 105.874C173.746 110.665 174.54 122.422 174.54 122.422L161.421 126.425C161.421 126.425 159.045 121.111 158.528 116.308C157.702 108.586 162.221 102.446 167.031 105.874Z" fill="#407BFF"/>
<path d="M139.024 227.557H133.013L129.991 213.637H136.002L139.024 227.557Z" fill="#FF8B7B"/>
<path d="M132.587 225.291H139.34C139.459 225.291 139.575 225.332 139.668 225.408C139.761 225.483 139.825 225.587 139.85 225.704L141.038 231.05C141.066 231.179 141.065 231.312 141.034 231.441C141.004 231.569 140.945 231.689 140.862 231.791C140.779 231.893 140.674 231.976 140.554 232.032C140.435 232.088 140.305 232.116 140.173 232.115C137.816 232.077 136.667 231.941 133.717 231.941C131.889 231.941 129.546 232.128 127.021 232.128C124.497 232.128 124.168 229.636 125.201 229.41C129.836 228.397 130.159 226.995 131.657 225.665C131.911 225.432 132.242 225.299 132.587 225.291Z" fill="#263238"/>
<g opacity="0.2">
<path d="M136.009 213.637H129.991L131.67 221.353L137.565 220.817L136.009 213.637Z" fill="black"/>
</g>
<path d="M117.537 227.557H111.526L108.505 213.637H114.515L117.537 227.557Z" fill="#FF8B7B"/>
<path d="M111.119 225.291H117.873C117.992 225.291 118.108 225.332 118.201 225.408C118.293 225.483 118.358 225.587 118.383 225.704L119.571 231.05C119.599 231.18 119.598 231.315 119.566 231.444C119.535 231.573 119.475 231.693 119.39 231.796C119.306 231.899 119.199 231.981 119.078 232.036C118.957 232.091 118.826 232.118 118.693 232.115C116.33 232.077 115.187 231.941 112.236 231.941C110.409 231.941 104.443 232.128 101.906 232.128C99.3688 232.128 99.0524 229.636 100.085 229.41C104.715 228.397 108.659 226.996 110.138 225.665C110.407 225.423 110.757 225.289 111.119 225.291Z" fill="#263238"/>
<g opacity="0.2">
<path d="M114.515 213.637H108.505L110.177 221.353L116.078 220.817L114.515 213.637Z" fill="black"/>
</g>
<path d="M149.903 150.514C149.903 150.514 122.521 159.998 121.901 169.192C120.249 193.861 129.714 217.763 129.714 217.763H138.752C138.752 217.763 137.364 209.318 136.131 186.966C134.588 158.875 182.262 187.612 172.448 150.514H149.903Z" fill="#263238"/>
<path d="M127.841 215.523C127.796 215.523 129.21 219.635 129.21 219.635L139.669 218.609L139.108 214.877L127.841 215.523Z" fill="#407BFF"/>
<path d="M140.27 150.514C140.27 150.514 98.4649 154.387 98.9491 177.385C99.4592 201.273 108.188 218.415 108.188 218.415H117.124C117.124 218.415 113.553 202.868 113.85 179.341C113.941 172.291 126.311 172.239 140.225 171.445C152.24 170.735 163.467 163.885 168.155 152.786L169.11 150.514H140.27Z" fill="#263238"/>
<path d="M105.761 215.619C105.722 215.619 107.297 219.752 107.297 219.752L118.079 218.977L117.434 215.239L105.761 215.619Z" fill="#407BFF"/>
<path d="M148.734 85.3885C148.598 85.8533 148.237 86.1568 147.933 86.0664C147.63 85.976 147.494 85.5241 147.63 85.0592C147.766 84.5943 148.127 84.2909 148.431 84.3813C148.734 84.4717 148.87 84.9236 148.734 85.3885Z" fill="#263238"/>
<path d="M148.282 86.1697C148.282 86.1697 146.429 88.5392 144.88 89.4882C145.474 90.5019 146.978 90.56 146.978 90.56L148.282 86.1697Z" fill="#FF5652"/>
<path d="M151.149 82.7156C151.09 82.7118 151.035 82.6917 150.987 82.6575C150.713 82.427 150.388 82.2652 150.039 82.1854C149.69 82.1057 149.326 82.1104 148.979 82.1991C148.944 82.2112 148.906 82.2161 148.869 82.2136C148.831 82.211 148.794 82.201 148.761 82.1842C148.727 82.1674 148.697 82.1441 148.673 82.1156C148.648 82.0871 148.629 82.054 148.618 82.0183C148.595 81.9464 148.601 81.8684 148.635 81.8009C148.669 81.7334 148.727 81.6817 148.799 81.6567C149.235 81.5395 149.692 81.5281 150.134 81.6236C150.575 81.719 150.987 81.9185 151.336 82.2055C151.366 82.2283 151.391 82.2568 151.409 82.2893C151.428 82.3218 151.44 82.3577 151.445 82.3949C151.45 82.4321 151.447 82.4699 151.437 82.5061C151.428 82.5423 151.411 82.5762 151.388 82.6058C151.36 82.6429 151.324 82.6724 151.282 82.6916C151.241 82.7108 151.195 82.719 151.149 82.7156Z" fill="#263238"/>
<path d="M159.852 90.6633C158.993 95.0666 158.128 103.124 161.208 106.062C161.208 106.062 160.007 110.523 151.833 110.523C142.846 110.523 147.54 106.062 147.54 106.062C152.44 104.887 152.317 101.252 151.459 97.8299L159.852 90.6633Z" fill="#FF8B7B"/>
<path d="M160.943 103.886C156.278 103.745 151.61 103.961 146.978 104.532C144.297 104.872 141.827 106.16 140.012 108.162C138.197 110.164 137.157 112.748 137.08 115.449C136.912 122.015 137.468 132.92 140.27 150.533C150.032 152.928 166.779 154.678 172.429 150.533C172.61 146.414 169.982 134.076 171.893 116.56C172.071 114.996 171.924 113.413 171.459 111.909C170.995 110.405 170.224 109.014 169.195 107.823C168.166 106.632 166.902 105.668 165.482 104.99C164.061 104.312 162.516 103.936 160.943 103.886Z" fill="#407BFF"/>
<path d="M145.88 116.269C145.564 118.748 145.157 121.163 144.757 123.61C144.357 126.057 143.892 128.478 143.388 130.906C142.885 133.333 142.342 135.767 141.729 138.208C141.121 140.743 140.355 143.238 139.437 145.678L139.282 146.072L139.166 146.259C138.107 147.877 136.746 149.276 135.156 150.378C133.795 151.343 132.347 152.18 130.831 152.877C129.391 153.542 127.912 154.118 126.401 154.601C124.905 155.088 123.378 155.476 121.83 155.763L120.539 151.837C121.734 151.192 123.018 150.449 124.213 149.713C125.407 148.977 126.602 148.222 127.712 147.428C128.781 146.681 129.793 145.857 130.74 144.961C131.507 144.26 132.147 143.433 132.632 142.514L132.361 143.089C133.008 140.898 133.544 138.677 133.968 136.432C134.425 134.099 134.855 131.745 135.26 129.369L136.454 122.222L137.59 115.075L145.88 116.269Z" fill="#FF8B7B"/>
<path d="M125.026 149.958L118.021 152.031L121.895 157.674C121.895 157.674 124.006 157.551 125.653 153.49L125.026 149.958Z" fill="#FF8B7B"/>
<path d="M115.787 156.389L116.472 157.732C116.73 158.23 117.166 158.613 117.693 158.805C118.221 158.996 118.801 158.982 119.319 158.765L121.901 157.674L118.028 152.031L116.226 153.774C115.882 154.105 115.653 154.538 115.574 155.009C115.495 155.48 115.57 155.964 115.787 156.389Z" fill="#FF8B7B"/>
<path d="M149.786 108.702C152.543 113.745 147.849 126.444 147.849 126.444L133.846 122.99C133.846 122.99 133.962 119.439 137.035 112.66C140.567 104.932 146.791 103.182 149.786 108.702Z" fill="#407BFF"/>
<path d="M164.533 88.9782C162.486 94.5823 161.576 97.9719 157.825 100.044C152.175 103.163 145.906 98.4626 146.203 92.3549C146.494 86.8605 149.793 78.6158 156.055 78.0024C157.439 77.8533 158.837 78.0614 160.117 78.6069C161.397 79.1523 162.515 80.0169 163.366 81.118C164.216 82.219 164.77 83.5198 164.974 84.8959C165.179 86.272 165.026 87.6776 164.533 88.9782Z" fill="#FF8B7B"/>
<path d="M151.246 89.9402C149.218 90.1468 149.102 88.8297 149.102 88.8297C149.102 88.8297 148.308 84.5298 151.304 81.8827C149.741 81.0111 148.121 79.3002 149.018 76.7499C149.916 74.1996 153.395 72.8761 156.411 73.4184C155.765 74.7097 158.87 76.1172 162.641 75.8266C166.411 75.5361 169.22 78.4608 166.96 80.3461C170.615 80.3461 172.435 86.57 168.749 89.5528C161.776 95.1892 161.647 99.4181 158.419 100.057C155.19 100.696 147.921 97.3069 151.246 89.9402Z" fill="#263238"/>
<path d="M151.794 89.824C151.368 91.0097 150.568 92.0249 149.515 92.7164C148.276 93.4331 147.946 92.0708 148.179 90.2307C148.392 88.5263 149.677 86.0341 150.865 86.2795C152.053 86.5248 152.44 88.2357 151.794 89.824Z" fill="#FF8B7B"/>
<path d="M178.717 131.009C180.732 121.731 183.508 105.345 164.184 103.841L161.305 103.621C161.319 103.361 161.295 103.1 161.233 102.846C162.241 102.846 164.081 102.73 163.674 101.51C163.435 100.806 163.138 100.58 162.731 100.645C162.791 100.562 162.834 100.469 162.857 100.369C162.881 100.27 162.884 100.167 162.866 100.066C162.849 99.9655 162.811 99.8695 162.756 99.7837C162.701 99.6979 162.629 99.624 162.544 99.5666C161.253 98.5142 160.975 99.6764 160.181 101.439C156.519 101.565 152.894 102.217 149.418 103.376C142.581 103.86 136.706 105.958 134.039 112.085C129.52 122.467 134.317 143.076 121.895 146.988C111.604 150.217 109.977 155.059 106.458 159.333C106.195 159.648 106.012 160.022 105.925 160.423C105.837 160.824 105.849 161.24 105.957 161.636C106.065 162.032 106.268 162.395 106.548 162.696C106.827 162.996 107.175 163.225 107.562 163.362C114.664 165.835 123.522 166.758 130.753 166.758H178.026C186.22 166.758 176.709 140.28 178.717 131.009Z" fill="#407BFF"/>
<path opacity="0.4" d="M178.717 131.009C180.732 121.731 183.508 105.345 164.184 103.841L161.305 103.621C161.319 103.361 161.295 103.1 161.233 102.846C162.241 102.846 164.081 102.73 163.674 101.51C163.435 100.806 163.138 100.58 162.731 100.645C162.791 100.562 162.834 100.469 162.857 100.369C162.881 100.27 162.884 100.167 162.866 100.066C162.849 99.9655 162.811 99.8695 162.756 99.7837C162.701 99.6979 162.629 99.624 162.544 99.5666C161.253 98.5142 160.975 99.6764 160.181 101.439C156.519 101.565 152.894 102.217 149.418 103.376C142.581 103.86 136.706 105.958 134.039 112.085C129.52 122.467 134.317 143.076 121.895 146.988C111.604 150.217 109.977 155.059 106.458 159.333C106.195 159.648 106.012 160.022 105.925 160.423C105.837 160.824 105.849 161.24 105.957 161.636C106.065 162.032 106.268 162.395 106.548 162.696C106.827 162.996 107.175 163.225 107.562 163.362C114.664 165.835 123.522 166.758 130.753 166.758H178.026C186.22 166.758 176.709 140.28 178.717 131.009Z" fill="white"/>
<path opacity="0.3" d="M161.234 102.84C159.335 102.666 153.57 103.447 153.57 103.447C153.57 103.447 159.213 103.486 161.317 103.621C161.328 103.358 161.299 103.095 161.234 102.84Z" fill="#407BFF"/>
<path d="M182.32 165.17H115.051C112.901 165.17 111.158 166.913 111.158 169.063V172.956C111.158 175.106 112.901 176.849 115.051 176.849H182.32C184.47 176.849 186.213 175.106 186.213 172.956V169.063C186.213 166.913 184.47 165.17 182.32 165.17Z" fill="#407BFF"/>
<path opacity="0.3" d="M182.32 165.17H115.051C112.901 165.17 111.158 166.913 111.158 169.063V172.956C111.158 175.106 112.901 176.849 115.051 176.849H182.32C184.47 176.849 186.213 175.106 186.213 172.956V169.063C186.213 166.913 184.47 165.17 182.32 165.17Z" fill="black"/>
<path d="M186.09 106.242H157.831C156.253 106.298 154.738 106.872 153.519 107.876C152.301 108.88 151.447 110.257 151.091 111.795C147.346 130.704 146.098 150.023 147.378 169.256C147.517 170.764 148.211 172.167 149.325 173.193C150.439 174.219 151.894 174.794 153.408 174.809H181.661C182.375 174.82 183.083 174.681 183.739 174.4C184.395 174.119 184.984 173.704 185.468 173.18C185.953 172.656 186.321 172.035 186.55 171.359C186.778 170.683 186.861 169.967 186.794 169.256C185.515 150.023 186.761 130.705 190.5 111.795C191.107 108.722 189.177 106.242 186.09 106.242Z" fill="#407BFF"/>
<path opacity="0.3" d="M186.09 106.242H157.831C156.253 106.298 154.738 106.872 153.519 107.876C152.301 108.88 151.447 110.257 151.091 111.795C147.346 130.704 146.098 150.023 147.378 169.256C147.517 170.764 148.211 172.167 149.325 173.193C150.439 174.219 151.894 174.794 153.408 174.809H181.661C182.375 174.82 183.083 174.681 183.739 174.4C184.395 174.119 184.984 173.704 185.468 173.18C185.953 172.656 186.321 172.035 186.55 171.359C186.778 170.683 186.861 169.967 186.794 169.256C185.515 150.023 186.761 130.705 190.5 111.795C191.107 108.722 189.177 106.242 186.09 106.242Z" fill="black"/>
<path d="M190.009 108.573H163.68C162.21 108.624 160.798 109.157 159.661 110.091C158.525 111.024 157.727 112.306 157.392 113.738C153.899 131.373 152.738 149.389 153.938 167.326C154.067 168.73 154.714 170.036 155.752 170.99C156.79 171.945 158.145 172.479 159.555 172.491H185.884C186.548 172.501 187.206 172.371 187.817 172.11C188.427 171.849 188.976 171.462 189.427 170.975C189.878 170.488 190.222 169.911 190.436 169.283C190.65 168.654 190.729 167.987 190.668 167.326C189.475 149.389 190.636 131.373 194.122 113.738C194.684 110.891 192.882 108.573 190.009 108.573Z" fill="#407BFF"/>
<path d="M152.04 184.138H145.189C144.727 184.139 144.271 184.029 143.86 183.819C143.448 183.61 143.091 183.305 142.82 182.931L138.417 176.843H158.812L154.409 182.931C154.138 183.305 153.781 183.61 153.37 183.819C152.958 184.029 152.502 184.139 152.04 184.138Z" fill="#407BFF"/>
<path opacity="0.5" d="M138.417 176.849L140.244 179.367L157.902 178.108L158.812 176.849H138.417Z" fill="black"/>
<path d="M143.692 227.17H153.531L158.812 232.909H138.417L143.692 227.17Z" fill="#407BFF"/>
<path d="M151.394 184.138H145.835V227.163H151.394V184.138Z" fill="#263238"/>
<path opacity="0.6" d="M151.394 184.138H145.835V227.163H151.394V184.138Z" fill="white"/>
<path d="M205.601 69.3638C205.472 70.3387 205.337 71.1845 205.162 72.0755C204.988 72.9665 204.814 73.8251 204.627 74.6903C204.239 76.4271 203.761 78.1444 203.264 79.8554C202.264 83.2918 200.99 86.6426 199.455 89.8756C199.248 90.2953 199.119 90.6181 198.809 91.2185C198.541 91.6762 198.25 92.1201 197.938 92.5485C197.35 93.3427 196.75 94.0464 196.143 94.7243C194.929 96.0802 193.664 97.3069 192.392 98.5271C189.842 100.915 187.17 103.17 184.386 105.28C184.081 105.521 183.697 105.638 183.31 105.609C182.923 105.58 182.561 105.406 182.296 105.123C182.03 104.84 181.881 104.467 181.877 104.079C181.873 103.691 182.015 103.316 182.275 103.027C184.509 100.445 186.794 97.8621 188.931 95.2796C190.022 93.9883 191.075 92.697 192.05 91.4058C192.534 90.7601 192.992 90.1145 193.373 89.4689C193.553 89.1912 193.715 88.9022 193.857 88.6037C193.928 88.4423 194.116 87.9581 194.258 87.6094C194.903 86.0858 195.407 84.5233 195.936 82.9609C196.466 81.3984 196.918 79.8037 197.344 78.1961C197.77 76.5885 198.144 74.9679 198.506 73.3603C198.68 72.5468 198.855 71.7397 199.009 70.9262C199.164 70.1127 199.319 69.2799 199.436 68.5503V68.4793C199.583 67.6855 200.032 66.9797 200.689 66.5103C201.345 66.0409 202.159 65.8445 202.957 65.9624C203.756 66.0803 204.478 66.5034 204.971 67.1425C205.464 67.7817 205.69 68.5872 205.601 69.3896V69.3638Z" fill="#FFC3BD"/>
<path d="M204.168 64.244C201.754 65.0652 199.661 66.6291 198.19 68.7117C198.19 68.7117 202.096 74.955 202.754 79.0419C206.028 75.2843 209.256 67.3495 204.168 64.244Z" fill="#407BFF"/>
<path d="M174.592 104.325C174.555 103.96 174.592 103.591 174.699 103.24C174.806 102.89 174.982 102.564 175.216 102.281C175.45 101.999 175.738 101.766 176.063 101.596C176.389 101.426 176.744 101.322 177.11 101.29L179.421 101.097C179.421 101.097 183.785 100.529 185.27 104.176L184.89 104.906C184.585 105.492 184.152 106.003 183.624 106.4C183.095 106.796 182.484 107.069 181.836 107.198L178.407 107.882C177.79 108.004 177.154 107.993 176.541 107.85C176.065 107.739 175.636 107.483 175.313 107.116C174.99 106.749 174.789 106.29 174.74 105.803L174.592 104.325Z" fill="#FFC3BD"/>
<path d="M199.901 71.9851C200.126 77.2535 201.037 86.1374 203.471 101.136H228.231C227.863 92.187 227.443 85.9502 231.369 70.4098C232.331 66.5812 229.626 63.6048 225.216 63.0108C224.228 62.8752 223.182 62.8236 222.11 62.7719C218.366 62.5035 214.608 62.5035 210.863 62.7719C209.65 62.8817 208.397 63.0366 207.196 63.2045C205.106 63.4994 203.201 64.5621 201.852 66.1855C200.503 67.8089 199.808 69.8765 199.901 71.9851Z" fill="#407BFF"/>
<path d="M209.127 62.1844C206.615 70.0095 209.03 74.9938 209.03 74.9938C211.406 75.7104 216.7 75.9041 219.56 75.3101C219.56 75.3101 221.62 64.2569 223.221 61.7195C223.845 61.817 224.459 61.9726 225.054 62.1844C223.643 66.7588 222.723 71.4706 222.31 76.2399C224.777 77.1484 226.908 78.7881 228.418 80.9401C228.895 81.6732 229.148 82.5288 229.148 83.4032C229.148 84.2776 228.895 85.1332 228.418 85.8663C226.688 88.5586 224.067 93.969 226.32 99.6893H204.568C204.568 99.6893 203.122 90.8829 200.746 84.9236C200.429 84.1486 200.322 83.3037 200.435 82.474C200.548 81.6443 200.879 80.8591 201.392 80.1976C202.816 78.4983 204.589 77.1244 206.589 76.1688C206.589 76.1688 204.11 68.9184 207.074 62.7784C207.742 62.5277 208.428 62.3291 209.127 62.1844Z" fill="#263238"/>
<path d="M227.075 45.8176C229.354 45.9402 232.602 47.7932 230.303 49.9238C228.005 52.0544 224.983 48.0515 227.075 45.8176Z" fill="#407BFF"/>
<path d="M213.162 32.4336C208.171 33.1825 208.946 42.7637 202.502 43.8225C204.704 49.7366 209.888 48.342 209.888 48.342C209.888 48.342 208.784 53.1778 216.39 56.0896C223.996 59.0014 232.989 53.9913 228.657 47.4381C233.293 42.3376 230.897 34.7449 225.074 31.846C220.683 29.6767 212.645 29.5799 213.162 32.4336Z" fill="#263238"/>
<path d="M220.993 50.1175C220.283 53.733 219.579 60.3637 222.11 62.7719C219.065 63.6675 216.077 64.7455 213.162 66.0001C212.524 65.7188 211.973 65.2704 211.569 64.7022C211.164 64.134 210.92 63.4671 210.863 62.7719C214.899 61.8035 214.795 58.8142 214.092 55.9992L220.993 50.1175Z" fill="#FFC3BD"/>
<path d="M213.162 66.0066C213.162 66.0066 216.487 67.6917 218.114 70.4098C223.925 67.9241 224.867 64.5474 224.099 62.6622C223.267 62.2793 222.459 61.8482 221.678 61.3709C221.678 61.3709 216.7 64.3408 213.162 66.0066Z" fill="white"/>
<path d="M213.162 66.0065C211.184 66.8672 209.479 68.2512 208.229 70.0095C206.292 69.2218 206.124 64.5022 207.584 63.0302C208.683 62.6192 209.845 62.4008 211.018 62.3845C211.018 62.3845 211.664 64.7992 213.162 66.0065Z" fill="white"/>
<path opacity="0.2" d="M218.178 52.5192L214.098 56.0056C214.264 56.6556 214.372 57.3189 214.421 57.9877C215.964 57.7618 218.082 56.0508 218.243 54.4626C218.342 53.8164 218.32 53.1574 218.178 52.5192Z" fill="black"/>
<path d="M224.809 43.4803C223.402 49.3621 222.924 51.8736 219.437 54.4109C214.195 58.2202 207.422 55.218 207.08 49.0328C206.777 43.4674 209.133 34.7836 215.26 33.4278C221.387 32.072 226.223 37.5986 224.809 43.4803Z" fill="#FFC3BD"/>
<path d="M213.162 33.2212C216.099 37.7407 221.936 40.2845 221.936 40.2845C220.58 41.4208 218.533 47.677 222.472 48.413C228.735 46.9862 227.998 38.5606 226.688 36.3526C225.377 34.1445 218.385 31.0971 213.162 33.2212Z" fill="#263238"/>
<path d="M203.445 101.135C203.445 101.135 205.537 147.04 205.937 165.634C206.357 184.971 206.538 230.133 206.538 230.133H211.419C211.419 230.133 219.205 192.603 216.9 165.634C220.386 144.929 222.743 101.135 222.743 101.135H203.445Z" fill="#FFC3BD"/>
<path d="M209.947 101.135C209.947 101.135 227.585 149.209 234.59 167.19C241.951 186.069 254.031 228.732 254.244 230.133H258.466C258.466 230.133 253.63 180.846 244.85 164.078C242.196 143.082 228.231 101.135 228.231 101.135H209.947Z" fill="#FFC3BD"/>
<path d="M206.602 229.378L211.832 229.455C211.925 229.455 212.015 229.489 212.084 229.551C212.153 229.613 212.197 229.699 212.206 229.791L212.658 234.072C212.667 234.18 212.653 234.289 212.618 234.392C212.582 234.495 212.526 234.589 212.451 234.669C212.377 234.748 212.287 234.812 212.187 234.854C212.087 234.897 211.979 234.919 211.871 234.917C209.992 234.853 207.274 234.698 204.904 234.659C202.128 234.62 202.399 234.73 199.145 234.659C197.208 234.659 196.86 232.632 197.705 232.464C201.547 231.702 201.934 231.663 205.408 229.714C205.769 229.498 206.181 229.382 206.602 229.378Z" fill="#263238"/>
<path d="M253.733 229.378L258.963 229.455C259.057 229.455 259.147 229.489 259.218 229.551C259.288 229.612 259.333 229.698 259.344 229.791L259.957 234.072C259.97 234.179 259.96 234.287 259.928 234.39C259.895 234.493 259.841 234.588 259.769 234.668C259.697 234.748 259.608 234.812 259.509 234.855C259.41 234.898 259.303 234.919 259.196 234.917C257.31 234.853 256.716 234.698 254.34 234.659C251.564 234.62 252.849 234.73 249.595 234.659C247.626 234.659 247.238 232.638 248.078 232.464C250.725 231.909 251.383 230.844 252.546 229.714C252.883 229.451 253.309 229.331 253.733 229.378Z" fill="#263238"/>
<path d="M254.734 229.881C253.901 229.881 253.443 229.881 253.243 229.501C253.043 229.12 252.281 228.022 252.332 227.609C252.384 227.196 255.761 226.86 256.097 227.525C256.432 228.19 256.426 229.83 254.734 229.881Z" fill="#263238"/>
<path d="M206.421 229.882C205.898 229.882 205.621 229.882 205.498 229.501C205.242 228.895 205.064 228.259 204.969 227.609C205.007 227.189 207.125 226.86 207.319 227.525C207.512 228.19 207.474 229.83 206.421 229.882Z" fill="#263238"/>
<path opacity="0.2" d="M228.237 101.129H203.477C203.477 101.129 205.563 147.04 205.963 165.634C206.015 167.978 206.066 170.703 206.105 173.673C208.1 171.619 212.193 167.533 217.326 163.129C218.695 154.09 219.87 141.765 220.78 130.467C223.692 138.331 226.785 146.646 229.509 153.865C233.29 151.297 237.376 149.211 241.673 147.654C236.676 126.496 228.237 101.129 228.237 101.129Z" fill="black"/>
<path d="M229.38 98.9985L229.322 101.136C229.322 101.136 239.375 122.196 241.964 144.49C225.054 149.978 204.801 175.048 204.801 175.048C196.195 164.02 203.561 112.525 202.993 101.504L202.347 98.9985H229.38Z" fill="#263238"/>
<path d="M216.965 43.5449C216.881 44.0292 216.551 44.3778 216.235 44.3197C215.919 44.2616 215.731 43.8225 215.822 43.3383C215.912 42.8541 216.229 42.5119 216.545 42.5636C216.861 42.6152 217.049 43.0607 216.965 43.5449Z" fill="#263238"/>
<path d="M210.993 42.5765C210.909 43.0607 210.586 43.4029 210.269 43.3513C209.953 43.2996 209.766 42.8541 209.85 42.3699C209.934 41.8857 210.263 41.537 210.579 41.5951C210.896 41.6532 211.083 42.0923 210.993 42.5765Z" fill="#263238"/>
<path d="M210.715 41.6468L209.611 41.1044C209.611 41.1044 210.043 42.1181 210.715 41.6468Z" fill="#263238"/>
<path d="M212.516 43.6611C211.888 44.6873 211.124 45.6234 210.244 46.4438C210.457 46.6667 210.717 46.84 211.005 46.9515C211.293 47.0631 211.601 47.1101 211.909 47.0895L212.516 43.6611Z" fill="#ED847E"/>
<path d="M214.376 49.3621C214.101 49.3604 213.826 49.3345 213.556 49.2846C213.517 49.2783 213.483 49.2571 213.46 49.2257C213.437 49.1943 213.427 49.1552 213.433 49.1167C213.441 49.0796 213.463 49.0468 213.494 49.0252C213.525 49.0036 213.563 48.9948 213.601 49.0005C214.201 49.1232 214.822 49.1017 215.412 48.9378C216.003 48.7739 216.546 48.4724 216.997 48.0579C217.01 48.044 217.025 48.0329 217.042 48.0253C217.06 48.0177 217.078 48.0138 217.097 48.0138C217.116 48.0138 217.134 48.0177 217.152 48.0253C217.169 48.0329 217.184 48.044 217.197 48.0579C217.223 48.0845 217.238 48.1205 217.238 48.158C217.238 48.1955 217.223 48.2314 217.197 48.258C216.435 48.9768 215.423 49.3725 214.376 49.3621Z" fill="#263238"/>
<path d="M226.003 49.8528C225.636 50.3386 225.17 50.7411 224.636 51.0338C224.102 51.3265 223.512 51.5027 222.904 51.5508C221.361 51.6154 221.013 49.8657 221.794 48.3227C222.498 46.9604 224.151 45.2817 225.526 45.9338C226.901 46.5859 226.998 48.5874 226.003 49.8528Z" fill="#FFC3BD"/>
<path d="M218.94 41.2852C218.866 41.2582 218.804 41.2055 218.766 41.1367C218.613 40.8076 218.385 40.5192 218.1 40.2948C217.816 40.0704 217.482 39.9165 217.126 39.8454C217.085 39.8449 217.045 39.8359 217.009 39.819C216.972 39.8021 216.939 39.7776 216.912 39.7472C216.885 39.7167 216.865 39.681 216.853 39.6423C216.84 39.6036 216.837 39.5628 216.841 39.5225C216.846 39.4822 216.859 39.4433 216.879 39.4082C216.899 39.3732 216.927 39.3429 216.96 39.3192C216.993 39.2955 217.03 39.2789 217.07 39.2706C217.11 39.2623 217.151 39.2623 217.191 39.2708C217.642 39.3505 218.068 39.5376 218.432 39.8162C218.796 40.0949 219.088 40.457 219.282 40.872C219.316 40.9406 219.322 41.0197 219.297 41.0922C219.273 41.1647 219.221 41.2248 219.153 41.2594C219.088 41.2937 219.012 41.3028 218.94 41.2852Z" fill="#263238"/>
<path d="M208.759 38.9222C208.683 38.9132 208.614 38.8763 208.565 38.8189C208.519 38.7582 208.498 38.6822 208.506 38.6065C208.515 38.5308 208.552 38.4612 208.61 38.4122C208.962 38.1134 209.379 37.903 209.829 37.7986C210.278 37.6941 210.745 37.6986 211.193 37.8117C211.229 37.8236 211.263 37.8425 211.292 37.8674C211.321 37.8924 211.345 37.9228 211.362 37.9569C211.38 37.9911 211.39 38.0284 211.393 38.0666C211.396 38.1048 211.392 38.1433 211.38 38.1797C211.368 38.2162 211.349 38.25 211.324 38.2791C211.299 38.3082 211.269 38.3322 211.235 38.3496C211.2 38.367 211.163 38.3774 211.125 38.3804C211.087 38.3834 211.048 38.3788 211.012 38.367C210.659 38.2807 210.29 38.2809 209.937 38.3674C209.584 38.454 209.258 38.6243 208.985 38.8641C208.954 38.8908 208.918 38.91 208.879 38.9201C208.839 38.9302 208.798 38.9309 208.759 38.9222Z" fill="#263238"/>
<path d="M216.681 42.6152L215.576 42.0729C215.576 42.0729 216.016 43.0865 216.681 42.6152Z" fill="#263238"/>
<path d="M231.253 66.9427C231.375 67.2462 231.562 67.6981 231.737 68.079C231.911 68.46 232.098 68.8796 232.292 69.2799C232.673 70.0805 233.086 70.8746 233.519 71.6494C234.362 73.2117 235.3 74.7209 236.327 76.1688C236.837 76.8855 237.373 77.5828 237.935 78.2478C238.497 78.9128 239.058 79.5778 239.659 80.1847C240.259 80.7916 240.892 81.3856 241.531 81.9408C241.854 82.2249 242.177 82.4896 242.519 82.7479L243.029 83.1223L243.287 83.3096L243.41 83.3999H243.461L243.371 83.3483C242.99 83.172 242.562 83.1244 242.151 83.2127C241.909 83.2513 241.684 83.3615 241.505 83.5291C241.634 83.4204 241.74 83.2863 241.815 83.1352C242.215 82.4548 242.552 81.7396 242.822 80.9982C243.468 79.3712 243.978 77.5957 244.462 75.8331C245.431 72.2434 246.289 68.5374 247.109 64.8573C247.194 64.48 247.417 64.1479 247.733 63.9263C248.05 63.7047 248.439 63.6097 248.822 63.6598C249.206 63.71 249.557 63.9017 249.806 64.1974C250.055 64.493 250.185 64.8712 250.17 65.2576C250.029 69.1507 249.651 73.0317 249.04 76.879C248.726 78.8571 248.295 80.8147 247.748 82.7414C247.45 83.8193 247.048 84.8658 246.548 85.8663C246.202 86.5752 245.732 87.2161 245.159 87.758C244.633 88.2442 243.991 88.5866 243.294 88.7522C242.832 88.8579 242.354 88.8733 241.886 88.7974C241.666 88.7607 241.45 88.7045 241.24 88.6296C241.054 88.5671 240.872 88.4894 240.698 88.3972L240.453 88.2616L240.343 88.197L240.175 88.0937L239.839 87.8806C239.613 87.7386 239.387 87.5966 239.194 87.4416C238.755 87.1511 238.322 86.8412 237.903 86.5248C237.065 85.8901 236.263 85.2089 235.501 84.4846C233.984 83.0741 232.601 81.5267 231.369 79.8619C230.133 78.2371 229.011 76.5285 228.011 74.7484C227.521 73.8575 227.056 72.9536 226.617 72.0368C226.397 71.5719 226.184 71.1135 225.971 70.6357C225.758 70.158 225.59 69.7125 225.371 69.125C225.143 68.3703 225.209 67.5574 225.557 66.8498C225.904 66.1422 226.506 65.5924 227.243 65.3109C227.979 65.0295 228.795 65.0374 229.525 65.3329C230.256 65.6285 230.848 66.1898 231.181 66.904L231.253 66.9427Z" fill="#FFC3BD"/>
<path d="M226.688 63.3078C229.101 64.1279 231.192 65.6921 232.66 67.7756C232.66 67.7756 228.786 74.0189 228.102 78.1057C224.835 74.3481 221.587 66.4133 226.688 63.3078Z" fill="#407BFF"/>
<path d="M249.698 63.5273C250.208 62.688 249.802 58.401 247.891 57.8587C247.006 57.6069 247.787 59.5502 247.774 60.2669C247.774 62.2038 246.328 65.5159 247.29 65.7935C248.252 66.0711 248.82 64.9929 249.698 63.5273Z" fill="#FFC3BD"/>
<path d="M256.387 60.9513C256.241 60.6146 256.029 60.3105 255.764 60.0566C255.499 59.8027 255.186 59.6042 254.844 59.4725C254.501 59.3409 254.136 59.2788 253.769 59.29C253.402 59.3011 253.041 59.3852 252.707 59.5373L250.576 60.4929C250.576 60.4929 246.489 62.1328 246.98 66.0453L247.671 66.4972C248.224 66.8579 248.851 67.0904 249.506 67.1775C250.16 67.2646 250.826 67.2043 251.454 67.0009L254.779 65.9162C255.379 65.7241 255.929 65.4048 256.394 64.98C256.754 64.6514 257.003 64.2182 257.104 63.7412C257.206 63.2642 257.156 62.7672 256.962 62.32L256.387 60.9513Z" fill="#FFC3BD"/>
<path d="M253.805 58.4526C253.672 58.5159 253.553 58.6058 253.456 58.7169C253.36 58.828 253.287 58.9578 253.243 59.0982L246.851 44.5069C246.535 49.2652 248.633 53.888 248.633 53.888L250.634 54.6756L253.391 60.9706C253.863 62.0552 254.818 62.688 255.522 62.3781C256.226 62.0682 256.413 60.9383 255.942 59.8536C255.47 58.769 254.541 58.1427 253.805 58.4526ZM255.289 61.8357C254.786 62.0617 254.089 61.6033 253.753 60.8221C253.417 60.0409 253.546 59.2274 254.05 59.0078C254.553 58.7883 255.244 59.2338 255.586 60.0215C255.929 60.8092 255.825 61.6162 255.315 61.8615L255.289 61.8357Z" fill="#263238"/>
<path d="M254.612 59.4082C253.424 59.1693 252.029 59.2855 251.577 60.0538C251.125 60.8221 251.984 61.1191 252.481 60.9448C252.978 60.7705 254.786 61.7131 255.063 61.2805C255.341 60.8479 254.612 59.4082 254.612 59.4082Z" fill="#FFC3BD"/>
<path d="M249.343 58.0329C249.482 58.0926 249.607 58.1809 249.709 58.2922C249.812 58.4035 249.889 58.5351 249.937 58.6786L255.748 43.829C256.251 48.5744 254.347 53.2746 254.347 53.2746L252.358 54.1139L249.86 60.5703C249.434 61.6743 248.504 62.3458 247.787 62.0617C247.071 61.7776 246.838 60.6607 247.271 59.5566C247.703 58.4526 248.639 57.7489 249.343 58.0329ZM247.994 61.4742C248.504 61.6743 249.175 61.1901 249.485 60.396C249.795 59.6018 249.634 58.7948 249.117 58.5946C248.601 58.3945 247.929 58.8723 247.619 59.6664C247.309 60.4605 247.477 61.274 247.994 61.4742Z" fill="#263238"/>
<path d="M247.89 57.8587C247.167 57.6521 247.561 58.9304 247.723 59.7956C247.756 59.9527 247.773 60.1127 247.774 60.2733L249.195 59.1177C249.075 58.83 248.897 58.5699 248.673 58.3533C248.448 58.1368 248.182 57.9685 247.89 57.8587Z" fill="#FFC3BD"/>
</svg>
