<svg width="878" height="654" viewBox="0 0 878 654" fill="none" xmlns="http://www.w3.org/2000/svg">
<path d="M877.193 574.386H0V574.825H877.193V574.386Z" fill="#EBEBEB"/>
<path d="M415.79 496.14H77.0351C74.3813 496.136 71.8378 495.078 69.963 493.2C68.0881 491.322 67.0351 488.777 67.0351 486.123V9.92982C67.0582 7.29127 68.1214 4.76838 69.9938 2.90916C71.8661 1.04993 74.3964 0.00451998 77.0351 0H415.79C418.446 0 420.994 1.05542 422.873 2.93407C424.752 4.81272 425.807 7.36072 425.807 10.0175V486.123C425.807 488.78 424.752 491.328 422.873 493.206C420.994 495.085 418.446 496.14 415.79 496.14ZM77.0351 0.350879C74.4976 0.355526 72.0657 1.36678 70.2731 3.16268C68.4805 4.95858 67.4737 7.39237 67.4737 9.92982V486.123C67.4737 488.66 68.4805 491.094 70.2731 492.89C72.0657 494.686 74.4976 495.697 77.0351 495.702H415.79C418.329 495.697 420.762 494.686 422.558 492.891C424.353 491.096 425.364 488.662 425.368 486.123V9.92982C425.364 7.39075 424.353 4.957 422.558 3.16161C420.762 1.36621 418.329 0.355516 415.79 0.350879H77.0351Z" fill="#EBEBEB"/>
<path d="M795.281 496.14H456.509C453.853 496.136 451.308 495.079 449.43 493.201C447.553 491.324 446.496 488.778 446.491 486.123V9.92982C446.519 7.28967 447.586 4.7668 449.461 2.90806C451.336 1.04931 453.868 0.00447068 456.509 0H795.281C797.916 0.00913069 800.442 1.05658 802.311 2.91531C804.179 4.77405 805.24 7.2943 805.263 9.92982V486.123C805.263 488.774 804.213 491.316 802.342 493.194C800.47 495.072 797.931 496.131 795.281 496.14ZM456.509 0.350879C453.97 0.355516 451.536 1.36621 449.741 3.16161C447.945 4.957 446.934 7.39075 446.93 9.92982V486.123C446.934 488.662 447.945 491.096 449.741 492.891C451.536 494.686 453.97 495.697 456.509 495.702H795.281C797.82 495.697 800.254 494.686 802.049 492.891C803.844 491.096 804.855 488.662 804.86 486.123V9.92982C804.855 7.39075 803.844 4.957 802.049 3.16161C800.254 1.36621 797.82 0.355516 795.281 0.350879H456.509Z" fill="#EBEBEB"/>
<path d="M789.298 591.088H733.912V591.526H789.298V591.088Z" fill="#EBEBEB"/>
<path d="M588.316 586.333H529.702V586.772H588.316V586.333Z" fill="#EBEBEB"/>
<path d="M805.298 607.386H695.772V607.825H805.298V607.386Z" fill="#EBEBEB"/>
<path d="M125.772 604.439H92.0351V604.877H125.772V604.439Z" fill="#EBEBEB"/>
<path d="M194.544 604.439H141.404V604.877H194.544V604.439Z" fill="#EBEBEB"/>
<path d="M428.316 597.035H332.596V597.474H428.316V597.035Z" fill="#EBEBEB"/>
<path d="M800.79 351.298C783 343.842 753.526 351.035 729.105 380.649C717.825 394.333 706.947 414.404 704.018 434.947C704.211 411.509 704.456 386.333 704.684 362.561C707.376 350.902 711.619 339.656 717.298 329.123C735.211 293.123 750.018 297.105 774.351 268.93C814.825 222.053 838.018 133.614 797.754 168.93C761.246 200.86 743.579 232.825 731.316 260.561C714.719 298.053 708.053 324.211 704.807 350.456C705.035 328.14 705.246 307.649 705.439 291.842C706.07 240.281 707.474 223.702 707.737 218.579C708.368 206.175 712.456 198.947 713.597 197.175C723.193 182.105 738.263 172.246 753.018 155.07C787.421 115.088 807.281 65.5965 790.702 60.9298C773.386 56.1404 750.632 77.9649 725.351 129.211C710.86 158.579 707.158 165.526 704.298 223.07C704.053 228.07 702.947 246.912 702.421 273.088C698.333 244.93 690.561 216.947 677 198.403C650.842 162.632 630.947 159.211 616.456 162.632C601.965 166.053 608.035 203.614 624.386 223.684C648.947 253.895 690 247.474 702.158 287.667C701.544 323.158 701.105 368.105 700.86 409.965C696.719 388.351 692.386 370.368 682.877 353.439C665.193 321.965 643.439 308.228 628.491 323.053C619.175 332.281 629.982 358.14 649.456 368.667C669.228 379.439 685.456 394.333 691.737 403.298C693.193 405.386 698.053 413.386 700.825 418C700.561 469.105 700.597 514.21 701.035 529.596L703.509 529.825C703.351 525.86 703.509 499.86 703.719 465.456C708.035 422.526 738.351 420.193 757.737 412.018C792.386 397.368 818.579 358.772 800.79 351.298Z" fill="#E6E6E6"/>
<path d="M677.193 574.386H728.316C729.572 574.46 730.818 574.117 731.859 573.409C732.9 572.702 733.677 571.669 734.07 570.474L737.719 507.018H667.825L671.439 570.421C671.825 571.625 672.599 572.667 673.64 573.385C674.681 574.102 675.93 574.454 677.193 574.386Z" fill="#E6E6E6"/>
<path d="M669.105 528.649H736.439C738.053 528.649 739.404 526.526 739.596 523.719L740.965 502.316C741.175 499.018 739.702 496.14 737.825 496.14H667.649C665.754 496.14 664.281 499.018 664.509 502.316L665.877 523.719C666.123 526.526 667.491 528.649 669.105 528.649Z" fill="#F5F5F5"/>
<path d="M326.316 437.667H259.947V562.772H326.316V437.667Z" fill="#F0F0F0"/>
<path d="M600.018 562.772H272.702V574.386H600.018V562.772Z" fill="#F0F0F0"/>
<path d="M326.316 562.754H612.754V437.649H326.316V562.754Z" fill="#FAFAFA"/>
<path d="M352.421 491.386L586.667 491.386V452.895H352.421V491.386Z" fill="#F0F0F0"/>
<path d="M352.421 540.842H586.667V502.351H352.421V540.842Z" fill="#F0F0F0"/>
<path d="M498.281 448.105H440.807C438.579 448.105 436.772 449.912 436.772 452.14V452.316C436.772 454.544 438.579 456.351 440.807 456.351H498.281C500.509 456.351 502.316 454.544 502.316 452.316V452.14C502.316 449.912 500.509 448.105 498.281 448.105Z" fill="#FAFAFA"/>
<path d="M498.281 497.561H440.807C438.579 497.561 436.772 499.368 436.772 501.597V501.772C436.772 504 438.579 505.807 440.807 505.807H498.281C500.509 505.807 502.316 504 502.316 501.772V501.597C502.316 499.368 500.509 497.561 498.281 497.561Z" fill="#FAFAFA"/>
<path d="M621.614 426.439H326.333V437.649H621.614V426.439Z" fill="#F0F0F0"/>
<path d="M250.667 437.667H326.316V426.456H250.667V437.667Z" fill="#E6E6E6"/>
<path d="M196.211 476.281C188.632 472.316 175.333 474.368 163.421 486.526C157.1 492.922 152.568 500.865 150.281 509.561C151.246 499.228 152.316 488.105 153.316 477.614C154.952 472.565 157.253 467.757 160.158 463.316C169.439 448.088 175.842 450.404 187.649 438.877C207.333 419.702 220.982 381.491 201.807 395.544C188.085 405.504 176.847 418.496 168.965 433.509C160.193 449.456 156.263 460.754 153.825 472.228C154.772 462.386 155.579 453.333 156.333 446.351C158.579 423.544 159.842 416.316 160.14 414.07C160.471 410.749 161.642 407.567 163.544 404.825C168.421 398.526 175.439 394.737 182.561 387.719C199.281 371.351 209.93 350.211 202.789 347.544C195.316 344.772 184.421 353.561 171.316 375.228C163.789 387.667 161.895 390.596 158.421 415.912C158.105 418.123 156.912 426.439 155.684 437.947C154.947 425.351 152.579 412.702 147.281 403.982C137.088 387.175 128.421 384.912 121.895 385.965C115.368 387.018 116.632 403.754 123.07 413.246C132.807 427.526 151.14 426.246 155.018 444.474C153.404 460.123 151.509 479.982 149.754 498.474C148.754 488.754 147.526 480.649 143.965 472.807C137.351 458.228 128.175 451.333 121.158 457.316C116.702 461.035 120.491 472.86 128.702 478.368C136.912 483.877 143.632 491.07 146.07 495.281C146.632 496.246 148.474 499.982 149.579 502.123C147.368 524.561 145.719 544.474 145.333 551.281L146.474 551.439C146.561 549.684 147.596 538.211 149.018 523.018C152.526 504.193 166.035 504.316 174.912 501.439C190.754 496.316 203.789 480.246 196.211 476.281Z" fill="#F0F0F0"/>
<path d="M78.8421 437.193C88.6491 432.772 105.158 436.333 119.193 452.491C126.652 460.967 131.757 471.251 134 482.316C133.526 469.246 133.035 455.21 132.544 441.965C130.867 435.506 128.336 429.299 125.018 423.509C114.491 403.702 106.281 406.14 92.2982 390.789C69.0175 365.246 54.7544 316.281 77.7544 335.333C94.235 348.867 107.381 366.011 116.175 385.439C125.982 406.105 130.088 420.526 132.298 435.175C131.842 422.737 131.403 411.316 131.053 402.491C129.947 373.754 128.912 364.526 128.684 361.667C128.523 357.488 127.316 353.417 125.175 349.824C119.596 341.561 111.14 336.298 102.544 326.93C82.7719 305.14 70.9649 277.807 80.1228 275C89.7193 272.07 102.737 283.895 117.596 312.088C126.123 328.263 128.281 332.07 130.772 364.123C131 366.912 131.877 377.403 132.526 392C134.386 376.21 138.298 360.526 145.596 349.895C159.632 329.544 170.684 327.351 178.807 329.035C186.93 330.719 184.07 351.842 175.298 363.21C162.035 380.421 139.07 377.439 132.895 400.053C133.754 419.825 134.649 444.895 135.439 468.228C137.421 456.123 139.579 446.017 144.614 436.439C154.018 418.614 165.947 410.632 174.439 418.684C179.702 423.684 174.14 438.263 163.421 444.474C152.702 450.684 143.86 459.474 140.491 464.561C139.702 465.737 137.123 470.281 135.649 472.895C136.561 501.386 137.211 526.544 137.193 535.123L135.737 535.246C135.737 533.035 135.316 518.544 134.649 499.351C131.579 475.439 114.667 474.631 103.737 470.368C84.2105 462.754 69.0351 441.614 78.8421 437.193Z" fill="#E6E6E6"/>
<path d="M120.333 574.386H165.684C166.805 574.446 167.914 574.134 168.84 573.5C169.766 572.866 170.458 571.944 170.807 570.877L174.018 514.632H112L115.228 570.877C115.572 571.944 116.259 572.867 117.183 573.502C118.106 574.137 119.214 574.448 120.333 574.386Z" fill="#E6E6E6"/>
<path d="M113.14 533.825H172.877C174.316 533.825 175.509 531.93 175.684 529.439L176.895 510.456C177.088 507.526 175.789 504.982 174.105 504.982H111.93C110.175 504.982 108.947 507.526 109.123 510.456L110.351 529.439C110.526 531.93 111.719 533.825 113.14 533.825Z" fill="#F5F5F5"/>
<path d="M479.351 43.614H105.596V254.947H479.351V43.614Z" fill="#E6E6E6"/>
<path d="M491.035 43.614H107.579V254.947H491.035V43.614Z" fill="#F5F5F5"/>
<path d="M481.702 238.298V60.2807C481.702 56.2306 478.419 52.9474 474.368 52.9474L124.228 52.9474C120.178 52.9474 116.895 56.2306 116.895 60.2807V238.298C116.895 242.348 120.178 245.632 124.228 245.632L474.368 245.632C478.419 245.632 481.702 242.348 481.702 238.298Z" fill="white"/>
<path d="M438.596 653.614C626.461 653.614 778.754 644.723 778.754 633.754C778.754 622.786 626.461 613.895 438.596 613.895C250.732 613.895 98.4386 622.786 98.4386 633.754C98.4386 644.723 250.732 653.614 438.596 653.614Z" fill="#F5F5F5"/>
<path d="M705.105 451.596H663V449.842H705.105C710.057 449.74 714.894 448.329 719.125 445.753C723.355 443.177 726.829 439.528 729.193 435.175L730.737 436.018C728.221 440.647 724.524 444.527 720.022 447.264C715.52 450 710.373 451.495 705.105 451.596Z" fill="#407BFF"/>
<path d="M654.667 449.842H637.421V451.596H654.667V449.842Z" fill="#407BFF"/>
<path d="M705.105 445.456H212.474C209.773 445.509 207.091 444.986 204.608 443.922C202.125 442.859 199.897 441.279 198.071 439.287C196.246 437.296 194.865 434.939 194.021 432.372C193.177 429.806 192.889 427.09 193.175 424.403L219.789 119.14C220.385 113.459 223.028 108.189 227.225 104.315C231.422 100.441 236.886 98.2271 242.596 98.0877H735.228C737.928 98.0379 740.608 98.5627 743.09 99.6273C745.572 100.692 747.799 102.272 749.624 104.263C751.449 106.254 752.83 108.609 753.675 111.174C754.52 113.739 754.81 116.455 754.526 119.14L728.07 424.403C727.471 430.111 724.806 435.402 720.576 439.28C716.346 443.158 710.843 445.355 705.105 445.456Z" fill="#407BFF"/>
<path d="M694.842 439.053H214.491C212.191 439.087 209.911 438.631 207.8 437.715C205.69 436.8 203.799 435.446 202.253 433.744C200.706 432.041 199.539 430.029 198.83 427.841C198.121 425.653 197.886 423.339 198.14 421.053L222.386 142.965C222.531 141.571 223.179 140.278 224.21 139.329C225.24 138.379 226.582 137.838 227.982 137.807H733.895C734.555 137.796 735.21 137.925 735.816 138.186C736.423 138.448 736.966 138.835 737.411 139.323C737.856 139.811 738.192 140.389 738.396 141.016C738.601 141.644 738.669 142.309 738.597 142.965L714.333 421.053C713.842 425.915 711.589 430.43 707.998 433.746C704.408 437.061 699.728 438.949 694.842 439.053Z" fill="white"/>
<path d="M275.719 123.965C272.405 124.021 269.118 123.372 266.074 122.061C263.03 120.749 260.3 118.806 258.065 116.358C255.83 113.911 254.141 111.016 253.111 107.866C252.08 104.716 251.731 101.383 252.088 98.0877C252.809 91.0944 256.059 84.6052 261.228 79.84C266.398 75.0748 273.129 72.3616 280.158 72.2105C283.471 72.1537 286.758 72.8026 289.801 74.1143C292.844 75.4259 295.573 77.3702 297.807 79.8179C300.041 82.2656 301.728 85.1607 302.756 88.3107C303.785 91.4607 304.131 94.7936 303.772 98.0877H293.246C293.458 96.1315 293.251 94.1526 292.639 92.2825C292.026 90.4125 291.023 88.6942 289.695 87.2421C288.368 85.7899 286.746 84.637 284.938 83.8602C283.13 83.0834 281.178 82.7005 279.21 82.7368C275.032 82.8135 271.026 84.4172 267.949 87.2454C264.872 90.0736 262.937 93.9304 262.509 98.0877C262.297 100.044 262.504 102.023 263.116 103.893C263.728 105.763 264.731 107.481 266.059 108.933C267.387 110.386 269.008 111.538 270.816 112.315C272.624 113.092 274.577 113.475 276.544 113.439L275.719 123.965Z" fill="#263238"/>
<path d="M379.842 123.965C376.522 124.032 373.227 123.39 370.174 122.083C367.122 120.776 364.383 118.833 362.141 116.385C359.898 113.936 358.203 111.038 357.168 107.883C356.134 104.728 355.783 101.389 356.14 98.0877C356.861 91.0944 360.112 84.6052 365.281 79.84C370.45 75.0748 377.182 72.3616 384.211 72.2105C387.524 72.1537 390.811 72.8026 393.854 74.1143C396.897 75.4259 399.626 77.3702 401.86 79.8179C404.093 82.2656 405.78 85.1607 406.809 88.3107C407.837 91.4607 408.184 94.7936 407.825 98.0877H397.298C397.51 96.1315 397.303 94.1526 396.691 92.2825C396.079 90.4125 395.076 88.6942 393.748 87.2421C392.42 85.7899 390.799 84.637 388.991 83.8602C387.183 83.0834 385.23 82.7005 383.263 82.7368C379.085 82.8135 375.079 84.4172 372.002 87.2454C368.924 90.0736 366.989 93.9304 366.561 98.0877C366.352 100.043 366.561 102.021 367.174 103.89C367.788 105.759 368.791 107.476 370.118 108.927C371.445 110.379 373.066 111.532 374.872 112.31C376.679 113.087 378.63 113.472 380.596 113.439L379.842 123.965Z" fill="#263238"/>
<path d="M483.965 123.965C480.653 124.019 477.367 123.368 474.325 122.055C471.283 120.743 468.555 118.799 466.322 116.351C464.089 113.904 462.402 111.011 461.373 107.862C460.343 104.713 459.995 101.381 460.351 98.0877C461.065 91.0915 464.313 84.598 469.484 79.8314C474.654 75.0647 481.39 72.3541 488.421 72.2105C491.734 72.1537 495.022 72.8026 498.065 74.1143C501.108 75.4259 503.837 77.3702 506.07 79.8179C508.304 82.2656 509.991 85.1607 511.019 88.3107C512.048 91.4607 512.394 94.7936 512.035 98.0877H501.509C501.724 96.131 501.519 94.1508 500.908 92.2795C500.297 90.4082 499.294 88.6888 497.965 87.236C496.637 85.7831 495.014 84.6303 493.205 83.8545C491.396 83.0786 489.442 82.6976 487.474 82.7368C483.297 82.8139 479.293 84.4183 476.219 87.2468C473.145 90.0753 471.213 93.9319 470.789 98.0877C470.577 100.044 470.784 102.023 471.396 103.893C472.009 105.763 473.012 107.481 474.34 108.933C475.667 110.386 477.289 111.538 479.097 112.315C480.905 113.092 482.857 113.475 484.825 113.439L483.965 123.965Z" fill="#263238"/>
<path d="M588.088 123.965C584.775 124.019 581.489 123.368 578.448 122.055C575.406 120.743 572.678 118.799 570.445 116.351C568.212 113.904 566.525 111.011 565.495 107.862C564.466 104.713 564.118 101.381 564.474 98.0877C565.191 91.0929 568.441 84.6016 573.61 79.8357C578.78 75.0697 585.514 72.3579 592.544 72.2105C595.858 72.154 599.146 72.803 602.189 74.1145C605.233 75.426 607.963 77.3699 610.198 79.8173C612.433 82.2646 614.122 85.1594 615.152 88.3094C616.183 91.4594 616.532 94.7926 616.175 98.0877H605.649C605.861 96.1315 605.654 94.1526 605.042 92.2825C604.43 90.4125 603.427 88.6942 602.099 87.242C600.771 85.7899 599.15 84.637 597.342 83.8602C595.534 83.0834 593.581 82.7005 591.614 82.7368C587.437 82.8139 583.434 84.4183 580.359 87.2468C577.285 90.0753 575.354 93.9319 574.93 98.0877C574.718 100.044 574.925 102.023 575.537 103.893C576.149 105.763 577.152 107.481 578.48 108.933C579.808 110.386 581.429 111.538 583.237 112.315C585.045 113.092 586.998 113.475 588.965 113.439L588.088 123.965Z" fill="#263238"/>
<path d="M692.21 123.965C688.898 124.019 685.612 123.368 682.57 122.055C679.529 120.743 676.801 118.799 674.568 116.351C672.335 113.904 670.648 111.011 669.618 107.862C668.589 104.713 668.24 101.381 668.596 98.0877C669.314 91.0929 672.563 84.6016 677.733 79.8357C682.903 75.0697 689.637 72.3579 696.667 72.2105C699.98 72.154 703.268 72.803 706.312 74.1145C709.356 75.426 712.086 77.3699 714.321 79.8173C716.556 82.2646 718.245 85.1594 719.275 88.3094C720.306 91.4594 720.655 94.7926 720.298 98.0877H709.772C709.984 96.1315 709.777 94.1526 709.165 92.2825C708.553 90.4125 707.55 88.6942 706.222 87.242C704.894 85.7899 703.272 84.637 701.464 83.8602C699.657 83.0834 697.704 82.7005 695.737 82.7368C691.561 82.8177 687.56 84.4234 684.486 87.2511C681.413 90.0789 679.48 93.9333 679.053 98.0877C678.841 100.044 679.047 102.023 679.66 103.893C680.272 105.763 681.275 107.481 682.603 108.933C683.93 110.386 685.552 111.538 687.36 112.315C689.168 113.092 691.12 113.475 693.088 113.439L692.21 123.965Z" fill="#263238"/>
<path d="M693.579 426.439H218.719C218.607 426.442 218.495 426.421 218.392 426.377C218.288 426.333 218.196 426.267 218.121 426.183C218.046 426.1 217.989 426.001 217.957 425.894C217.924 425.786 217.914 425.673 217.93 425.561L241.596 154.228C241.618 153.991 241.727 153.77 241.902 153.608C242.077 153.446 242.305 153.354 242.544 153.351H717.386C717.499 153.348 717.611 153.369 717.715 153.413C717.819 153.457 717.913 153.522 717.989 153.606C718.066 153.689 718.124 153.787 718.159 153.895C718.194 154.002 718.206 154.116 718.193 154.228L694.526 425.561C694.505 425.799 694.396 426.02 694.221 426.182C694.046 426.344 693.817 426.435 693.579 426.439ZM219.754 424.684H692.842L716.368 155.105H243.281L219.754 424.684Z" fill="#E0E0E0"/>
<path d="M698.246 372.175H223.456C223.345 372.176 223.234 372.153 223.132 372.108C223.03 372.063 222.939 371.997 222.864 371.914C222.79 371.831 222.734 371.734 222.7 371.627C222.665 371.521 222.654 371.409 222.667 371.298C222.684 371.059 222.792 370.836 222.968 370.673C223.144 370.511 223.374 370.42 223.614 370.421H698.456C698.569 370.418 698.681 370.439 698.786 370.483C698.89 370.527 698.983 370.593 699.06 370.676C699.136 370.759 699.194 370.857 699.229 370.965C699.264 371.072 699.276 371.186 699.263 371.298C699.233 371.545 699.112 371.771 698.924 371.933C698.736 372.095 698.494 372.182 698.246 372.175Z" fill="#E0E0E0"/>
<path d="M703.035 317.912H228.193C228.081 317.913 227.97 317.89 227.867 317.845C227.764 317.8 227.672 317.734 227.596 317.652C227.52 317.569 227.462 317.472 227.426 317.366C227.39 317.259 227.376 317.147 227.386 317.035C227.412 316.796 227.524 316.575 227.702 316.413C227.88 316.252 228.111 316.161 228.351 316.158H703.193C703.306 316.155 703.418 316.176 703.522 316.22C703.626 316.264 703.72 316.329 703.796 316.413C703.873 316.496 703.931 316.594 703.966 316.702C704.001 316.809 704.013 316.923 704 317.035C703.971 317.273 703.857 317.492 703.68 317.653C703.503 317.814 703.274 317.906 703.035 317.912Z" fill="#E0E0E0"/>
<path d="M707.772 263.632H232.93C232.817 263.635 232.705 263.614 232.6 263.57C232.496 263.526 232.403 263.46 232.326 263.377C232.25 263.294 232.192 263.195 232.157 263.088C232.122 262.98 232.11 262.867 232.123 262.754C232.152 262.517 232.266 262.298 232.443 262.137C232.62 261.976 232.849 261.884 233.088 261.877H707.93C708.041 261.877 708.152 261.899 708.254 261.944C708.356 261.99 708.447 262.056 708.522 262.139C708.596 262.221 708.652 262.319 708.686 262.425C708.72 262.531 708.732 262.644 708.719 262.754C708.702 262.993 708.594 263.217 708.418 263.379C708.242 263.542 708.011 263.632 707.772 263.632Z" fill="#E0E0E0"/>
<path d="M712.509 209.368H237.667C237.554 209.372 237.441 209.351 237.337 209.307C237.233 209.263 237.14 209.197 237.063 209.114C236.987 209.031 236.929 208.932 236.894 208.825C236.859 208.717 236.847 208.604 236.86 208.491C236.881 208.254 236.99 208.033 237.165 207.871C237.34 207.709 237.569 207.617 237.807 207.614H712.667C712.779 207.61 712.891 207.631 712.994 207.675C713.097 207.72 713.19 207.786 713.265 207.869C713.34 207.953 713.396 208.052 713.429 208.159C713.462 208.267 713.471 208.38 713.456 208.491C713.438 208.73 713.331 208.953 713.155 209.116C712.979 209.279 712.748 209.369 712.509 209.368Z" fill="#E0E0E0"/>
<path d="M634.211 426.439C634.098 426.442 633.986 426.421 633.883 426.377C633.78 426.333 633.687 426.267 633.612 426.183C633.537 426.1 633.481 426.001 633.448 425.894C633.415 425.786 633.406 425.673 633.421 425.561L657.088 154.228C657.109 153.991 657.218 153.77 657.393 153.608C657.568 153.446 657.797 153.354 658.035 153.351C658.148 153.348 658.26 153.369 658.364 153.413C658.469 153.457 658.562 153.522 658.639 153.606C658.715 153.689 658.773 153.787 658.808 153.895C658.843 154.002 658.855 154.116 658.842 154.228L635.175 425.561C635.15 425.8 635.037 426.022 634.859 426.183C634.682 426.345 634.451 426.436 634.211 426.439Z" fill="#E0E0E0"/>
<path d="M574.86 426.439C574.747 426.442 574.634 426.421 574.53 426.377C574.426 426.333 574.333 426.267 574.256 426.184C574.18 426.101 574.122 426.002 574.087 425.895C574.052 425.787 574.04 425.674 574.053 425.561L597.719 154.228C597.745 153.989 597.857 153.768 598.035 153.606C598.213 153.445 598.444 153.354 598.684 153.351C598.797 153.347 598.908 153.368 599.012 153.412C599.115 153.456 599.208 153.522 599.283 153.606C599.358 153.69 599.414 153.788 599.447 153.896C599.48 154.003 599.489 154.117 599.474 154.228L575.807 425.561C575.789 425.8 575.682 426.024 575.506 426.186C575.33 426.349 575.099 426.439 574.86 426.439Z" fill="#E0E0E0"/>
<path d="M515.509 426.439C515.396 426.442 515.283 426.421 515.179 426.377C515.075 426.333 514.982 426.267 514.905 426.184C514.829 426.101 514.771 426.002 514.736 425.895C514.701 425.787 514.689 425.674 514.702 425.561L538.368 154.228C538.394 153.989 538.507 153.768 538.684 153.606C538.862 153.445 539.093 153.354 539.333 153.351C539.446 153.347 539.557 153.368 539.661 153.412C539.764 153.456 539.857 153.522 539.932 153.606C540.007 153.69 540.063 153.788 540.096 153.896C540.129 154.003 540.138 154.117 540.123 154.228L516.456 425.561C516.435 425.799 516.326 426.02 516.151 426.182C515.976 426.344 515.747 426.435 515.509 426.439Z" fill="#E0E0E0"/>
<path d="M456.14 426.439C456.027 426.442 455.915 426.421 455.811 426.377C455.707 426.333 455.613 426.267 455.537 426.184C455.46 426.101 455.403 426.002 455.367 425.895C455.332 425.787 455.321 425.674 455.333 425.561L478.947 154.228C478.969 153.991 479.078 153.77 479.253 153.608C479.428 153.446 479.656 153.354 479.895 153.351C480.008 153.348 480.12 153.369 480.224 153.413C480.328 153.457 480.422 153.522 480.498 153.606C480.575 153.689 480.632 153.787 480.668 153.895C480.703 154.002 480.714 154.116 480.702 154.228L457.105 425.561C457.083 425.802 456.972 426.025 456.793 426.188C456.615 426.35 456.382 426.44 456.14 426.439Z" fill="#E0E0E0"/>
<path d="M396.789 426.439C396.677 426.442 396.565 426.421 396.462 426.377C396.359 426.333 396.266 426.267 396.191 426.183C396.116 426.1 396.06 426.001 396.027 425.894C395.994 425.786 395.985 425.673 396 425.561L419.667 154.228C419.684 153.989 419.792 153.766 419.968 153.603C420.144 153.44 420.374 153.35 420.614 153.351C420.727 153.348 420.839 153.369 420.943 153.413C421.047 153.457 421.141 153.522 421.217 153.606C421.294 153.689 421.352 153.787 421.387 153.895C421.422 154.002 421.434 154.116 421.421 154.228L397.754 425.561C397.729 425.8 397.616 426.022 397.438 426.183C397.261 426.345 397.03 426.436 396.789 426.439Z" fill="#E0E0E0"/>
<path d="M337.439 426.439C337.326 426.442 337.213 426.421 337.109 426.377C337.005 426.333 336.912 426.267 336.835 426.184C336.759 426.101 336.701 426.002 336.666 425.895C336.631 425.787 336.619 425.674 336.632 425.561L360.298 154.228C360.324 153.989 360.436 153.768 360.614 153.606C360.792 153.445 361.023 153.354 361.263 153.351C361.375 153.347 361.487 153.368 361.591 153.412C361.694 153.456 361.787 153.522 361.862 153.606C361.937 153.69 361.993 153.788 362.026 153.896C362.059 154.003 362.068 154.117 362.053 154.228L338.386 425.561C338.368 425.8 338.261 426.024 338.085 426.186C337.909 426.349 337.678 426.439 337.439 426.439Z" fill="#E0E0E0"/>
<path d="M278.088 426.439C277.975 426.442 277.862 426.421 277.758 426.377C277.654 426.333 277.561 426.267 277.484 426.184C277.408 426.101 277.35 426.002 277.315 425.895C277.28 425.787 277.268 425.674 277.281 425.561L300.947 154.228C300.973 153.989 301.085 153.768 301.263 153.606C301.441 153.445 301.672 153.354 301.912 153.351C302.025 153.347 302.136 153.368 302.24 153.412C302.343 153.456 302.436 153.522 302.511 153.606C302.586 153.69 302.642 153.788 302.675 153.896C302.708 154.003 302.717 154.117 302.702 154.228L279.035 425.561C279.013 425.799 278.905 426.02 278.73 426.182C278.555 426.344 278.326 426.435 278.088 426.439Z" fill="#E0E0E0"/>
<path d="M518.719 257.333H482.456C481.738 257.345 481.026 257.204 480.367 256.919C479.708 256.634 479.117 256.212 478.634 255.681C478.151 255.15 477.787 254.521 477.565 253.838C477.344 253.155 477.271 252.433 477.351 251.719L480.158 219.526C480.308 218.007 481.011 216.596 482.133 215.561C483.256 214.526 484.719 213.939 486.246 213.912H522.509C523.228 213.898 523.942 214.037 524.603 214.321C525.265 214.605 525.858 215.027 526.343 215.558C526.828 216.09 527.193 216.719 527.416 217.403C527.638 218.087 527.712 218.811 527.632 219.526L524.824 251.719C524.674 253.242 523.968 254.655 522.842 255.69C521.716 256.726 520.249 257.311 518.719 257.333Z" fill="#407BFF"/>
<path opacity="0.6" d="M518.719 257.333H482.456C481.738 257.345 481.026 257.204 480.367 256.919C479.708 256.634 479.117 256.212 478.634 255.681C478.151 255.15 477.787 254.521 477.565 253.838C477.344 253.155 477.271 252.433 477.351 251.719L480.158 219.526C480.308 218.007 481.011 216.596 482.133 215.561C483.256 214.526 484.719 213.939 486.246 213.912H522.509C523.228 213.898 523.942 214.037 524.603 214.321C525.265 214.605 525.858 215.027 526.343 215.558C526.828 216.09 527.193 216.719 527.416 217.403C527.638 218.087 527.712 218.811 527.632 219.526L524.824 251.719C524.674 253.242 523.968 254.655 522.842 255.69C521.716 256.726 520.249 257.311 518.719 257.333Z" fill="white"/>
<path d="M771.737 257.333H733.614L737.386 213.912H775.526L761.193 235.632L771.737 257.333Z" fill="white"/>
<path d="M773.158 258.21H732.649L736.596 213.035H777.193L762.298 235.632L773.158 258.21ZM734.561 256.456H770.298L760.175 235.632L773.93 214.789H738.193L734.561 256.456Z" fill="#407BFF"/>
<path d="M632.351 311.596H596.088C595.37 311.611 594.657 311.472 593.998 311.189C593.338 310.906 592.746 310.486 592.261 309.956C591.776 309.427 591.41 308.8 591.187 308.118C590.963 307.436 590.887 306.714 590.965 306L593.772 273.789C593.93 272.272 594.639 270.865 595.763 269.834C596.888 268.803 598.352 268.219 599.877 268.193H636.14C636.857 268.182 637.568 268.322 638.227 268.606C638.885 268.89 639.476 269.31 639.96 269.839C640.444 270.368 640.811 270.994 641.036 271.675C641.26 272.355 641.338 273.076 641.263 273.789L638.456 306C638.298 307.518 637.589 308.925 636.465 309.956C635.34 310.987 633.876 311.57 632.351 311.596Z" fill="#407BFF"/>
<path opacity="0.4" d="M632.351 311.596H596.088C595.37 311.611 594.657 311.472 593.998 311.189C593.338 310.906 592.746 310.486 592.261 309.956C591.776 309.427 591.41 308.8 591.187 308.118C590.963 307.436 590.887 306.714 590.965 306L593.772 273.789C593.93 272.272 594.639 270.865 595.763 269.834C596.888 268.803 598.352 268.219 599.877 268.193H636.14C636.857 268.182 637.568 268.322 638.227 268.606C638.885 268.89 639.476 269.31 639.96 269.839C640.444 270.368 640.811 270.994 641.036 271.675C641.26 272.355 641.338 273.076 641.263 273.789L638.456 306C638.298 307.518 637.589 308.925 636.465 309.956C635.34 310.987 633.876 311.57 632.351 311.596Z" fill="white"/>
<path d="M701.842 203.07H605.561C604.842 203.085 604.128 202.945 603.467 202.661C602.805 202.378 602.213 201.956 601.728 201.424C601.243 200.893 600.877 200.264 600.654 199.579C600.432 198.895 600.359 198.171 600.439 197.456L603.246 165.263C603.396 163.744 604.099 162.333 605.221 161.298C606.344 160.263 607.807 159.676 609.333 159.649H705.632C706.35 159.637 707.063 159.779 707.723 160.064C708.383 160.348 708.974 160.77 709.459 161.301C709.943 161.832 710.309 162.46 710.533 163.143C710.756 163.826 710.832 164.549 710.754 165.263L707.947 197.456C707.797 198.978 707.091 200.392 705.965 201.427C704.839 202.463 703.372 203.047 701.842 203.07Z" fill="#407BFF"/>
<path d="M317.754 250C303.123 250 290.93 244.825 282.281 234.912C271.175 222.158 269.509 206.333 277.912 193.596C290.386 174.737 322.895 164.684 344.281 167.474C344.393 167.488 344.5 167.526 344.597 167.584C344.693 167.642 344.776 167.72 344.841 167.813C344.905 167.906 344.95 168.011 344.971 168.121C344.992 168.232 344.99 168.346 344.965 168.456C344.911 168.688 344.774 168.893 344.58 169.031C344.387 169.17 344.149 169.234 343.912 169.211C323.053 166.491 291.439 176.228 279.368 194.474C269.86 208.86 275.351 224.158 283.667 233.702C295.263 247 311.07 248.877 322.263 248.088C343.649 246.596 367.07 234.368 380.561 217.667C384.333 213 390.123 204.035 386.579 196.614C381.316 185.509 363.772 186.281 349.14 188.175C349.03 188.19 348.918 188.182 348.811 188.151C348.705 188.121 348.605 188.068 348.52 187.997C348.434 187.927 348.364 187.839 348.314 187.74C348.263 187.64 348.234 187.532 348.228 187.421C348.222 187.182 348.304 186.949 348.46 186.768C348.616 186.586 348.833 186.469 349.07 186.439C358.86 185.158 381.772 182.193 388.175 195.772C392.14 204.123 385.93 213.772 381.895 218.789C368.088 235.877 344.105 248.403 322.246 249.912C320.737 249.947 319.298 250 317.754 250Z" fill="#407BFF"/>
<path d="M610.526 301.93H610.386C610.112 301.911 609.847 301.82 609.619 301.666C609.391 301.512 609.208 301.3 609.088 301.053C607.28 296.916 604.796 293.109 601.737 289.789C601.393 289.447 601.198 288.983 601.197 288.497C601.195 288.012 601.386 287.546 601.728 287.202C602.07 286.857 602.535 286.663 603.02 286.661C603.505 286.66 603.971 286.851 604.316 287.193C607.129 290.134 609.456 293.503 611.211 297.175C617.239 290.985 623.77 285.304 630.737 280.193C631.099 279.912 631.558 279.783 632.013 279.836C632.469 279.888 632.886 280.117 633.175 280.474C633.31 280.667 633.403 280.886 633.451 281.116C633.499 281.346 633.5 281.584 633.454 281.815C633.408 282.045 633.317 282.265 633.184 282.459C633.052 282.654 632.882 282.82 632.684 282.947C625.21 288.412 618.262 294.561 611.93 301.316C611.751 301.509 611.534 301.664 611.292 301.77C611.051 301.875 610.79 301.93 610.526 301.93Z" fill="white"/>
<path d="M545.912 418.123C543.39 418.165 540.888 417.67 538.571 416.671C536.255 415.672 534.177 414.192 532.477 412.328C530.776 410.465 529.491 408.262 528.707 405.864C527.923 403.466 527.658 400.929 527.93 398.421C528.478 393.089 530.96 388.142 534.906 384.516C538.853 380.889 543.992 378.833 549.351 378.737C551.872 378.692 554.374 379.185 556.691 380.182C559.007 381.179 561.085 382.657 562.786 384.519C564.487 386.381 565.772 388.584 566.556 390.981C567.34 393.378 567.605 395.914 567.333 398.421C566.786 403.755 564.305 408.704 560.358 412.333C556.412 415.963 551.273 418.022 545.912 418.123ZM549.123 382.246C544.73 382.342 540.524 384.039 537.293 387.017C534.063 389.995 532.031 394.051 531.579 398.421C531.355 400.482 531.571 402.567 532.215 404.538C532.858 406.508 533.914 408.32 535.311 409.851C536.708 411.383 538.415 412.599 540.318 413.421C542.222 414.242 544.278 414.649 546.351 414.614C550.745 414.513 554.952 412.813 558.182 409.832C561.412 406.851 563.443 402.793 563.895 398.421C564.114 396.362 563.893 394.28 563.247 392.313C562.601 390.346 561.546 388.538 560.149 387.009C558.753 385.48 557.048 384.265 555.147 383.444C553.247 382.622 551.193 382.214 549.123 382.246Z" fill="#407BFF"/>
<path d="M377.193 309.386C374.671 309.428 372.168 308.933 369.852 307.934C367.535 306.935 365.458 305.455 363.757 303.592C362.057 301.728 360.772 299.525 359.988 297.127C359.204 294.729 358.939 292.192 359.211 289.684C359.76 284.339 362.251 279.38 366.212 275.749C370.173 272.118 375.329 270.066 380.702 269.982C383.224 269.94 385.726 270.435 388.043 271.434C390.359 272.433 392.437 273.914 394.137 275.777C395.838 277.64 397.123 279.844 397.907 282.241C398.691 284.639 398.956 287.176 398.684 289.684C398.131 295.028 395.639 299.984 391.679 303.615C387.718 307.245 382.565 309.299 377.193 309.386ZM380.316 273.491C375.92 273.588 371.712 275.287 368.481 278.269C365.25 281.251 363.22 285.311 362.772 289.684C362.548 291.745 362.764 293.83 363.408 295.801C364.051 297.771 365.107 299.583 366.504 301.114C367.901 302.646 369.608 303.863 371.511 304.684C373.415 305.505 375.471 305.912 377.544 305.877C381.938 305.777 386.145 304.076 389.375 301.095C392.605 298.114 394.636 294.056 395.088 289.684C395.309 287.627 395.091 285.546 394.448 283.579C393.806 281.612 392.754 279.804 391.361 278.273C389.968 276.743 388.267 275.526 386.369 274.701C384.471 273.877 382.42 273.465 380.351 273.491H380.316Z" fill="#407BFF"/>
<path opacity="0.1" d="M411.474 356.561H229.193C227.51 356.586 225.841 356.253 224.296 355.584C222.751 354.916 221.366 353.927 220.232 352.683C219.097 351.439 218.24 349.969 217.716 348.369C217.192 346.77 217.014 345.077 217.193 343.403C217.564 339.845 219.222 336.544 221.854 334.121C224.487 331.699 227.914 330.32 231.491 330.246H413.772C415.455 330.221 417.124 330.554 418.669 331.223C420.214 331.891 421.599 332.88 422.733 334.124C423.867 335.368 424.725 336.838 425.249 338.437C425.772 340.037 425.951 341.73 425.772 343.403C425.401 346.962 423.743 350.263 421.11 352.686C418.478 355.108 415.051 356.487 411.474 356.561Z" fill="black"/>
<path d="M169.105 314.754L175.947 317.684L166.772 328.93C165.169 326.136 163.919 323.154 163.053 320.053C162.924 319.599 162.887 319.123 162.946 318.655C163.005 318.187 163.158 317.735 163.396 317.327C163.633 316.92 163.95 316.564 164.329 316.282C164.707 315.999 165.138 315.796 165.596 315.684L169.105 314.754Z" fill="#FF8B7B"/>
<path d="M179.088 329.825L174.982 334.386C174.672 334.732 174.287 335.003 173.857 335.178C173.426 335.353 172.961 335.427 172.497 335.395C172.034 335.362 171.584 335.225 171.181 334.992C170.779 334.76 170.435 334.438 170.175 334.053L166.772 329L175.947 317.754L179.649 326.526C179.889 327.071 179.964 327.673 179.864 328.26C179.764 328.846 179.494 329.39 179.088 329.825Z" fill="#FF8B7B"/>
<path d="M420.421 352.14L183.14 333.333C181.464 333.222 179.83 332.758 178.346 331.971C176.862 331.184 175.561 330.092 174.529 328.766C173.497 327.441 172.756 325.912 172.357 324.28C171.957 322.648 171.907 320.951 172.211 319.298C172.863 315.78 174.777 312.621 177.594 310.415C180.411 308.208 183.937 307.106 187.509 307.316L424.789 326.105C426.467 326.214 428.102 326.676 429.588 327.462C431.073 328.249 432.375 329.341 433.408 330.667C434.441 331.993 435.181 333.523 435.579 335.156C435.977 336.789 436.025 338.488 435.719 340.14C435.067 343.66 433.154 346.821 430.337 349.03C427.521 351.24 423.995 352.345 420.421 352.14Z" fill="#407BFF"/>
<path d="M253 241.421C255.965 248.105 259 254.965 262.07 261.632C265.14 268.298 268.316 275.07 271.719 280.93C272.441 282.152 273.244 283.324 274.123 284.439C275.175 285.684 276.351 286.965 277.544 288.281C279.982 290.895 282.596 293.544 285.211 296.14C290.474 301.403 295.737 306.667 301 312.158L295.737 319.018C289.088 315.185 282.646 311.004 276.439 306.491C273.316 304.228 270.263 301.877 267.211 299.316C265.684 298.035 264.175 296.667 262.632 295.175C261.019 293.491 259.547 291.678 258.228 289.754C253.835 283.174 249.89 276.304 246.421 269.193C243 262.263 239.86 255.368 236.93 248.14L253 241.421Z" fill="#FF8B7B"/>
<path d="M194.982 240.351C191 246.86 186.912 253.403 182.825 259.877L170.632 279.316L169.14 281.737L168.965 282.053V282.193V282.298C168.877 282.432 168.801 282.573 168.737 282.719C168.329 283.897 168.081 285.124 168 286.368C167.8 289.762 167.9 293.167 168.298 296.544C169.053 303.702 170.474 311.263 171.982 318.579L163.842 321.596C160.127 314.396 157.186 306.821 155.07 299C153.917 294.802 153.228 290.489 153.018 286.14C152.895 283.51 153.143 280.876 153.754 278.316C154 277.544 154.193 276.842 154.526 276.018L155.07 274.825L155.298 274.351L155.456 274.035L156.807 271.386C160.316 264.368 164.193 257.561 168.105 250.825C172.018 244.088 176.088 237.474 180.386 230.912L194.982 240.351Z" fill="#FF8B7B"/>
<path d="M241.404 191.772C241.088 192.632 241.281 193.526 241.842 193.772C242.404 194.018 243.123 193.491 243.456 192.614C243.789 191.737 243.579 190.86 243.018 190.614C242.456 190.368 241.737 190.895 241.404 191.772Z" fill="#263238"/>
<path d="M241.193 193.509C241.231 196.613 241.679 199.698 242.526 202.684C241.769 202.864 240.982 202.874 240.22 202.714C239.459 202.553 238.742 202.225 238.123 201.754L241.193 193.509Z" fill="#FF5652"/>
<path d="M244.614 186.649C244.501 186.628 244.397 186.573 244.316 186.491C243.79 186.06 243.168 185.76 242.503 185.616C241.838 185.473 241.148 185.49 240.491 185.667C240.421 185.685 240.348 185.689 240.276 185.678C240.204 185.668 240.135 185.643 240.073 185.606C240.011 185.568 239.957 185.518 239.914 185.459C239.871 185.401 239.841 185.334 239.825 185.263C239.793 185.124 239.818 184.977 239.893 184.856C239.969 184.734 240.089 184.647 240.228 184.614C241.063 184.391 241.94 184.373 242.783 184.563C243.626 184.752 244.411 185.143 245.07 185.702C245.121 185.752 245.162 185.812 245.189 185.879C245.217 185.945 245.231 186.016 245.231 186.088C245.231 186.159 245.217 186.231 245.189 186.297C245.162 186.363 245.121 186.423 245.07 186.474C245.013 186.536 244.942 186.585 244.863 186.616C244.784 186.646 244.698 186.657 244.614 186.649Z" fill="#263238"/>
<path d="M209.421 193.491C208.316 202.93 210.123 214.825 203.667 219.561C203.667 219.561 205.018 228.333 220.544 230.737C237.614 233.263 229.632 223.421 229.632 223.421C220.561 219.789 221.561 212.895 223.895 206.596L209.421 193.491Z" fill="#FF8B7B"/>
<path d="M198.246 225.491C198.018 221.14 198.246 214.579 200.947 213.632C203.895 212.596 221.316 213.982 230.053 221.895C228.053 225.84 227.03 230.208 227.07 234.632L198.246 225.491Z" fill="#263238"/>
<path d="M144.86 616.789C143.28 616.659 141.742 616.218 140.333 615.491C140.284 615.467 140.243 615.43 140.215 615.383C140.187 615.336 140.173 615.282 140.175 615.228C140.179 615.177 140.198 615.128 140.229 615.088C140.26 615.047 140.303 615.017 140.351 615C140.509 615 144.018 613.596 145.614 614.351C145.786 614.433 145.939 614.551 146.063 614.696C146.187 614.841 146.279 615.01 146.333 615.193C146.431 615.407 146.459 615.646 146.411 615.876C146.364 616.107 146.245 616.316 146.07 616.474C145.719 616.724 145.288 616.837 144.86 616.789ZM141.158 615.281C142.772 616 145.07 616.561 145.684 616.053C145.684 616.053 145.93 615.86 145.684 615.351C145.65 615.24 145.593 615.138 145.518 615.051C145.442 614.963 145.35 614.892 145.246 614.842C143.869 614.598 142.451 614.751 141.158 615.281Z" fill="#407BFF"/>
<path d="M140.456 615.526C140.383 615.523 140.314 615.492 140.263 615.439C140.238 615.399 140.225 615.354 140.225 615.307C140.225 615.26 140.238 615.215 140.263 615.175C140.263 615.035 141.246 611.842 142.789 611.088C142.979 611.001 143.186 610.956 143.395 610.956C143.604 610.956 143.81 611.001 144 611.088C144.205 611.137 144.387 611.257 144.512 611.428C144.637 611.598 144.698 611.807 144.684 612.018C144.684 613.333 141.86 615.228 140.596 615.526H140.456ZM143.404 611.474C143.246 611.475 143.09 611.511 142.947 611.579C141.95 612.421 141.234 613.547 140.895 614.807C142.211 614.21 144.018 612.719 144.07 611.93C144.07 611.93 144.07 611.667 143.737 611.544C143.632 611.497 143.518 611.473 143.404 611.474Z" fill="#407BFF"/>
<path d="M233.053 621.895C231.875 621.89 230.701 621.778 229.544 621.561C229.494 621.542 229.452 621.509 229.421 621.465C229.391 621.421 229.375 621.369 229.375 621.316C229.375 621.263 229.391 621.211 229.421 621.167C229.452 621.123 229.494 621.089 229.544 621.07C230.123 620.719 235.246 617.789 236.474 619.824C236.598 620.002 236.665 620.213 236.665 620.43C236.665 620.646 236.598 620.858 236.474 621.035C235.947 621.684 234.526 621.895 233.053 621.895ZM230.368 621.158C232.544 621.474 235.474 621.421 235.965 620.719C235.965 620.719 236.123 620.491 235.965 620.105C235.193 618.947 232.07 620.263 230.368 621.158Z" fill="#407BFF"/>
<path d="M229.544 621.579C229.499 621.597 229.449 621.597 229.403 621.579C229.362 621.553 229.329 621.517 229.308 621.473C229.286 621.43 229.277 621.382 229.281 621.333C229.326 619.713 229.892 618.151 230.895 616.877C231.102 616.702 231.343 616.571 231.602 616.489C231.861 616.408 232.133 616.379 232.403 616.404C233.175 616.491 233.403 616.877 233.456 617.193C233.667 618.526 231.053 620.965 229.667 621.597L229.544 621.579ZM232.193 616.895C231.846 616.896 231.51 617.021 231.246 617.246C230.436 618.245 229.958 619.471 229.877 620.754C231.263 619.895 233.053 617.965 232.912 617.158C232.912 617.158 232.912 616.877 232.351 616.825L232.193 616.895Z" fill="#407BFF"/>
<path d="M216.86 621.298H228.404L228.526 594.544H216.965L216.86 621.298Z" fill="#FF8B7B"/>
<path d="M127.386 613.018L138.211 615.526L147.298 589.07L136.474 586.561L127.386 613.018Z" fill="#FF8B7B"/>
<path d="M139.895 613.737L127.316 610.526C127.097 610.464 126.863 610.483 126.656 610.58C126.45 610.677 126.286 610.845 126.193 611.053L121.86 620.544C121.755 620.78 121.703 621.037 121.709 621.296C121.715 621.554 121.779 621.808 121.894 622.04C122.01 622.271 122.175 622.474 122.379 622.634C122.582 622.794 122.818 622.907 123.07 622.965C127.491 624 129.684 624.281 135.211 625.667C138.614 626.526 145.561 628.649 150.263 629.824C154.965 631 156.561 626.456 154.719 625.561C146.491 621.474 143.807 618.035 141.561 614.825C141.151 614.277 140.561 613.892 139.895 613.737Z" fill="#263238"/>
<path d="M228.281 619.965H215.667C215.439 619.964 215.219 620.043 215.043 620.187C214.867 620.331 214.746 620.531 214.702 620.754L212.825 631.017C212.781 631.272 212.793 631.532 212.862 631.781C212.93 632.029 213.052 632.26 213.22 632.456C213.387 632.652 213.596 632.808 213.831 632.915C214.066 633.021 214.321 633.074 214.579 633.07C219.123 633.07 225.684 632.737 231.403 632.737C238.105 632.737 238.228 633.088 246.07 633.088C250.807 633.088 251.947 628.298 249.947 627.824C240.825 625.86 239.105 625.649 231.105 620.807C230.258 620.273 229.281 619.982 228.281 619.965Z" fill="#263238"/>
<path d="M190.14 218.772C179.158 219.649 163.667 247.193 163.667 247.193L183.561 265.21C189.757 258.275 195.395 250.86 200.421 243.035C208.228 230.526 201.368 217.877 190.14 218.772Z" fill="#407BFF"/>
<path opacity="0.6" d="M190.14 218.772C179.158 219.649 163.667 247.193 163.667 247.193L183.561 265.21C189.757 258.275 195.395 250.86 200.421 243.035C208.228 230.526 201.368 217.877 190.14 218.772Z" fill="white"/>
<path opacity="0.2" d="M195.754 238.596L182.614 264.316L183.544 265.175C183.544 265.175 188.632 259.614 194.298 251.947L195.754 238.596Z" fill="black"/>
<path d="M245.175 280.526C243.193 293.263 240.053 309.018 235.228 328.421L174.123 319.298C174.684 310.526 184.035 271.421 182.193 229.439C182.128 228.04 182.351 226.644 182.848 225.336C183.345 224.027 184.106 222.835 185.083 221.833C186.06 220.831 187.233 220.041 188.529 219.511C189.824 218.982 191.215 218.724 192.614 218.754C195.632 218.754 198.947 218.982 202.211 219.298C210.937 220.094 219.612 221.382 228.193 223.158C234.077 224.647 239.836 226.588 245.421 228.965C245.421 228.965 249.807 235.403 247.439 262.193C246.965 267.509 246.246 273.561 245.175 280.526Z" fill="#407BFF"/>
<path opacity="0.6" d="M245.175 280.526C243.193 293.263 240.053 309.018 235.228 328.421L174.123 319.298C174.684 310.526 184.035 271.421 182.193 229.439C182.128 228.04 182.351 226.644 182.848 225.336C183.345 224.027 184.106 222.835 185.083 221.833C186.06 220.831 187.233 220.041 188.529 219.511C189.824 218.982 191.215 218.724 192.614 218.754C195.632 218.754 198.947 218.982 202.211 219.298C210.937 220.094 219.612 221.382 228.193 223.158C234.077 224.647 239.836 226.588 245.421 228.965C245.421 228.965 249.807 235.403 247.439 262.193C246.965 267.509 246.246 273.561 245.175 280.526Z" fill="white"/>
<path opacity="0.2" d="M245.175 280.526C240.211 277.386 235.561 262.982 237.649 255.386L247.439 262.228C246.965 267.509 246.246 273.561 245.175 280.526Z" fill="black"/>
<path d="M231.439 236.842C228.281 247.368 247.404 278.368 247.404 278.368L270.211 266.439C266.856 256.723 262.356 247.441 256.807 238.789C247.667 225.333 235.088 224.947 231.439 236.842Z" fill="#407BFF"/>
<path opacity="0.6" d="M231.439 236.842C228.281 247.368 247.404 278.368 247.404 278.368L270.211 266.439C266.856 256.723 262.356 247.441 256.807 238.789C247.667 225.333 235.088 224.947 231.439 236.842Z" fill="white"/>
<path opacity="0.2" d="M228.509 594.561L228.456 608.351H216.912L216.965 594.561H228.509Z" fill="black"/>
<path opacity="0.2" d="M136.474 586.579L147.298 589.07L142.596 602.719L131.789 600.21L136.474 586.579Z" fill="black"/>
<path d="M213.421 177.965C210.07 188.965 207.561 195.211 210.86 202.93C211.883 205.457 213.581 207.655 215.768 209.283C217.955 210.912 220.547 211.909 223.261 212.166C225.976 212.423 228.709 211.93 231.162 210.741C233.616 209.551 235.696 207.711 237.175 205.421C243.035 196.649 247.526 180.193 238.772 171.614C236.935 169.7 234.625 168.306 232.075 167.572C229.526 166.838 226.828 166.791 224.254 167.436C221.681 168.081 219.324 169.394 217.421 171.243C215.519 173.092 214.139 175.411 213.421 177.965Z" fill="#FF8B7B"/>
<path d="M231.088 190.053C229.772 195.684 226.351 205.842 217.93 207.018C213.228 207.667 205.404 206.281 204.684 202.491C203.965 198.702 206.877 199.211 206.14 196.105C205.404 193 201.561 182.07 205.93 174.421C199.86 174.93 204.018 165.93 214.912 163.895C211.544 162.579 213.158 153.368 229.965 157.754C237.825 159.772 243.667 162.86 244.368 167.088C251.526 170.105 253.421 177.702 248.982 180.474C244.544 183.246 238.123 180.123 238.123 180.123C238.123 180.123 241.158 196.193 231.088 190.053Z" fill="#263238"/>
<path d="M226.509 189.193C226.355 191.719 227.128 194.214 228.684 196.21C230.772 198.877 231.474 198.895 232.333 195.93C233.123 193.263 235.035 187.298 232.246 185.719C229.456 184.14 226.754 186.123 226.509 189.193Z" fill="#FF8B7B"/>
<path d="M213.561 325.193C213.561 325.193 204.07 415.789 198.246 448.842C191.754 485.053 148.632 601.474 148.632 601.474L128.07 596.386C138.596 556.035 154.193 480.895 163.684 452.123C170.842 408.386 163.684 353.403 174.211 319.333L213.561 325.193Z" fill="#263238"/>
<path d="M153.421 594.737L149.632 602.158L126.544 596.351L128.456 589.333L153.421 594.737Z" fill="#407BFF"/>
<path opacity="0.2" d="M207.702 360.526C208.356 360.396 209.03 360.396 209.684 360.526C206.649 387.579 202.333 423.684 198.93 444.403C196.088 414.298 193.456 363.333 207.702 360.526Z" fill="black"/>
<path d="M235.228 328.421C235.228 328.421 240.018 425.228 240.719 460.439C241.439 497.07 232.667 605.684 232.667 605.684H213.088C213.088 605.684 205.702 504.965 209.684 455.842C204.965 418.421 195.07 322.509 195.07 322.509L235.228 328.421Z" fill="#263238"/>
<path d="M305.877 311.053C302.694 310.788 299.492 311.244 296.509 312.386L295.088 314.737C294.811 315.202 294.644 315.724 294.597 316.263C294.55 316.802 294.626 317.345 294.818 317.851C295.01 318.357 295.314 318.813 295.707 319.185C296.1 319.557 296.572 319.836 297.088 320L303.947 322.193L307.298 323.21C308.003 323.429 308.759 323.419 309.458 323.183C310.158 322.946 310.765 322.496 311.193 321.895L312.632 319.895C313.148 319.189 313.382 318.315 313.288 317.445C313.194 316.575 312.779 315.772 312.123 315.193L309.035 312.403C308.155 311.625 307.048 311.151 305.877 311.053Z" fill="#FF8B7B"/>
<path d="M236.123 597.877L235.333 606H211.526L210.614 598.754L236.123 597.877Z" fill="#407BFF"/>
</svg>
